<ttFont>
          <CharString index="0">
            -63 -50 -45 -57 -68 -47 49 68 79 55 44 69 6 8 101 callgsubr
            -5 -9 1 -9 hhcurveto
            -108 5 callsubr
            -108 75 -72 109 47 41 17 29 28 hvcurveto
            -144 79 return
          </CharString>
          <CharString index="1">
            -88 callgsubr
            51 45 57 return
          </CharString>
          <CharString index="2">
            70 callsubr
            -80 -59 54 72 -16 vhcurveto
            78 -98 callsubr
            hlineto
            return
          </CharString>
          <CharString index="3">
            -22 callsubr
            310 vlineto
            63 49 47 60 66 46 -48 -68 -82 -54 -42 -6 callsubr
            -2 6 9 0 173 callgsubr
            69 122 106 -73 74 161 callgsubr
            123 callgsubr
            138 vlineto
            endchar
          </CharString>
          <CharString index="4">
            -2 -10 -11 0 -6 hhcurveto
            -120 -53 90 106 95 46 46 55 55 return
          </CharString>
          <CharString index="5">
            rmoveto
            -65 vlineto
            -62 -45 -46 -73 -66 -32 36 49 47 37 41 91 vhcurveto
            -174 167 rmoveto
            26 38 57 17 49 hhcurveto
            89 29 -45 -76 hvcurveto
            -26 -92 vlineto
            -127 -80 -56 -98 -85 63 -63 95 84 41 37 28 17 hvcurveto
            -60 78 321 vlineto
            124 -56 70 -135 -57 -59 -14 -21 -34 vhcurveto
            endchar
          </CharString>
          <CharString index="6">
            168 callgsubr
            -69 -55 -84 callsubr
            -16 -25 3 return
          </CharString>
          <CharString index="7">
            -72 callsubr
            -99 -70 hlineto
            221 -253 rlineto
            103 hlineto
            -230 256 rlineto
            33 hlineto
            1 callsubr
            -62 80 -103 -93 -52 -65 -72 -21 3 -22 10 -21 hvcurveto
            return
          </CharString>
          <CharString index="8">
            -67 173 -231 hlineto
            -92 callsubr
            return
          </CharString>
          <CharString index="9">
            24 70 -91 callgsubr
            return
          </CharString>
          <CharString index="10">
            65 vlineto
            -103 callsubr
            return
          </CharString>
          <CharString index="11">
            rmoveto
            -272 hlineto
            105 10 61 53 73 hhcurveto
            80 48 -54 -84 hvcurveto
            47 -206 rmoveto
            -24 -35 -56 -11 -45 hhcurveto
            -102 -69 53 102 -12 hvcurveto
            346 hlineto
            3 16 2 30 13 vvcurveto
            153 -84 81 -123 -129 -96 -96 -165 -154 102 -103 154 45 61 11 20 38 vhcurveto
            endchar
          </CharString>
          <CharString index="12">
            2 callsubr
            -184 274 rlineto
            -5 33 53 -4 84 hhcurveto
            return
          </CharString>
          <CharString index="13">
            -87 callsubr
            -125 return
          </CharString>
          <CharString index="14">
            180 callgsubr
            78 575 return
          </CharString>
          <CharString index="15">
            -82 callgsubr
            43 48 84 hvcurveto
            234 return
          </CharString>
          <CharString index="16">
            vvcurveto
            38 -10 32 -15 23 vhcurveto
            187 return
          </CharString>
          <CharString index="17">
            94 -91 callsubr
            return
          </CharString>
          <CharString index="18">
            hlineto
            -92 callgsubr
            return
          </CharString>
          <CharString index="19">
            -66 callsubr
            vlineto
            endchar
          </CharString>
          <CharString index="20">
            -83 callsubr
            -127 -92 -86 -122 return
          </CharString>
          <CharString index="21">
            rmoveto
            11 -24 -45 11 -58 hhcurveto
            -92 -74 -51 -87 -83 65 -37 61 -24 hvcurveto
            69 -28 46 -21 -52 vvcurveto
            -39 -30 -28 -64 -49 -53 15 25 -42 vhcurveto
            -77 vlineto
            -17 31 57 -14 61 hhcurveto
            105 65 54 87 82 -65 37 -71 29 hvcurveto
            -55 24 -51 19 51 vvcurveto
            38 33 28 54 49 49 -11 -17 28 vhcurveto
            return
          </CharString>
          <CharString index="22">
            41 callgsubr
            68 46 -49 -67 -79 -54 -45 -69 -6 -9 82 callgsubr
            6 9 -1 8 hhcurveto
            109 90 71 120 108 -75 73 -109 50 callsubr
            vlineto
            endchar
          </CharString>
          <CharString index="23">
            -73 callgsubr
            95 callgsubr
            return
          </CharString>
          <CharString index="24">
            11 21 27 6 30 hhcurveto
            23 27 -4 -9 28 70 callgsubr
            return
          </CharString>
          <CharString index="25">
            -25 -6 -17 -21 -28 vvcurveto
            -26 14 -33 109 callgsubr
            -56 rlineto
            68 135 return
          </CharString>
          <CharString index="26">
            215 -279 rlineto
            97 hlineto
            -220 278 12 1 rlineto
            96 4 67 53 97 vvcurveto
            142 309 -269 vlineto
            -68 -50 -42 -57 -61 -42 39 62 62 45 42 57 12 13 -1 -4 13 vhcurveto
            65 vlineto
            3 -14 -18 2 -16 hhcurveto
            -90 -79 -62 -106 -100 78 -65 89 46 42 14 33 32 hvcurveto
            -180 79 -50 callsubr
          </CharString>
          <CharString index="27">
            -42 -31 -21 -43 -44 vvcurveto
            -86 78 -94 168 39 39 4 13 53 vhcurveto
            67 vlineto
            -12 -43 -47 -6 -35 hhcurveto
            -124 -50 51 62 51 47 48 93 68 29 -34 -39 -16 -3 -21 -11 -15 hvcurveto
            77 hlineto
            8 17 3 21 18 vvcurveto
            67 -53 67 -117 -37 -32 -5 -10 -28 vhcurveto
            -22 11 -25 27 38 vvcurveto
            37 25 8 31 vhcurveto
            return
          </CharString>
          <CharString index="28">
            -45 -19 -22 -41 -31 -30 14 0 vhcurveto
            -69 vlineto
            -7 17 26 -6 30 hhcurveto
            return
          </CharString>
          <CharString index="29">
            64 -41 -53 31 -74 hhcurveto
            -28 -30 -5 -1 -3 hvcurveto
            -68 vlineto
            1 4 30 6 24 hhcurveto
            52 37 -19 -37 29 hvcurveto
            92 -118 -62 55 rlineto
            48 -55 -39 23 -58 hhcurveto
            -24 -27 -7 -1 return
          </CharString>
          <CharString index="30">
            65 vlineto
            -77 callgsubr
            return
          </CharString>
          <CharString index="31">
            vvcurveto
            -108 75 -72 109 47 41 17 29 28 vhcurveto
            -85 callsubr
          </CharString>
          <CharString index="32">
            -78 callsubr
            -3 227 callsubr
            3 227 callgsubr
            return
          </CharString>
          <CharString index="33">
            61 callgsubr
            59 16 16 31 vhcurveto
            72 vlineto
            -18 -30 -59 -20 -53 229 callgsubr
            21 30 -2 -3 19 hvcurveto
            endchar
          </CharString>
          <CharString index="34">
            -133 78 264 229 callsubr
            51 88 84 56 49 90 hvcurveto
            return
          </CharString>
          <CharString index="35">
            -10 17 -5 19 21 vvcurveto
            40 21 36 49 51 36 -32 -75 -91 -65 -54 -111 vhcurveto
            return
          </CharString>
          <CharString index="36">
            vvcurveto
            -8 callgsubr
            vhcurveto
            -166 -81 callgsubr
          </CharString>
          <CharString index="37">
            -66 -6 -29 -69 vhcurveto
            -66 -65 hlineto
            -145 44 119 -122 175 hhcurveto
            return
          </CharString>
          <CharString index="38">
            -36 -12 -35 -22 -28 vhcurveto
            -209 205 rlineto
            -83 callsubr
            return
          </CharString>
          <CharString index="39">
            -67 90 -204 hlineto
            -141 65 -51 115 vhcurveto
            -22 callsubr
            return
          </CharString>
          <CharString index="40">
            11 15 1 2 12 hvcurveto
            -98 callgsubr
          </CharString>
          <CharString index="41">
            575 116 return
          </CharString>
          <CharString index="42">
            -67 618 -137 hlineto
            -59 -17 -34 -78 -1 vhcurveto
            61 -21 -57 47 -95 hhcurveto
            -35 hlineto
            -150 -78 -95 -128 -131 79 -98 137 166 callsubr
            hvcurveto
            0 callsubr
            99 58 57 92 hvcurveto
            31 hlineto
            68 35 -37 -56 4 hvcurveto
            -9 vlineto
            return
          </CharString>
          <CharString index="43">
            hhcurveto
            -85 -49 40 53 60 50 36 81 hvcurveto
            59 67 -50 hlineto
            -73 -63 24 64 57 49 43 91 hvcurveto
            1 67 return
          </CharString>
          <CharString index="44">
            rmoveto
            -29 22 -23 30 29 22 23 29 29 -22 22 -29 -30 -22 -22 -29 vhcurveto
            202 hmoveto
            -29 22 -23 29 30 22 23 29 29 -22 22 -30 -29 -22 -22 -29 vhcurveto
            return
          </CharString>
          <CharString index="45">
            rmoveto
            -15 -26 -33 -10 -40 -46 callsubr
            return
          </CharString>
          <CharString index="46">
            66 callsubr
            -57 hlineto
            115 -10 -81 53 -95 26 callgsubr
            117 320 67 -627 -67 228 -106 vlineto
            -70 callsubr
            144 96 78 99 34 hvcurveto
            191 -219 51 callgsubr
          </CharString>
          <CharString index="47">
            104 callsubr
            49 68 79 54 44 69 6 9 74 callgsubr
            -9 1 -8 hhcurveto
            -109 5 callsubr
            -102 69 -69 96 -7 hvcurveto
            28 callgsubr
            return
          </CharString>
          <CharString index="48">
            -99 callgsubr
            62 return
          </CharString>
          <CharString index="49">
            12 20 32 11 33 hhcurveto
            45 28 -25 -36 -56 -54 -32 -69 -98 -69 64 93 92 73 67 123 32 33 -4 -6 37 hvcurveto
            return
          </CharString>
          <CharString index="50">
            58 83 37 10 32 19 24 hvcurveto
            return
          </CharString>
          <CharString index="51">
            -64 callsubr
            -310 -67 152 hlineto
            -23 callgsubr
            return
          </CharString>
          <CharString index="52">
            rlineto
            -75 callsubr
            return
          </CharString>
          <CharString index="53">
            vlineto
            6 -26 -27 4 -30 hhcurveto
            return
          </CharString>
          <CharString index="54">
            -67 hlineto
            106 68 -37 -91 -71 -45 -48 -70 -41 -28 15 35 -40 hvcurveto
            -238 233 -10 callgsubr
            55 47 15 23 36 hvcurveto
            -35 37 47 -21 56 hhcurveto
            115 76 73 107 65 -26 44 -43 24 hvcurveto
            return
          </CharString>
          <CharString index="55">
            -94 callgsubr
            endchar
          </CharString>
          <CharString index="56">
            hhcurveto
            -55 callgsubr
            return
          </CharString>
          <CharString index="57">
            575 3 callgsubr
          </CharString>
          <CharString index="58">
            rmoveto
            26 -30 -40 15 -48 hhcurveto
            -88 -69 -64 -83 -80 62 -52 74 19 18 168 callsubr
            61 vlineto
            -7 -16 -14 -3 -15 hhcurveto
            -41 -29 28 43 44 32 39 57 74 41 -50 -75 -111 -90 -76 -127 -130 -93 90 104 -27 hvcurveto
            12 1 rlineto
            90 3 26 50 95 vvcurveto
            116 335 63 callsubr
            return
          </CharString>
          <CharString index="59">
            -67 99 callsubr
            -18 hlineto
            28 -24 -35 23 -68 hhcurveto
            -128 hlineto
            -105 callgsubr
            95 hlineto
            44 23 -19 -28 19 hvcurveto
            -86 callgsubr
            return
          </CharString>
          <CharString index="60">
            hhcurveto
            -70 -52 39 63 188 callgsubr
            hvcurveto
            67 -342 -67 141 vlineto
            -49 -25 -28 -44 -57 vvcurveto
            -105 84 -57 110 return
          </CharString>
          <CharString index="61">
            hhcurveto
            -83 -62 -57 callsubr
            return
          </CharString>
          <CharString index="62">
            rmoveto
            -78 -507 78 277 hlineto
            109 69 57 71 59 44 -38 -77 vhcurveto
            -328 79 349 vlineto
            100 -63 65 -99 -73 -57 -32 -63 -30 vhcurveto
            endchar
          </CharString>
          <CharString index="63">
            16 -49 callgsubr
            return
          </CharString>
          <CharString index="64">
            -67 107 -317 hlineto
            -162 106 -62 140 52 57 10 16 38 vhcurveto
            72 vlineto
            -20 -38 -56 -12 -47 hhcurveto
            -102 -72 42 117 hvcurveto
            316 248 -142 vlineto
            -58 -27 -35 -65 -14 -15 2 4 -10 vhcurveto
            -65 vlineto
            -4 13 17 -2 15 hhcurveto
            107 57 63 91 hvcurveto
            146 88 vlineto
            endchar
          </CharString>
          <CharString index="65">
            rmoveto
            -1149 -67 955 -142 -349 hlineto
            24 -23 -33 16 -44 hhcurveto
            -63 -49 -37 -61 -11 -106 callgsubr
            72 vlineto
            86 32 41 55 33 23 -19 -23 9 vhcurveto
            -1 vlineto
            107 68 -38 -90 -71 -53 -38 197 callsubr
            45 hhcurveto
            121 78 69 104 64 -26 42 -41 24 hvcurveto
            197 -366 -41 callsubr
          </CharString>
          <CharString index="66">
            78 -66 callsubr
            hlineto
            endchar
          </CharString>
          <CharString index="67">
            11 15 1 2 12 return
          </CharString>
          <CharString index="68">
            82 callsubr
            -77 -55 41 72 -19 vhcurveto
            72 23 71 61 93 vvcurveto
            38 -10 32 -14 23 vhcurveto
            186 hlineto
            -578 -242 rmoveto
            -72 callgsubr
            281 vlineto
            16 -19 14 -31 -39 vvcurveto
            -108 -153 -45 -144 vhcurveto
            731 309 rmoveto
            return
          </CharString>
          <CharString index="69">
            -36 callsubr
            25 return
          </CharString>
          <CharString index="70">
            399 -43 callgsubr
            return
          </CharString>
          <CharString index="71">
            14 -45 hhcurveto
            -72 -51 -34 -64 -15 -106 callgsubr
            72 vlineto
            89 43 38 61 return
          </CharString>
          <CharString index="72">
            -39 -20 -23 -36 -45 vvcurveto
            -75 51 -38 71 -7 vhcurveto
            -72 -9 -55 -44 -77 vvcurveto
            -90 return
          </CharString>
          <CharString index="73">
            -65 callgsubr
            95 return
          </CharString>
          <CharString index="74">
            rmoveto
            -77 -28 -49 -38 -66 hhcurveto
            -10 -13 1 3 -11 hvcurveto
            -71 vlineto
            -4 13 15 -1 14 hhcurveto
            83 77 40 147 55 hvcurveto
            183 494 rlineto
            -85 hlineto
            -59 -167 rlineto
            -72 -204 -8 -26 0 vvcurveto
            0 -9 26 -80 204 vhcurveto
            -66 167 rlineto
            -89 hlineto
            endchar
          </CharString>
          <CharString index="75">
            rmoveto
            -76 -32 -33 -62 -65 -24 44 65 vhcurveto
            227 183 vlineto
            return
          </CharString>
          <CharString index="76">
            134 callsubr
            63 49 46 60 66 46 -48 -67 -82 -54 -43 7 callsubr
            -66 vlineto
            -2 6 9 -1 173 callgsubr
            69 123 106 -73 74 161 callgsubr
            123 callgsubr
            137 vlineto
            endchar
          </CharString>
          <CharString index="77">
            -55 callsubr
            58 46 -26 -47 62 hvcurveto
            return
          </CharString>
          <CharString index="78">
            hhcurveto
            -25 -23 -5 -1 -6 hvcurveto
            -68 vlineto
            1 5 22 5 23 hhcurveto
            41 25 -14 -38 25 hvcurveto
            return
          </CharString>
          <CharString index="79">
            85 -6 33 -34 -46 vvcurveto
            -53 -37 -32 -56 -63 -60 195 callsubr
            52 -18 56 hhcurveto
            100 67 65 87 34 -10 28 -19 23 hvcurveto
            return
          </CharString>
          <CharString index="80">
            575 41 callsubr
          </CharString>
          <CharString index="81">
            rmoveto
            -7 -16 -14 -3 -15 hhcurveto
            -41 -29 28 43 44 32 39 57 74 35 -50 -75 -111 -85 -76 -126 -130 -93 90 104 -27 hvcurveto
            12 1 rlineto
            90 3 26 50 95 vvcurveto
            116 316 67 -614 -67 220 -104 vlineto
            189 callgsubr
            171 -5 -202 -157 rcurveline
            118 hlineto
            268 212 rlineto
            52 42 57 64 97 vvcurveto
            107 -71 78 -118 -88 -69 -64 -83 -80 62 -52 74 19 18 4 7 17 vhcurveto
            endchar
          </CharString>
          <CharString index="82">
            vlineto
            -70 callgsubr
            return
          </CharString>
          <CharString index="83">
            rmoveto
            93 hlineto
            102 49 -47 -88 -74 -46 -60 -96 hvcurveto
            -102 hlineto
            367 -335 rmoveto
            -177 279 185 callsubr
            rlinecurve
            127 -79 80 -159 vhcurveto
            -169 -674 81 266 97 hlineto
            8 hlineto
            165 -266 rlineto
            endchar
          </CharString>
          <CharString index="84">
            382 rmoveto
            -60 callgsubr
            201 234 vlineto
            return
          </CharString>
          <CharString index="85">
            61 1 44 23 28 35 108 callsubr
            return
          </CharString>
          <CharString index="86">
            346 rmoveto
            -210 229 210 hlineto
            return
          </CharString>
          <CharString index="87">
            rmoveto
            -78 hlineto
            -1 -507 rlineto
            79 277 hlineto
            81 49 81 74 15 13 -2 -5 15 vhcurveto
            78 vlineto
            2 -10 -9 0 -9 hhcurveto
            -71 -43 -38 -56 -24 hvcurveto
            endchar
          </CharString>
          <CharString index="88">
            rmoveto
            147 67 -601 -67 375 -109 hlineto
            2 -15 -16 1 -14 hhcurveto
            -156 -1 -98 -99 -125 vvcurveto
            -108 68 -78 98 -27 vhcurveto
            -114 -149 2 callsubr
            93 128 93 -128 2 callsubr
            -112 147 rlineto
            82 20 49 57 69 vvcurveto
            -2 callgsubr
          </CharString>
          <CharString index="89">
            79 -88 callsubr
          </CharString>
          <CharString index="90">
            -67 vlineto
            107 67 -35 -83 -70 -52 -37 -77 -44 -36 12 16 -31 hvcurveto
            -72 vlineto
            -13 32 41 -9 46 hhcurveto
            125 74 74 95 50 -24 46 -44 26 hvcurveto
            return
          </CharString>
          <CharString index="91">
            105 callgsubr
            -566 -67 344 -84 -99 vlineto
            -89 -71 -43 -89 -90 72 -46 81 -2 hvcurveto
            3 71 6 2 hhcurveto
            54 -1 31 -27 -46 vvcurveto
            -57 -48 -31 -75 -66 -74 24 31 -50 vhcurveto
            -77 vlineto
            31 -17 39 -13 43 -7 -110 -146 rcurveline
            95 hlineto
            93 129 94 -129 rlineto
            94 hlineto
            -113 148 80 21 46 55 1 70 rlinecurve
            77 -46 60 -101 2 vhcurveto
            -76 -4 rlineto
            -54 -38 24 48 47 42 16 42 hvcurveto
            endchar
          </CharString>
          <CharString index="92">
            rmoveto
            54 31 -44 -44 -49 -40 -43 -41 -25 hvcurveto
            -66 38 -25 40 42 vvcurveto
            46 34 39 53 vhcurveto
            257 59 rmoveto
            -354 vlineto
            -77 18 -61 20 -49 20 rrcurveto
            50 36 43 53 62 vvcurveto
            82 -60 69 -107 -101 -60 -75 -74 return
          </CharString>
          <CharString index="93">
            vvcurveto
            -62 42 -48 80 29 28 6 13 22 vhcurveto
            61 vlineto
            -12 -16 -28 -10 -24 hhcurveto
            -39 -26 20 39 51 52 44 return
          </CharString>
          <CharString index="94">
            32 callsubr
            vlineto
            endchar
          </CharString>
          <CharString index="95">
            rmoveto
            -127 -156 rlineto
            80 hlineto
            85 105 85 -105 rlineto
            80 hlineto
            -127 156 rlineto
            return
          </CharString>
          <CharString index="96">
            -67 98 -204 hlineto
            223 callgsubr
            return
          </CharString>
          <CharString index="97">
            187 callsubr
            -400 -67 135 -231 hlineto
            -82 callsubr
            186 hlineto
            3 -24 11 -27 12 -27 24 -56 rcurveline
            70 137 return
          </CharString>
          <CharString index="98">
            vlineto
            -105 callgsubr
            return
          </CharString>
          <CharString index="99">
            -180 31 279 rmoveto
            211 -279 2 callsubr
            -212 279 rlineto
            11 hlineto
            96 3 66 55 96 vvcurveto
            142 100 67 -420 -67 242 -135 vlineto
            -61 -34 -35 -88 vhcurveto
            -67 hlineto
            return
          </CharString>
          <CharString index="100">
            78 575 return
          </CharString>
          <CharString index="101">
            7 callsubr
            -67 vlineto
            return
          </CharString>
          <CharString index="102">
            65 95 91 callgsubr
            hvcurveto
            return
          </CharString>
          <CharString index="103">
            16 214 callgsubr
            return
          </CharString>
          <CharString index="104">
            -27 callgsubr
            -96 61 -70 94 -24 vhcurveto
            -112 -147 2 callsubr
            94 128 93 -128 2 callsubr
            -115 149 rlineto
            92 25 57 70 92 vvcurveto
            94 callsubr
          </CharString>
          <CharString index="105">
            59 66 -50 hlineto
            -73 -64 19 64 57 50 43 91 hvcurveto
            67 -317 -67 159 vlineto
            -39 -20 -23 -36 -45 vvcurveto
            -71 51 -36 72 -8 vhcurveto
            -72 -8 -55 -46 -72 vvcurveto
            -83 66 -59 113 -8 vhcurveto
            -74 -43 rlineto
            -41 -24 -16 -24 -30 vvcurveto
            -42 37 -43 38 -22 vhcurveto
            52 32 rlineto
            -22 18 -20 24 26 vvcurveto
            12 6 13 14 9 vhcurveto
            193 132 rlineto
            0 vlineto
            return
          </CharString>
          <CharString index="106">
            107 -103 callgsubr
            201 222 callsubr
            return
          </CharString>
          <CharString index="107">
            67 5 callgsubr
            65 callgsubr
            -46 65 95 return
          </CharString>
          <CharString index="108">
            43 callgsubr
            93 return
          </CharString>
          <CharString index="109">
            rlineto
            95 hlineto
            return
          </CharString>
          <CharString index="110">
            180 -282 rlineto
            93 hlineto
            -180 281 rlineto
            10 hlineto
            44 2 35 13 23 25 rrcurveto
            34 48 51 23 69 hhcurveto
            64 52 -29 -34 37 hvcurveto
            -176 -58 rlineto
            -44 -14 -23 -26 -38 vvcurveto
            -38 29 -45 33 -28 vhcurveto
            58 20 rlineto
            -17 21 -16 28 24 vvcurveto
            20 10 14 23 9 vhcurveto
            149 53 rlineto
            -257 -81 callgsubr
          </CharString>
          <CharString index="111">
            hvcurveto
            54 callsubr
            return
          </CharString>
          <CharString index="112">
            -90 -72 -120 return
          </CharString>
          <CharString index="113">
            rmoveto
            -94 hlineto
            -51 -99 rlineto
            -118 -226 -9 -25 0 vvcurveto
            0 -8 25 -116 226 vhcurveto
            -51 99 rlineto
            -94 hlineto
            229 -424 rlineto
            -250 81 251 vlineto
            endchar
          </CharString>
          <CharString index="114">
            -69 -6 -8 1 1 -6 vhcurveto
            return
          </CharString>
          <CharString index="115">
            -1 rmoveto
            75 hlineto
            359 666 rlineto
            -77 hlineto
            -81 -514 rmoveto
            -87 70 -71 88 87 71 71 87 87 -71 72 -87 -88 -70 -72 -87 vhcurveto
            -433 364 rmoveto
            -88 71 -71 87 87 72 71 88 86 -72 72 -87 -87 -71 -72 -86 vhcurveto
            69 hmoveto
            49 40 40 49 50 40 -40 -49 -50 -40 -40 -50 -49 -40 40 50 vhcurveto
            return
          </CharString>
          <CharString index="116">
            rmoveto
            143 callgsubr
            30 23 24 30 hvcurveto
            -161 vmoveto
            59 47 48 58 59 -47 48 -59 -59 -47 -48 -59 -58 47 -48 59 hvcurveto
            return
          </CharString>
          <CharString index="117">
            -25 callsubr
            -158 21 100 -84 120 -93 callsubr
            115 vlineto
            endchar
          </CharString>
          <CharString index="118">
            206 callgsubr
            74 callsubr
            -117 151 callsubr
            return
          </CharString>
          <CharString index="119">
            -69 -45 46 72 72 43 53 72 61 46 -35 -29 25 hvcurveto
            -78 -30 -8 -101 -95 hhcurveto
            return
          </CharString>
          <CharString index="120">
            -71 callgsubr
            endchar
          </CharString>
          <CharString index="121">
            -59 -57 callsubr
            return
          </CharString>
          <CharString index="122">
            174 228 71 rmoveto
            233 175 68 -175 230 117 vlineto
            157 100 -117 -143 -142 -76 -129 -176 hvcurveto
            -204 603 rmoveto
            -302 -85 -68 85 -304 204 vlineto
            222 114 158 184 197 -141 135 -199 hvcurveto
            endchar
          </CharString>
          <CharString index="123">
            136 callsubr
            10 1 1 8 return
          </CharString>
          <CharString index="124">
            144 48 340 -89 callgsubr
            return
          </CharString>
          <CharString index="125">
            rmoveto
            -445 -69 351 hlineto
            -356 -538 rlineto
            -67 465 69 -371 vlineto
            356 539 rlineto
            return
          </CharString>
          <CharString index="126">
            167 callsubr
            -280 156 callgsubr
            return
          </CharString>
          <CharString index="127">
            77 -28 40 -91 vhcurveto
            -334 -67 322 hlineto
            43 10 -23 -43 hvcurveto
            -114 -238 -9 callsubr
            185 hlineto
            -10 -10 -6 -14 -16 vvcurveto
            -26 14 -32 13 159 callsubr
            return
          </CharString>
          <CharString index="128">
            -269 hlineto
            -69 callsubr
            return
          </CharString>
          <CharString index="129">
            rmoveto
            -104 162 -30 callsubr
            return
          </CharString>
          <CharString index="130">
            -98 -69 -48 -83 -95 88 -28 103 -5 hvcurveto
            84 -5 32 -27 -45 vvcurveto
            -51 -39 -35 -54 -65 -57 42 55 -21 vhcurveto
            -71 -228 77 115 hlineto
            -31 35 51 -18 54 hhcurveto
            98 70 67 85 92 -63 43 -118 7 hvcurveto
            -89 6 -36 17 41 vvcurveto
            40 35 22 55 vhcurveto
            endchar
          </CharString>
          <CharString index="131">
            hhcurveto
            25 callsubr
          </CharString>
          <CharString index="132">
            47 41 17 29 28 hvcurveto
            -85 callsubr
          </CharString>
          <CharString index="133">
            -48 callgsubr
            -82 -86 -46 -170 -36 vhcurveto
            -163 16 113 -71 120 hhcurveto
            97 133 callgsubr
            return
          </CharString>
          <CharString index="134">
            rmoveto
            -67 180 67 callgsubr
            44 48 84 hvcurveto
            234 174 -282 vlineto
            -364 -313 214 callsubr
            254 214 rlineto
            221 callsubr
          </CharString>
          <CharString index="135">
            rmoveto
            -76 -71 -33 -79 -70 -75 32 77 73 65 38 85 82 63 -35 -76 vhcurveto
            -282 364 rmoveto
            245 -152 rlineto
            -24 -19 -29 -10 -40 hhcurveto
            -47 hlineto
            -72 -38 34 88 hvcurveto
            268 2 rmoveto
            -19 -2 -16 -3 -14 vhcurveto
            -259 164 rlineto
            264 hlineto
            return
          </CharString>
          <CharString index="136">
            348 rmoveto
            -76 -33 -33 -61 -65 -24 44 65 vhcurveto
            227 183 vlineto
            return
          </CharString>
          <CharString index="137">
            -75 callsubr
            61 47 -29 -51 67 hvcurveto
            return
          </CharString>
          <CharString index="138">
            -98 -72 -41 -83 -78 61 -34 112 73 54 -10 -61 -51 -38 -31 139 callgsubr
            53 92 98 -74 36 -105 1 hvcurveto
            -91 1 -29 11 38 vvcurveto
            41 37 14 54 vhcurveto
            return
          </CharString>
          <CharString index="139">
            68 135 45 hlineto
            54 51 4 7 47 hvcurveto
            -106 38 83 -58 105 -93 callsubr
            116 return
          </CharString>
          <CharString index="140">
            rmoveto
            -94 hlineto
            -99 148 callgsubr
            return
          </CharString>
          <CharString index="141">
            119 callsubr
            -63 -55 return
          </CharString>
          <CharString index="142">
            6 279 -9 -80 callgsubr
            return
          </CharString>
          <CharString index="143">
            rmoveto
            38 callgsubr
          </CharString>
          <CharString index="144">
            -34 -73 -74 -62 -42 -71 hvcurveto
            -42 -69 42 hlineto
            98 55 -39 -71 -68 -48 -51 -87 -58 -54 13 26 -49 hvcurveto
            -79 vlineto
            -21 44 67 -12 52 hhcurveto
            141 73 84 102 81 -50 53 -74 17 hvcurveto
            71 29 34 60 69 vvcurveto
            91 -68 81 return
          </CharString>
          <CharString index="145">
            119 callsubr
            -64 -55 -91 -80 -59 54 72 -17 vhcurveto
            79 -98 callsubr
            hlineto
            return
          </CharString>
          <CharString index="146">
            hlineto
            -39 -20 -23 -36 -45 vvcurveto
            -75 51 -38 71 -7 vhcurveto
            return
          </CharString>
          <CharString index="147">
            70 -49 53 -92 -34 -34 -8 -13 -26 vhcurveto
            return
          </CharString>
          <CharString index="148">
            116 67 vlineto
            endchar
          </CharString>
          <CharString index="149">
            -67 90 -200 hlineto
            -141 66 -58 114 return
          </CharString>
          <CharString index="150">
            89 -17 -70 52 -110 234 callgsubr
            -7 -18 hvcurveto
            -67 vlineto
            9 19 29 5 31 hhcurveto
            77 45 -49 -71 -76 -47 -53 -90 -60 -50 19 22 -36 hvcurveto
            -74 vlineto
            -16 30 57 -19 65 hhcurveto
            119 81 74 101 10 hvcurveto
            return
          </CharString>
          <CharString index="151">
            -98 -69 -46 -83 -92 80 -23 101 -6 hvcurveto
            86 -6 33 -34 -46 vvcurveto
            -53 -37 -32 -56 -63 -61 195 callsubr
            53 -18 56 hhcurveto
            100 67 65 87 34 -11 29 -19 23 hvcurveto
            return
          </CharString>
          <CharString index="152">
            187 -282 2 callsubr
            -185 274 rlineto
            -4 32 50 -5 73 hhcurveto
            22 hlineto
            41 49 4 12 49 hvcurveto
            -109 37 81 -47 100 -44 callgsubr
            vlineto
            endchar
          </CharString>
          <CharString index="153">
            242 rmoveto
            360 -137 hlineto
            -58 -16 -34 -73 -2 vhcurveto
            77 -16 -54 57 -92 hhcurveto
            -47 -37 -17 -27 -25 hvcurveto
            return
          </CharString>
          <CharString index="154">
            64 34 -27 -44 -40 -30 -26 -49 -38 -37 8 20 -36 hvcurveto
            -60 vlineto
            -16 31 48 -9 35 hhcurveto
            92 49 51 69 58 -43 41 -48 4 hvcurveto
            48 11 31 35 53 vvcurveto
            62 -45 54 -92 -35 -37 -13 -13 -22 vhcurveto
            return
          </CharString>
          <CharString index="155">
            -95 callsubr
            168 -265 -41 callsubr
          </CharString>
          <CharString index="156">
            -231 vlineto
            -45 -19 -22 -41 -31 -30 14 0 vhcurveto
            return
          </CharString>
          <CharString index="157">
            4 callgsubr
            143 return
          </CharString>
          <CharString index="158">
            266 64 rmoveto
            -80 -61 74 110 131 66 64 80 57 87 -43 -143 -147 -77 -46 -72 hvcurveto
            return
          </CharString>
          <CharString index="159">
            25 -56 rcurveline
            77 callgsubr
          </CharString>
          <CharString index="160">
            rmoveto
            61 hlineto
            134 156 rlineto
            -94 hlineto
            -257 -156 rmoveto
            61 hlineto
            127 156 rlineto
            -92 hlineto
            return
          </CharString>
          <CharString index="161">
            -194 -7 callsubr
            return
          </CharString>
          <CharString index="162">
            -141 67 -58 113 vhcurveto
            -41 callgsubr
          </CharString>
          <CharString index="163">
            78 -27 callsubr
          </CharString>
          <CharString index="164">
            173 callsubr
            rcurveline
            -97 callgsubr
            82 61 32 46 48 hvcurveto
            return
          </CharString>
          <CharString index="165">
            68 callsubr
            60 92 97 -74 39 -105 1 hvcurveto
            -91 1 -29 21 38 vvcurveto
            40 37 18 54 vhcurveto
            322 -424 -7 callsubr
            132 return
          </CharString>
          <CharString index="166">
            -114 -67 116 -575 156 callgsubr
            67 return
          </CharString>
          <CharString index="167">
            -111 80 -90 127 57 52 19 33 26 return
          </CharString>
          <CharString index="168">
            146 callgsubr
            210 return
          </CharString>
          <CharString index="169">
            vvcurveto
            155 callgsubr
            vhcurveto
            -163 -81 callgsubr
          </CharString>
          <CharString index="170">
            vlineto
            75 callgsubr
            return
          </CharString>
          <CharString index="171">
            -66 callsubr
            67 hlineto
            endchar
          </CharString>
          <CharString index="172">
            59 67 -51 hlineto
            -73 -63 17 64 57 50 43 90 hvcurveto
            1 67 -315 -67 157 hlineto
            -39 -20 -23 -36 -45 vvcurveto
            -75 51 -31 72 -7 vhcurveto
            -70 -7 -57 -48 -73 vvcurveto
            return
          </CharString>
          <CharString index="173">
            rmoveto
            -72 callsubr
            return
          </CharString>
          <CharString index="174">
            330 rmoveto
            -91 -87 -80 -114 -60 -61 25 62 60 47 33 74 vhcurveto
            59 68 -48 hlineto
            return
          </CharString>
          <CharString index="175">
            -71 -226 77 116 hlineto
            -32 35 51 -19 58 hhcurveto
            93 78 return
          </CharString>
          <CharString index="176">
            -248 hlineto
            -77 -58 -86 -116 -69 -49 35 67 58 40 63 return
          </CharString>
          <CharString index="177">
            34 callsubr
            -92 return
          </CharString>
          <CharString index="178">
            -67 90 -204 vlineto
            113 callgsubr
            -37 23 vhcurveto
            -133 3 return
          </CharString>
          <CharString index="179">
            61 callgsubr
            60 16 16 30 vhcurveto
            72 vlineto
            -18 -30 -59 -20 -52 hhcurveto
            -105 -73 52 97 104 84 53 114 22 29 -2 -3 20 hvcurveto
            endchar
          </CharString>
          <CharString index="180">
            72 56 41 22 hvcurveto
            -205 -7 callsubr
            return
          </CharString>
          <CharString index="181">
            160 callgsubr
            -22 hhcurveto
            return
          </CharString>
          <CharString index="182">
            373 rmoveto
            -14 -1 -12 -3 -12 vhcurveto
            -244 240 rlineto
            248 hlineto
            -255 -64 rmoveto
            230 -223 rlineto
            -36 -24 -41 -18 -41 hhcurveto
            -73 -51 43 97 hvcurveto
            return
          </CharString>
          <CharString index="183">
            228 rmoveto
            219 379 rlineto
            -379 vlineto
            175 hmoveto
            -97 426 -128 hlineto
            -249 -426 rlineto
            -69 299 -159 78 159 97 vlineto
            endchar
          </CharString>
          <CharString index="184">
            hhcurveto
            -37 -34 -21 -34 -6 hvcurveto
            33 -7 -30 21 -36 hhcurveto
            -61 -39 -49 -67 -81 53 -62 84 15 12 2 3 11 hvcurveto
            44 vlineto
            -5 -14 -11 -1 -10 hhcurveto
            -57 return
          </CharString>
          <CharString index="185">
            1 -8 -8 0 -8 hhcurveto
            return
          </CharString>
          <CharString index="186">
            -262 hlineto
            92 callgsubr
            return
          </CharString>
          <CharString index="187">
            -144 79 308 vlineto
            63 43 36 53 vhcurveto
            141 -87 -282 269 hhcurveto
            82 57 31 38 27 31 callgsubr
            vlineto
            endchar
          </CharString>
          <CharString index="188">
            308 vlineto
            62 51 45 57 return
          </CharString>
          <CharString index="189">
            34 callsubr
            -91 return
          </CharString>
          <CharString index="190">
            -67 102 -122 hlineto
            -78 30 -50 49 -23 vhcurveto
            -54 -26 -37 -50 -67 vvcurveto
            -111 105 -64 118 127 102 67 107 67 -38 50 -55 27 vhcurveto
            return
          </CharString>
          <CharString index="191">
            54 32 43 30 return
          </CharString>
          <CharString index="192">
            40 rmoveto
            -94 -72 -43 -64 -60 -39 34 53 49 34 40 60 7 vhcurveto
            6 hlineto
            57 52 20 33 26 hvcurveto
            64 269 rmoveto
            167 121 67 return
          </CharString>
          <CharString index="193">
            -8 13 rcurveline
            -10 17 -7 20 20 vvcurveto
            47 29 30 45 25 22 -7 -7 16 vhcurveto
            70 vlineto
            9 -16 -23 5 -26 hhcurveto
            -65 -47 -44 -57 -10 hvcurveto
            return
          </CharString>
          <CharString index="194">
            -44 callsubr
            -45 -34 -38 -69 -22 vhcurveto
            41 -27 -50 30 -75 hhcurveto
            return
          </CharString>
          <CharString index="195">
            rmoveto
            -30 22 -22 30 30 24 22 30 29 -24 24 -30 -30 -22 -24 -29 vhcurveto
            return
          </CharString>
          <CharString index="196">
            -309 83 hmoveto
            81 674 -81 hlineto
            return
          </CharString>
          <CharString index="197">
            -31 23 -22 31 31 24 22 31 return
          </CharString>
          <CharString index="198">
            -74 78 72 vlineto
            89 return
          </CharString>
          <CharString index="199">
            78 274 hlineto
            -53 34 53 -32 68 hhcurveto
            131 87 112 154 140 -77 117 -139 -75 -50 -34 -51 -32 hvcurveto
            endchar
          </CharString>
          <CharString index="200">
            hhcurveto
            73 57 26 43 32 hvcurveto
            221 callsubr
          </CharString>
          <CharString index="201">
            106 -72 63 -95 18 vhcurveto
            129 vlineto
            endchar
          </CharString>
          <CharString index="202">
            -39 -69 -50 73 -98 hhcurveto
            -57 -53 -34 -59 -43 hvcurveto
            51 -45 rlineto
            49 34 37 19 43 60 65 -73 86 hhcurveto
            64 42 35 53 34 hvcurveto
            return
          </CharString>
          <CharString index="203">
            vvcurveto
            16 callsubr
            vhcurveto
            -65 callgsubr
            return
          </CharString>
          <CharString index="204">
            vvcurveto
            -61 42 -49 81 29 28 6 14 22 vhcurveto
            60 vlineto
            -12 -17 -27 -10 -25 hhcurveto
            -39 -25 20 39 52 51 43 61 30 hvcurveto
            endchar
          </CharString>
          <CharString index="205">
            vlineto
            187 -282 48 callsubr
          </CharString>
          <CharString index="206">
            508 -137 hlineto
            225 callgsubr
            return
          </CharString>
          <CharString index="207">
            202 callgsubr
            137 return
          </CharString>
          <CharString index="208">
            167 120 67 return
          </CharString>
          <CharString index="209">
            -9 callgsubr
            -40 36 56 -33 80 hhcurveto
            return
          </CharString>
          <CharString index="210">
            94 1 60 42 29 46 rrcurveto
            -188 -81 callgsubr
          </CharString>
          <CharString index="211">
            -63 -51 -45 -57 -68 -46 return
          </CharString>
          <CharString index="212">
            1 1 -5 vhcurveto
            -67 vlineto
            return
          </CharString>
          <CharString index="213">
            270 rmoveto
            -63 -50 -45 -57 -68 -47 49 68 79 55 44 69 6 8 101 callgsubr
            -5 -9 1 -9 hhcurveto
            return
          </CharString>
          <CharString index="214">
            78 64 callsubr
          </CharString>
          <CharString index="215">
            rrcurveto
            -238 79 return
          </CharString>
          <CharString index="216">
            69 rmoveto
            168 130 115 138 128 vvcurveto
            132 -98 64 -110 -56 -63 -21 -34 -44 vhcurveto
            -79 vlineto
            36 return
          </CharString>
          <CharString index="217">
            40 rmoveto
            -34 -9 -28 -15 -21 vhcurveto
            -144 126 6 1 6 1 7 1 rlinecurve
            11 hlineto
            57 55 20 33 26 hvcurveto
            -55 return
          </CharString>
          <CharString index="218">
            -34 -66 -62 38 -35 29 -19 hvcurveto
            return
          </CharString>
          <CharString index="219">
            78 -50 callsubr
          </CharString>
          <CharString index="220">
            -262 hlineto
            -101 callsubr
            return
          </CharString>
          <CharString index="221">
            hhcurveto
            -62 -56 -16 -19 -32 hvcurveto
            -73 vlineto
            19 35 55 21 59 hhcurveto
            return
          </CharString>
          <CharString index="222">
            99 callgsubr
            32 return
          </CharString>
          <CharString index="223">
            -118 hlineto
            78 callsubr
            return
          </CharString>
          <CharString index="224">
            vvcurveto
            37 26 8 30 vhcurveto
            return
          </CharString>
          <CharString index="225">
            -25 -21 8 -23 hhcurveto
            -59 -31 -75 -64 -4 hvcurveto
            50 -25 rlineto
            41 12 19 34 31 hhcurveto
            12 13 -5 -10 15 hvcurveto
            return
          </CharString>
          <CharString index="226">
            334 rmoveto
            -87 return
          </CharString>
          <CharString index="227">
            vvcurveto
            47 27 30 46 24 24 -7 -8 16 vhcurveto
            72 vlineto
            7 -15 -24 5 -26 hhcurveto
            -69 -49 -45 -58 -8 hvcurveto
            return
          </CharString>
          <CharString index="228">
            23 49 hhcurveto
            80 53 -44 -85 -127 -160 -150 -150 -113 hvcurveto
            -67 413 69 vlineto
            endchar
          </CharString>
          <CharString index="229">
            76 84 callsubr
            return
          </CharString>
          <CharString index="230">
            -26 440 112 callgsubr
            -575 215 callgsubr
            return
          </CharString>
          <CharString index="231">
            vlineto
            -60 -27 -30 -45 -41 16 -39 13 -24 hvcurveto
            65 hlineto
            -7 24 -6 28 22 vvcurveto
            27 8 12 25 vhcurveto
            return
          </CharString>
          <CharString index="232">
            130 callgsubr
            65 return
          </CharString>
          <CharString index="233">
            vlineto
            123 hmoveto
            -62 279 -94 hlineto
            -164 -279 rlineto
            -51 197 -99 61 99 62 vlineto
            endchar
          </CharString>
          <CharString index="234">
            vlineto
            69 38 32 55 54 42 -33 -68 vhcurveto
            return
          </CharString>
          <CharString index="235">
            575 115 67 vlineto
            endchar
          </CharString>
          <CharString index="236">
            132 callsubr
            -106 -66 -87 -119 -141 70 -118 return
          </CharString>
          <CharString index="237">
            21 461 327 rmoveto
            -78 -85 -37 -87 -93 -81 37 79 81 91 28 83 96 76 -35 -75 vhcurveto
            return
          </CharString>
          <CharString index="238">
            hvcurveto
            87 -132 rlineto
            86 hlineto
            -107 162 rlineto
            62 -40 -45 28 -68 hhcurveto
            -25 -23 -5 -1 -6 hvcurveto
            return
          </CharString>
          <CharString index="239">
            hhcurveto
            -75 -50 -34 -64 50 callgsubr
            return
          </CharString>
          <CharString index="240">
            174 hlineto
            44 9 -23 -43 hvcurveto
            -162 -227 vlineto
            return
          </CharString>
          <CharString index="241">
            100 callgsubr
            311 vlineto
            return
          </CharString>
          <CharString index="242">
            -273 vlineto
            -134 -94 -60 -93 return
          </CharString>
          <CharString index="243">
            -131 80 -98 136 12 return
          </CharString>
          <CharString index="244">
            -36 -83 hvcurveto
            -74 78 return
          </CharString>
          <CharString index="245">
            rmoveto
            -18 -27 -34 -10 -40 hhcurveto
            -81 190 callgsubr
            return
          </CharString>
          <CharString index="246">
            -130 56 -58 96 -9 vhcurveto
            188 callsubr
            rlineto
            100 callgsubr
            return
          </CharString>
          <CharString index="247">
            215 callsubr
            -118 149 rlineto
            74 24 53 65 90 vvcurveto
            return
          </CharString>
          <CharString index="248">
            rmoveto
            200 241 rlineto
            -94 hlineto
            -199 -241 204 -266 2 callsubr
            endchar
          </CharString>
          <CharString index="249">
            -19 15 -30 -39 vvcurveto
            -130 -189 -10 -103 vhcurveto
            return
          </CharString>
          <CharString index="250">
            29 23 22 29 29 -23 23 -29 -29 -22 -23 -29 return
          </CharString>
          <CharString index="251">
            3 -23 hhcurveto
            -116 151 callsubr
            return
          </CharString>
          <CharString index="252">
            95 callgsubr
            -17 -24 3 -23 hhcurveto
            return
          </CharString>
          <CharString index="253">
            rmoveto
            56 -282 -56 vlineto
            return
          </CharString>
          <CharString index="254">
            382 rmoveto
            -91 -61 return
          </CharString>
          <CharString index="255">
            -67 98 -194 hlineto
            -133 71 -62 108 -5 vhcurveto
            -183 -181 rlineto
            96 hlineto
            return
          </CharString>
          <CharString index="256">
            475 rmoveto
            151 93 rlineto
            -568 78 654 -74 vlineto
            -155 -94 rlineto
            endchar
          </CharString>
          <CharString index="257">
            -21 callgsubr
            endchar
          </CharString>
          <CharString index="258">
            -81 -82 -109 return
          </CharString>
          <CharString index="259">
            hvcurveto
            -76 161 callsubr
            return
          </CharString>
          <CharString index="260">
            41 -50 -75 -111 -90 -81 -127 -130 -94 93 104 -27 hvcurveto
            13 1 rlineto
            return
          </CharString>
          <CharString index="261">
            386 397 rmoveto
            -91 -61 -50 -67 -71 -35 37 97 vhcurveto
            185 234 vlineto
            return
          </CharString>
          <CharString index="262">
            rmoveto
            -282 -56 282 hlineto
            return
          </CharString>
          <CharString index="263">
            rmoveto
            67 -621 -67 292 -74 vlineto
            -111 -5 -124 -49 -118 vvcurveto
            return
          </CharString>
          <CharString index="264">
            -187 169 callsubr
            return
          </CharString>
          <CharString index="265">
            rmoveto
            -249 46 hlineto
            66 31 24 46 53 40 -14 -22 43 vhcurveto
            73 vlineto
            20 return
          </CharString>
          <CharString index="266">
            -31 100 callsubr
            return
          </CharString>
          <CharString index="267">
            hlineto
            -78 -69 -89 -119 return
          </CharString>
          <CharString index="268">
            -93 callgsubr
            75 vlineto
            return
          </CharString>
          <CharString index="269">
            -16 -17 -28 vhcurveto
            -69 vlineto
            25 31 39 18 37 hhcurveto
            43 34 -23 -54 -79 return
          </CharString>
          <CharString index="270">
            -70 -51 40 60 -14 vhcurveto
            72 23 59 51 66 vvcurveto
            65 -46 55 -131 return
          </CharString>
          <CharString index="271">
            -375 12 471 rmoveto
            62 hlineto
            120 224 rlineto
            -98 hlineto
            endchar
          </CharString>
          <CharString index="272">
            50 179 callgsubr
            return
          </CharString>
          <CharString index="273">
            12 10 1 1 8 return
          </CharString>
          <CharString index="274">
            68 136 210 return
          </CharString>
          <CharString index="275">
            4 7 17 hvcurveto
            return
          </CharString>
          <CharString index="276">
            vlineto
            -25 -6 -17 -21 -28 vvcurveto
            -26 14 -33 109 callgsubr
            -56 rlineto
            return
          </CharString>
          <CharString index="277">
            333 rmoveto
            17 24 9 33 42 vvcurveto
            143 194 -242 vlineto
            return
          </CharString>
          <CharString index="278">
            -52 51 88 84 57 49 90 hvcurveto
            endchar
          </CharString>
          <CharString index="279">
            77 -88 callsubr
          </CharString>
          <CharString index="280">
            -215 211 return
          </CharString>
          <CharString index="281">
            18 28 36 13 28 hhcurveto
            44 29 -19 -44 -45 -39 -23 -46 hvcurveto
            return
          </CharString>
          <CharString index="282">
            187 callgsubr
            50 45 57 68 47 -49 -67 -79 -55 -45 return
          </CharString>
          <CharString index="283">
            hhcurveto
            -35 -36 -7 -13 -28 hvcurveto
            -75 vlineto
            13 27 25 9 43 hhcurveto
            return
          </CharString>
          <CharString index="284">
            -231 vlineto
            -8 -2 -8 -4 -6 -5 rrcurveto
            879 309 rmoveto
            return
          </CharString>
          <CharString index="285">
            46 94 vvcurveto
            38 -10 32 -15 23 vhcurveto
            return
          </CharString>
          <CharString index="286">
            -101 -104 vlineto
            -145 -79 -87 -115 return
          </CharString>
          <CharString index="287">
            -12 15 vhcurveto
            -20 -30 -11 -36 return
          </CharString>
          <CharString index="288">
            32 4 callsubr
            return
          </CharString>
          <CharString index="289">
            -575 77 -66 callsubr
            return
          </CharString>
          <CharString index="290">
            -49 callgsubr
            -43 return
          </CharString>
          <CharString index="291">
            -124 98 -67 112 return
          </CharString>
          <CharString index="292">
            86 27 48 68 2 93 return
          </CharString>
          <CharString index="293" raw="1">
            fbac840a 0b  
          </CharString>
          <CharString index="294">
            77 -29 40 -90 vhcurveto
            return
          </CharString>
          <CharString index="295">
            -184 -196 return
          </CharString>
          <CharString index="296">
            -52 -76 -68 -41 37 61 73 64 38 83 -1 vhcurveto
            0 vlineto
            return
          </CharString>
          <CharString index="297">
            59 68 -48 hlineto
            -71 -55 16 63 39 20 30 37 20 hvcurveto
            return
          </CharString>
          <CharString index="298">
            34 -59 -71 19 hvcurveto
            -224 -133 rlineto
            -81 vlineto
            312 return
          </CharString>
          <CharString index="299">
            78 callsubr
            -144 -1 -103 -89 -130 vvcurveto
            return
          </CharString>
          <CharString index="300">
            149 rmoveto
            26 hlineto
            271 413 rlineto
            -26 hlineto
            endchar
          </CharString>
          <CharString index="301">
            46 vlineto
            66 35 24 38 16 15 -3 -5 15 vhcurveto
            endchar
          </CharString>
          <CharString index="302">
            42 56 -23 vhcurveto
            -70 -226 76 113 hlineto
            -32 36 return
          </CharString>
          <CharString index="303">
            hhcurveto
            -46 -39 -13 -16 -31 hvcurveto
            1 5 0 5 6 vvcurveto
            return
          </CharString>
          <CharString index="304">
            115 callsubr
            42 -9 return
          </CharString>
          <CharString index="305">
            vvcurveto
            -106 99 -62 132 137 callgsubr
            return
          </CharString>
          <CharString index="306">
            217 callsubr
            endchar
          </CharString>
          <CharString index="307">
            -92 -176 vlineto
            -69 -53 -34 -66 return
          </CharString>
          <CharString index="308">
            79 -66 callsubr
            return
          </CharString>
          <CharString index="309">
            11 1 1 7 vhcurveto
            return
          </CharString>
          <CharString index="310">
            575 rmoveto
            67 return
          </CharString>
          <CharString index="311">
            17 hvcurveto
            280 348 rmoveto
            167 117 67 return
          </CharString>
          <CharString index="312">
            hlineto
            -34 -22 -21 -35 -48 vvcurveto
            -90 79 -70 131 return
          </CharString>
          <CharString index="313">
            -188 171 -72 -171 -180 -69 180 return
          </CharString>
          <CharString index="314">
            -40 hhcurveto
            -81 14 callsubr
            return
          </CharString>
          <CharString index="315">
            78 218 callsubr
            return
          </CharString>
          <CharString index="316">
            rmoveto
            69 hlineto
            129 224 rlineto
            -105 hlineto
            endchar
          </CharString>
          <CharString index="317">
            -19 hvcurveto
            233 callgsubr
          </CharString>
          <CharString index="318">
            67 234 callsubr
            0 return
          </CharString>
          <CharString index="319">
            15 -49 callgsubr
            return
          </CharString>
          <CharString index="320">
            225 callsubr
            vlineto
            return
          </CharString>
          <CharString index="321">
            rlineto
            110 hlineto
            return
          </CharString>
          <CharString index="322">
            95 hlineto
            96 126 95 -126 2 callsubr
            return
          </CharString>
          <CharString index="323">
            202 callsubr
            211 callsubr
            return
          </CharString>
          <CharString index="324">
            80 -19 vhcurveto
            159 callgsubr
            return
          </CharString>
          <CharString index="325">
            24 70 178 callsubr
            return
          </CharString>
          <CharString index="326">
            40 49 50 40 -40 -50 -49 -40 -40 -50 -49 return
          </CharString>
          <CharString index="327">
            -575 107 callsubr
          </CharString>
          <CharString index="328">
            -194 108 callgsubr
          </CharString>
          <CharString index="329">
            -384 78 -66 callsubr
            return
          </CharString>
          <CharString index="330">
            rmoveto
            440 68 -440 hlineto
            return
          </CharString>
          <CharString index="331">
            hlineto
            129 callgsubr
            return
          </CharString>
          <CharString index="332">
            -124 -382 -67 return
          </CharString>
          <CharString index="333">
            vvcurveto
            58 40 42 50 return
          </CharString>
          <CharString index="334">
            hvcurveto
            -70 vlineto
            1 return
          </CharString>
          <CharString index="335">
            -123 -104 hlineto
            -167 -80 -95 -128 return
          </CharString>
          <CharString index="336">
            -75 vlineto
            -68 -2 -50 -50 -80 hhcurveto
            -78 -51 return
          </CharString>
          <CharString index="337">
            92 -4 37 -20 -50 vvcurveto
            -57 -48 -31 -75 return
          </CharString>
          <CharString index="338">
            -5 callgsubr
            -92 hlineto
            return
          </CharString>
          <CharString index="339">
            712 rlineto
            -135 -562 rmoveto
            133 return
          </CharString>
          <CharString index="340">
            -34 -10 -40 hhcurveto
            return
          </CharString>
          <CharString index="341">
            vlineto
            -1 -5 -11 return
          </CharString>
        <CharString name=".notdef">
          195 176 hmoveto
          399 701 -399 hlineto
          59 -55 rmoveto
          281 -591 -281 hlineto
          endchar
        </CharString>
        <CharString name="A">
          92 205 246 -90 callgsubr
        </CharString>
        <CharString name="AE">
          323 252 246 rmoveto
          22 38 89 155 60 108 33 63 rlinecurve
          -364 vlineto
          80 -175 rmoveto
          230 256 71 -256 231 289 71 -419 vlineto
          -383 -674 rlineto
          87 hlineto
          102 177 rlineto
          244 -177 375 71 hlineto
          endchar
        </CharString>
        <CharString name="Aacute">
          92 492 883 33 callsubr
          -163 -481 -90 callgsubr
        </CharString>
        <CharString name="Abreve">
          92 425 882 24 callgsubr
          -285 -636 -90 callgsubr
        </CharString>
        <CharString name="Acircumflex">
          92 327 832 13 callgsubr
          -37 -481 -90 callgsubr
        </CharString>
        <CharString name="Adieresis">
          92 428 754 -62 callgsubr
          -22 -508 -90 callgsubr
        </CharString>
        <CharString name="Agrave">
          92 354 727 rmoveto
          -98 156 rlineto
          62 callgsubr
          -80 -481 -90 callgsubr
        </CharString>
        <CharString name="Amacron">
          92 468 833 155 callsubr
          -263 -531 -90 callgsubr
        </CharString>
        <CharString name="Aogonek">
          90 204 246 rmoveto
          13 38 rlineto
          96 283 12 42 0 vvcurveto
          0 11 -42 94 -282 vhcurveto
          13 -39 rlineto
          -62 428 rmoveto
          -112 hlineto
          -235 -674 rlineto
          87 hlineto
          60 177 rlineto
          285 hlineto
          56 -167 rlineto
          -50 -32 -41 -50 -60 97 callsubr
        </CharString>
        <CharString name="Aring">
          92 327 878 9 callsubr
          -122 -471 -90 callgsubr
        </CharString>
        <CharString name="Atilde">
          92 446 860 -69 callgsubr
          -290 -580 -90 callgsubr
        </CharString>
        <CharString name="B">
          15 158 69 rmoveto
          237 138 vlineto
          96 52 -45 -76 -76 -49 -40 -84 hvcurveto
          -153 536 rmoveto
          122 hlineto
          101 44 -50 -58 -66 -44 -56 -115 hvcurveto
          -108 hlineto
          -81 299 rmoveto
          -674 246 vlineto
          135 70 76 104 102 -68 50 -67 11 hvcurveto
          67 15 49 60 79 vvcurveto
          109 -91 68 -138 vhcurveto
          endchar
        </CharString>
        <CharString name="C">
          46 558 647 -58 callgsubr
          endchar
        </CharString>
        <CharString name="CR">
          endchar
        </CharString>
        <CharString name="Cacute">
          46 558 647 -58 callgsubr
          -228 163 150 callsubr
        </CharString>
        <CharString name="Ccaron">
          46 558 647 -58 callgsubr
          -142 163 -75 callgsubr
          endchar
        </CharString>
        <CharString name="Ccedilla">
          46 333 -51 rmoveto
          15 -25 8 -20 -27 vvcurveto
          -42 -29 -25 -55 -4 vhcurveto
          -58 vlineto
          102 3 48 59 68 vvcurveto
          23 -6 31 -12 17 vhcurveto
          154 698 -58 callgsubr
          endchar
        </CharString>
        <CharString name="D">
          105 159 71 44 callgsubr
        </CharString>
        <CharString name="Dcaron">
          105 344 726 -75 callgsubr
          -109 -655 44 callgsubr
        </CharString>
        <CharString name="Dcroat">
          15 callsubr
        </CharString>
        <CharString name="E">
          -55 158 71 -50 callgsubr
        </CharString>
        <CharString name="Eacute">
          -55 437 883 33 callsubr
          -155 -656 -50 callgsubr
        </CharString>
        <CharString name="Ecaron">
          -55 309 726 -75 callgsubr
          -75 -655 -50 callgsubr
        </CharString>
        <CharString name="Ecircumflex">
          -55 273 832 13 callgsubr
          -30 -656 -50 callgsubr
        </CharString>
        <CharString name="Edieresis">
          -55 369 753 -62 callgsubr
          -10 -682 -50 callgsubr
        </CharString>
        <CharString name="Edotaccent">
          -55 275 755 rmoveto
          29 22 23 29 29 -22 22 -29 -30 -22 -22 -29 -29 22 -23 30 hvcurveto
          -117 -684 -50 callgsubr
        </CharString>
        <CharString name="Egrave">
          -55 320 726 rmoveto
          -98 156 rlineto
          62 callgsubr
          -93 -655 -50 callgsubr
        </CharString>
        <CharString name="Emacron">
          -55 404 834 155 callsubr
          -246 -707 -50 callgsubr
        </CharString>
        <CharString name="Eogonek">
          -55 453 hmoveto
          71 -295 230 256 71 -256 231 290 71 -371 -674 184 vlineto
          -43 -32 -35 -46 -54 -14 callsubr
          61 30 hvcurveto
          endchar
        </CharString>
        <CharString name="Eth">
          15 callsubr
        </CharString>
        <CharString name="Euro">
          34 550 637 rmoveto
          17 -32 -42 6 -46 hhcurveto
          -132 -106 -82 -142 -37 hvcurveto
          -103 -57 93 hlineto
          -2 -18 -1 -18 -19 vvcurveto
          -16 1 -15 1 -15 vhcurveto
          -92 -57 102 hlineto
          -142 34 105 -87 132 hhcurveto
          52 39 6 18 34 hvcurveto
          78 vlineto
          -19 -31 -41 -8 -44 hhcurveto
          -89 -76 54 100 -30 hvcurveto
          201 57 -212 hlineto
          -2 15 -1 15 16 vvcurveto
          19 1 19 2 17 vhcurveto
          212 57 -199 hlineto
          96 31 73 52 94 hhcurveto
          43 39 -7 -18 29 hvcurveto
          endchar
        </CharString>
        <CharString name="F">
          -67 447 603 rmoveto
          71 -370 -674 81 293 254 71 -254 239 vlineto
          endchar
        </CharString>
        <CharString name="G">
          114 603 378 -47 callgsubr
        </CharString>
        <CharString name="Gbreve">
          114 468 883 24 callgsubr
          70 -505 -47 callgsubr
        </CharString>
        <CharString name="H">
          87 485 674 rmoveto
          -296 -327 296 -81 -674 81 305 327 -305 81 674 vlineto
          endchar
        </CharString>
        <CharString name="I">
          89 callsubr
          endchar
        </CharString>
        <CharString name="Iacute">
          89 callsubr
          10 53 150 callsubr
        </CharString>
        <CharString name="Icircumflex">
          -309 86 883 -12 callsubr
          -79 -883 rmoveto
          81 674 -81 hlineto
          endchar
        </CharString>
        <CharString name="Idieresis">
          89 callsubr
          -110 132 -63 callsubr
          endchar
        </CharString>
        <CharString name="Idotaccent">
          89 callsubr
          -10 134 rmoveto
          -29 22 -23 30 29 22 23 29 29 -22 22 -29 -30 -22 -22 -29 vhcurveto
          endchar
        </CharString>
        <CharString name="Igrave">
          89 callsubr
          -28 209 rmoveto
          62 callgsubr
          69 hlineto
          endchar
        </CharString>
        <CharString name="Imacron">
          89 callsubr
          182 103 146 callsubr
          endchar
        </CharString>
        <CharString name="Iogonek">
          -309 164 1 rmoveto
          673 -81 -660 vlineto
          -53 -32 -46 -51 -63 -14 callsubr
          61 30 hvcurveto
          endchar
        </CharString>
        <CharString name="J">
          -198 30 22 rmoveto
          -14 25 40 -8 30 hhcurveto
          87 70 42 131 hvcurveto
          501 -81 -508 vlineto
          -63 -30 -29 -57 -30 -31 11 15 -23 vhcurveto
          endchar
        </CharString>
        <CharString name="K">
          17 77 hmoveto
          81 674 -81 hlineto
          197 -341 142 callgsubr
        </CharString>
        <CharString name="L">
          -79 158 73 151 callgsubr
        </CharString>
        <CharString name="Lacute">
          -79 448 883 33 callsubr
          -166 -53 rmoveto
          -81 -674 368 73 -287 hlineto
          endchar
        </CharString>
        <CharString name="Lcaron">
          -79 424 701 rmoveto
          -91 hlineto
          -85 -192 rlineto
          65 hlineto
          -155 -436 151 callgsubr
        </CharString>
        <CharString name="Lslash">
          -56 178 73 rmoveto
          228 vlineto
          150 103 rlineto
          78 vlineto
          -150 -104 rlineto
          296 -81 -352 vlineto
          -68 -47 rlineto
          -77 vlineto
          68 47 rlineto
          -245 368 73 vlineto
          endchar
        </CharString>
        <CharString name="M">
          301 70 hmoveto
          81 hlineto
          19 266 rlineto
          11 147 8 134 12 vvcurveto
          0 45 -131 57 -162 vhcurveto
          89 -251 rlineto
          77 hlineto
          94 251 rlineto
          56 151 53 148 0 vvcurveto
          0 10 -147 14 -152 vhcurveto
          23 -266 rlineto
          81 hlineto
          -59 674 rlineto
          -103 hlineto
          -93 -246 rlineto
          -56 -150 -58 -164 0 vvcurveto
          0 -56 169 -52 145 vhcurveto
          -89 246 rlineto
          -103 hlineto
          endchar
        </CharString>
        <CharString name="N">
          117 77 hmoveto
          38 callgsubr
        </CharString>
        <CharString name="NULL">
          endchar
        </CharString>
        <CharString name="Nacute">
          117 326 726 -21 callgsubr
          -348 -882 36 callsubr
        </CharString>
        <CharString name="Ncaron">
          117 77 hmoveto
          -66 callgsubr
          314 53 -75 callgsubr
          endchar
        </CharString>
        <CharString name="Ntilde">
          117 77 hmoveto
          -66 callgsubr
          388 186 -69 callgsubr
          endchar
        </CharString>
        <CharString name="O">
          17 callsubr
          endchar
        </CharString>
        <CharString name="OE">
          427 346 69 rmoveto
          -131 -82 103 168 168 76 103 136 139 75 -103 -168 -168 -75 -103 -138 hvcurveto
          292 2 rmoveto
          230 258 71 -258 231 292 71 -371 -82 vlineto
          61 -50 -72 34 -92 hhcurveto
          -185 -112 -136 -211 -211 116 -137 182 90 73 35 61 50 hvcurveto
          -88 376 71 vlineto
          endchar
        </CharString>
        <CharString name="Oacute">
          144 324 727 -21 callgsubr
          -375 -543 -89 callgsubr
          endchar
        </CharString>
        <CharString name="Ocircumflex">
          144 133 340 rmoveto
          168 81 103 136 139 78 -103 -168 -168 -78 -103 -138 -131 -87 103 168 vhcurveto
          -85 hmoveto
          -211 121 -137 182 186 116 137 211 211 -112 136 -191 -185 -117 -136 -211 vhcurveto
          271 543 -12 callsubr
          endchar
        </CharString>
        <CharString name="Odieresis">
          144 202 806 -63 callsubr
          -356 -466 -89 callgsubr
          endchar
        </CharString>
        <CharString name="Ograve">
          17 callsubr
          162 543 rmoveto
          62 callgsubr
          69 hlineto
          endchar
        </CharString>
        <CharString name="Ohungarumlaut">
          144 413 727 53 callsubr
          -305 -543 -89 callgsubr
          endchar
        </CharString>
        <CharString name="Omacron">
          144 492 777 146 callsubr
          -162 -437 -89 callgsubr
          endchar
        </CharString>
        <CharString name="Oslash">
          119 520 518 rmoveto
          28 -46 14 -60 -72 vvcurveto
          -169 -79 -104 -138 -51 -43 15 28 -35 vhcurveto
          -47 53 rmoveto
          -28 45 -16 60 72 vvcurveto
          169 82 103 136 52 44 -14 -27 34 vhcurveto
          174 116 rmoveto
          -88 hlineto
          -39 -52 rlineto
          34 -47 -60 18 -70 hhcurveto
          -185 -117 -136 -211 -101 28 -84 49 -61 hvcurveto
          -77 -103 rlineto
          86 hlineto
          41 55 rlineto
          -35 48 60 -19 69 hhcurveto
          185 116 137 211 102 -26 84 -48 60 hvcurveto
          endchar
        </CharString>
        <CharString name="Otilde">
          17 callsubr
          339 521 -69 callgsubr
          endchar
        </CharString>
        <CharString name="P">
          -11 158 317 rmoveto
          288 97 vlineto
          110 59 -59 -89 -79 -57 -61 -105 hvcurveto
          -185 357 rmoveto
          -674 81 248 104 vlineto
          150 94 91 118 126 -93 91 -159 hvcurveto
          endchar
        </CharString>
        <CharString name="Q">
          153 133 340 rmoveto
          168 81 103 136 139 78 -103 -168 -168 -78 -103 -138 -131 -87 103 168 vhcurveto
          550 -445 rmoveto
          -200 124 rlineto
          107 50 63 116 155 vvcurveto
          211 -112 136 -191 -185 -117 -136 -211 -211 121 -137 182 15 15 1 2 14 vhcurveto
          200 -137 rlineto
          endchar
        </CharString>
        <CharString name="R">
          -8 158 604 -24 callsubr
        </CharString>
        <CharString name="Racute">
          -8 429 883 33 callsubr
          -147 -123 -24 callsubr
        </CharString>
        <CharString name="Rcaron">
          -8 316 726 -75 callgsubr
          -82 -122 -24 callsubr
        </CharString>
        <CharString name="S">
          -32 430 649 -78 callgsubr
          endchar
        </CharString>
        <CharString name="Sacute">
          -32 247 726 -21 callgsubr
          84 -233 -78 callgsubr
          endchar
        </CharString>
        <CharString name="Scaron">
          -32 430 649 -78 callgsubr
          -129 162 -75 callgsubr
          endchar
        </CharString>
        <CharString name="T">
          -74 463 674 111 callgsubr
        </CharString>
        <CharString name="Tcaron">
          -74 279 727 -75 callgsubr
          260 -53 111 callgsubr
        </CharString>
        <CharString name="Thorn">
          -20 158 193 rmoveto
          288 91 vlineto
          118 49 -63 -87 -76 -49 -62 -110 hvcurveto
          -99 357 rmoveto
          124 -81 -674 81 124 96 vlineto
          158 86 91 118 126 -85 91 -167 hvcurveto
          endchar
        </CharString>
        <CharString name="U">
          89 488 254 13 callsubr
        </CharString>
        <CharString name="Uacute">
          89 300 727 -21 callgsubr
          89 -629 13 callsubr
        </CharString>
        <CharString name="Ucircumflex">
          89 488 254 -71 callgsubr
          -202 209 -12 callsubr
          endchar
        </CharString>
        <CharString name="Udieresis">
          89 171 806 -63 callsubr
          115 -552 13 callsubr
        </CharString>
        <CharString name="Ugrave">
          89 488 254 -71 callgsubr
          -226 209 rmoveto
          62 callgsubr
          69 hlineto
          endchar
        </CharString>
        <CharString name="Uhungarumlaut">
          89 488 254 -71 callgsubr
          -121 53 53 callsubr
          endchar
        </CharString>
        <CharString name="Umacron">
          89 488 254 -71 callgsubr
          -21 103 146 callsubr
          endchar
        </CharString>
        <CharString name="Uogonek">
          89 488 674 rmoveto
          -420 vlineto
          -137 -69 -49 -98 -93 -71 50 131 vhcurveto
          425 -81 -426 vlineto
          -161 85 -86 138 -8 vhcurveto
          -34 -31 -26 -40 -47 -14 callsubr
          60 30 hvcurveto
          95 31 55 83 135 vvcurveto
          418 vlineto
          endchar
        </CharString>
        <CharString name="Uring">
          89 219 822 72 callgsubr
          216 -569 13 callsubr
        </CharString>
        <CharString name="V">
          81 601 674 rmoveto
          -87 hlineto
          -90 -267 rlineto
          -69 -208 -39 -126 0 vvcurveto
          0 -37 126 -68 208 vhcurveto
          -88 267 rlineto
          -87 hlineto
          228 -674 rlineto
          102 hlineto
          endchar
        </CharString>
        <CharString name="W">
          382 432 664 rmoveto
          -70 -240 rlineto
          -39 -134 -56 -205 0 vvcurveto
          0 -57 234 -26 105 vhcurveto
          -63 250 rlineto
          -85 hlineto
          176 -674 rlineto
          103 hlineto
          63 213 rlineto
          65 219 31 118 0 vvcurveto
          0 33 -117 68 -220 vhcurveto
          65 -213 rlineto
          104 hlineto
          158 674 rlineto
          -82 hlineto
          -57 -251 rlineto
          -28 -120 -46 -221 0 vvcurveto
          0 -69 230 -33 112 vhcurveto
          -74 240 rlineto
          endchar
        </CharString>
        <CharString name="X">
          57 256 340 rmoveto
          -217 -340 rlineto
          96 hlineto
          8 15 151 241 9 15 176 -271 rcurveline
          95 hlineto
          -226 340 204 334 rlineto
          -96 hlineto
          -8 -14 -140 -233 -7 -14 -155 261 rcurveline
          -95 hlineto
          endchar
        </CharString>
        <CharString name="Y">
          37 567 674 6 callsubr
        </CharString>
        <CharString name="Yacute">
          37 472 882 33 callsubr
          219 -52 6 callsubr
        </CharString>
        <CharString name="Ydieresis">
          37 398 753 -62 callgsubr
          370 -79 6 callsubr
        </CharString>
        <CharString name="Z">
          13 502 674 18 callsubr
          endchar
        </CharString>
        <CharString name="Zacute">
          13 263 727 -21 callgsubr
          140 -209 18 callsubr
          endchar
        </CharString>
        <CharString name="Zcaron">
          13 502 674 18 callsubr
          -181 119 -75 callgsubr
          endchar
        </CharString>
        <CharString name="Zdotaccent">
          13 502 674 18 callsubr
          -262 200 rmoveto
          -29 22 -23 30 29 22 23 29 29 -22 22 -29 -30 -22 -22 -29 vhcurveto
          endchar
        </CharString>
        <CharString name="a">
          -64 346 234 -102 callsubr
        </CharString>
        <CharString name="aacute">
          -64 416 716 33 callsubr
          54 -326 -102 callsubr
        </CharString>
        <CharString name="abreve">
          -64 349 715 24 callgsubr
          -68 -481 -102 callsubr
        </CharString>
        <CharString name="acircumflex">
          -64 254 664 13 callgsubr
          177 -325 -102 callsubr
        </CharString>
        <CharString name="acute">
          -135 115 642 150 callsubr
        </CharString>
        <CharString name="adieresis">
          -64 353 584 -62 callgsubr
          194 -350 -102 callsubr
        </CharString>
        <CharString name="ae">
          263 351 177 rmoveto
          -70 -53 -43 -65 -66 -33 33 48 58 49 29 93 vhcurveto
          75 hlineto
          350 54 rmoveto
          -272 hlineto
          110 12 64 48 70 hhcurveto
          73 52 -47 -91 1 hvcurveto
          73 -86 rmoveto
          3 16 2 26 13 vvcurveto
          153 -72 85 -131 -74 -63 -31 -57 -38 vhcurveto
          57 -23 -54 33 -88 hhcurveto
          -56 -57 -15 -21 -34 hvcurveto
          -77 vlineto
          25 38 57 17 49 hhcurveto
          89 29 -45 -76 hvcurveto
          -25 -90 vlineto
          -128 -81 -57 -99 -91 66 -56 97 94 63 45 59 24 hvcurveto
          -64 40 80 -40 87 hhcurveto
          45 58 11 20 37 hvcurveto
          74 vlineto
          -24 -35 -54 -11 -45 hhcurveto
          -93 -73 52 103 -13 hvcurveto
          endchar
        </CharString>
        <CharString name="agrave">
          -64 291 560 rmoveto
          -98 156 rlineto
          62 callgsubr
          124 -326 -102 callsubr
        </CharString>
        <CharString name="amacron">
          -64 388 666 155 callsubr
          -42 -376 -102 callsubr
        </CharString>
        <CharString name="ampersand">
          147 315 65 rmoveto
          -97 -71 43 69 56 45 35 81 31 hvcurveto
          24 -23 86 -79 88 -82 rrcurveto
          -33 -41 -54 -17 -61 hhcurveto
          3 553 rmoveto
          74 35 -48 -54 -56 -40 -41 -88 -41 hvcurveto
          -64 65 -21 36 43 vvcurveto
          62 46 34 58 vhcurveto
          383 -618 rmoveto
          -127 118 28 43 16 51 4 56 rlinecurve
          -76 hlineto
          -3 -38 -10 -32 -15 -28 -169 158 rcurveline
          119 55 40 61 73 vvcurveto
          97 -74 76 -115 -113 -74 -67 -100 -62 33 -49 58 -63 vhcurveto
          -102 -39 -56 -52 -82 vvcurveto
          -107 100 -77 152 89 70 27 44 50 vhcurveto
          68 -63 rlineto
          endchar
        </CharString>
        <CharString name="aogonek">
          -65 346 232 rmoveto
          -70 vlineto
          -52 -49 -46 -69 -66 -33 33 48 58 49 29 93 vhcurveto
          154 89 rmoveto
          124 -56 70 -135 -57 -59 -15 -21 -34 vhcurveto
          -77 vlineto
          25 38 57 17 49 hhcurveto
          89 29 -45 -76 hvcurveto
          -25 -90 vlineto
          -128 -81 -57 -99 -89 64 -58 94 63 50 29 39 29 hvcurveto
          -47 vlineto
          -54 -32 -49 -52 -64 97 callsubr
        </CharString>
        <CharString name="apostrophemod">
          164 callsubr
        </CharString>
        <CharString name="approxequal">
          61 509 297 rmoveto
          -36 -20 -30 -23 95 callsubr
          -57 241 rmoveto
          -35 -20 -30 -24 95 callsubr
          endchar
        </CharString>
        <CharString name="aring">
          -64 255 711 9 callsubr
          91 -316 -102 callsubr
        </CharString>
        <CharString name="asciicircum">
          -95 416 332 rmoveto
          -138 262 rlineto
          -91 hlineto
          -142 -262 rlineto
          79 hlineto
          108 208 105 -208 rlineto
          endchar
        </CharString>
        <CharString name="asciitilde">
          43 504 326 rmoveto
          -36 -21 -30 -24 -40 -71 -50 74 -100 hhcurveto
          -59 -54 -35 -60 -43 hvcurveto
          53 -46 rlineto
          49 34 38 20 43 62 66 -74 88 hhcurveto
          65 43 36 54 35 hvcurveto
          endchar
        </CharString>
        <CharString name="asterisk">
          -148 250 488 rmoveto
          10 13 1 5 13 hvcurveto
          92 30 -20 61 -92 -29 -17 -5 -13 -8 -9 -9 rlinecurve
          5 11 3 15 18 vvcurveto
          96 -64 -96 vlineto
          -20 4 -15 5 -11 vhcurveto
          -9 8 -12 9 -18 6 -93 30 rcurveline
          -19 -62 91 -30 rlineto
          -5 14 11 -1 11 3 2 0 3 hhcurveto
          -11 -6 -10 -10 -10 -13 -57 -79 rcurveline
          52 -37 57 77 10 14 6 13 3 13 rlinecurve
          3 -12 6 -13 10 -14 57 -78 rcurveline
          51 38 -56 78 -10 15 -11 9 -11 6 rlinecurve
          endchar
        </CharString>
        <CharString name="at">
          349 429 83 rmoveto
          -57 -40 45 70 83 49 68 71 67 31 -40 -65 10 hvcurveto
          -2 -20 -1 -18 -1 -17 rrcurveto
          -69 -22 -54 -37 -51 hhcurveto
          165 -140 rmoveto
          -32 -58 -61 -11 -59 hhcurveto
          -144 -136 96 200 203 165 147 188 166 133 -99 -188 -104 -46 -70 -57 -50 -16 38 63 19 1 27 3 40 hvcurveto
          15 138 rlineto
          -66 hlineto
          -1 -21 -2 -20 -1 -18 rrcurveto
          40 -24 -38 24 -56 hhcurveto
          -110 -83 -94 -119 -102 58 -82 101 64 51 34 55 33 hvcurveto
          -42 12 30 -44 75 hhcurveto
          83 94 79 164 216 -168 133 -199 -236 -195 -175 -242 -207 132 -157 222 53 70 7 27 53 hvcurveto
          endchar
        </CharString>
        <CharString name="atilde">
          -64 370 693 -69 callgsubr
          -73 -425 -102 callsubr
        </CharString>
        <CharString name="b">
          14 304 64 rmoveto
          -72 -77 46 147 143 87 43 57 80 66 -64 -131 -110 -61 -74 -80 hvcurveto
          -149 643 rmoveto
          -79 -707 79 75 hlineto
          -49 32 50 -34 74 hhcurveto
          141 75 122 135 159 -91 107 -127 -68 -52 -32 -52 -34 hvcurveto
          endchar
        </CharString>
        <CharString name="backslash">
          -154 48 707 rmoveto
          -81 hlineto
          365 -810 rlineto
          80 hlineto
          endchar
        </CharString>
        <CharString name="bar">
          -328 78 -194 rmoveto
          72 889 -72 hlineto
          endchar
        </CharString>
        <CharString name="braceleft">
          -222 321 705 rmoveto
          5 -16 -16 3 -15 hhcurveto
          -70 -60 -57 -93 hvcurveto
          -52 21 -45 -46 vvcurveto
          -58 -29 -50 -59 -9 vhcurveto
          -2 -11 -11 0 -7 hhcurveto
          -77 vlineto
          7 13 0 -2 9 hvcurveto
          63 -13 25 -48 -58 -46 -21 -45 -52 vvcurveto
          -93 60 -56 70 15 16 2 6 16 vhcurveto
          77 vlineto
          -6 -11 -12 -3 -10 hhcurveto
          -43 -20 34 40 hvcurveto
          54 21 45 59 vvcurveto
          71 -41 59 -81 13 vhcurveto
          81 13 41 58 72 58 -21 45 54 vvcurveto
          40 20 34 43 10 12 -3 -6 11 vhcurveto
          endchar
        </CharString>
        <CharString name="braceright">
          -222 13 627 rmoveto
          6 11 13 3 10 hhcurveto
          42 20 -34 -40 hvcurveto
          -54 -20 -45 -58 vvcurveto
          -72 41 -58 80 -13 vhcurveto
          -80 -13 -41 -59 -71 -59 20 -45 -54 vvcurveto
          -40 -20 -34 -42 -10 -13 3 6 -11 vhcurveto
          -77 vlineto
          -6 16 16 -2 15 hhcurveto
          70 60 56 93 hvcurveto
          52 -21 45 46 vvcurveto
          58 26 48 62 13 vhcurveto
          2 9 13 0 7 hhcurveto
          77 vlineto
          -7 -11 0 2 -11 hvcurveto
          -59 9 -29 50 58 46 21 45 52 vvcurveto
          93 -60 57 -70 -15 -16 -3 -5 -16 vhcurveto
          endchar
        </CharString>
        <CharString name="bracketleft">
          -246 307 637 rmoveto
          70 -230 -890 230 72 -152 748 vlineto
          endchar
        </CharString>
        <CharString name="bracketright">
          -246 233 707 rmoveto
          -230 -70 152 -748 -152 -72 230 hlineto
          endchar
        </CharString>
        <CharString name="breve">
          -135 46 798 rmoveto
          -93 51 -66 114 113 51 66 93 vhcurveto
          -65 hlineto
          -56 -27 -46 -72 -73 -27 46 56 vhcurveto
          endchar
        </CharString>
        <CharString name="brokenbar">
          -328 150 367 rmoveto
          331 -72 -331 vlineto
          72 -545 rmoveto
          331 -72 -331 vlineto
          endchar
        </CharString>
        <CharString name="bullet">
          -107 92 356 rmoveto
          -75 56 -58 77 74 58 58 75 75 -58 58 -75 -76 -56 -58 -75 vhcurveto
          endchar
        </CharString>
        <CharString name="c">
          -85 125 251 rmoveto
          116 callgsubr
          75 vlineto
          -32 callgsubr
          endchar
        </CharString>
        <CharString name="cacute">
          -85 259 559 -21 callgsubr
          -233 -464 rmoveto
          116 callgsubr
          75 vlineto
          -32 callgsubr
          endchar
        </CharString>
        <CharString name="caron">
          -135 248 642 -75 callgsubr
          endchar
        </CharString>
        <CharString name="ccaron">
          -85 422 488 rmoveto
          -32 callgsubr
          116 callgsubr
          -109 147 -75 callgsubr
          endchar
        </CharString>
        <CharString name="ccedilla">
          -85 125 251 rmoveto
          116 callgsubr
          75 vlineto
          -32 callgsubr
          214 -373 -7 callgsubr
        </CharString>
        <CharString name="cedilla">
          -135 285 -122 -7 callgsubr
        </CharString>
        <CharString name="cent">
          -104 412 490 rmoveto
          -28 13 -26 6 -24 3 rrcurveto
          103 -69 -105 vlineto
          -142 -20 -77 -115 -123 vvcurveto
          -128 78 -111 141 -18 vhcurveto
          -106 69 104 vlineto
          26 3 27 6 25 12 rrcurveto
          74 vlineto
          -16 -28 -36 -8 -30 hhcurveto
          -126 -64 85 102 -1 hvcurveto
          105 1 71 85 119 hhcurveto
          30 34 -9 -16 30 hvcurveto
          endchar
        </CharString>
        <CharString name="circumflex">
          -135 172 798 -12 callsubr
          endchar
        </CharString>
        <CharString name="colon">
          -321 59 380 rmoveto
          -34 25 -24 33 33 26 24 34 32 -26 26 -33 -33 -25 -26 -32 vhcurveto
          -323 vmoveto
          -33 25 -25 33 33 26 25 33 33 -26 26 -33 -33 -25 -26 -33 vhcurveto
          endchar
        </CharString>
        <CharString name="comma">
          -331 -8 -123 209 callsubr
        </CharString>
        <CharString name="copyright">
          220 43 336 rmoveto
          -188 156 -157 189 189 156 157 188 189 -156 157 -189 -189 -156 -157 -189 vhcurveto
          67 hmoveto
          154 125 126 154 154 125 -126 -154 -154 -125 -125 -154 -154 -125 125 154 vhcurveto
          183 -2 rmoveto
          76 51 52 73 23 32 -8 -15 23 vhcurveto
          65 vlineto
          15 -27 -34 5 -22 hhcurveto
          -121 -67 -92 -97 -1 hvcurveto
          -101 70 -87 118 28 36 8 13 20 vhcurveto
          65 vlineto
          -14 -18 -32 -11 -28 hhcurveto
          -75 -48 55 71 -1 hvcurveto
          endchar
        </CharString>
        <CharString name="currency">
          -13 55 309 rmoveto
          -48 13 -43 25 -35 vhcurveto
          -59 -58 51 -49 58 58 rlineto
          -23 34 43 -13 49 hhcurveto
          48 44 14 25 36 hvcurveto
          62 -61 50 49 -62 61 rlineto
          26 36 16 44 49 vvcurveto
          48 -15 43 -23 34 vhcurveto
          58 58 -50 49 -58 -57 rlineto
          23 -35 -43 14 -48 hhcurveto
          -49 -45 -15 -26 -36 hvcurveto
          -60 61 -51 -49 61 -61 rlineto
          -25 -35 -15 -45 -48 vvcurveto
          68 4 rmoveto
          85 62 64 87 86 62 -65 -85 -86 -62 -63 -86 -87 -62 64 86 vhcurveto
          endchar
        </CharString>
        <CharString name="d">
          11 51 callsubr
          149 643 rmoveto
          -277 vlineto
          42 callgsubr
          707 vlineto
          endchar
        </CharString>
        <CharString name="dagger">
          -33 482 503 rmoveto
          206 callsubr
          -434 72 434 188 hlineto
          endchar
        </CharString>
        <CharString name="daggerdbl">
          -26 485 434 rmoveto
          69 206 callsubr
          -184 -180 -69 180 -181 72 181 188 69 -188 184 vlineto
          endchar
        </CharString>
        <CharString name="danda">
          -213 160 hmoveto
          79 642 -79 hlineto
          endchar
        </CharString>
        <CharString name="dcaron">
          104 51 callsubr
          149 366 rmoveto
          42 callgsubr
          707 -79 vlineto
          221 hmoveto
          -84 -192 rlineto
          65 hlineto
          111 192 rlineto
          endchar
        </CharString>
        <CharString name="dcroat">
          11 51 callsubr
          299 578 rmoveto
          -71 65 -79 -65 -193 -55 193 -157 hlineto
          42 callgsubr
          587 71 vlineto
          endchar
        </CharString>
        <CharString name="degree">
          -201 30 530 rmoveto
          -85 61 -59 85 84 65 62 85 84 -62 59 -84 -85 -64 -62 -84 vhcurveto
          63 1 rmoveto
          48 35 39 48 48 37 -39 -48 -48 -34 -38 -48 -48 -38 38 48 vhcurveto
          endchar
        </CharString>
        <CharString name="dieresis">
          -135 58 723 -63 callsubr
          endchar
        </CharString>
        <CharString name="divide">
          -3 223 518 rmoveto
          -28 24 -24 29 28 24 24 28 29 -24 24 -28 -29 -24 -24 -29 vhcurveto
          -166 -214 rmoveto
          440 72 -440 hlineto
          166 -214 rmoveto
          -29 24 -24 29 28 24 24 29 28 -24 24 -28 -29 -24 -24 -28 vhcurveto
          endchar
        </CharString>
        <CharString name="dollar">
          -51 417 649 rmoveto
          -30 15 -36 9 -36 4 rrcurveto
          106 -69 -104 vlineto
          -108 -8 -85 -64 -110 vvcurveto
          -107 80 -43 79 -35 vhcurveto
          81 -35 77 -27 -73 vvcurveto
          -71 -53 -38 -83 -66 -68 22 33 -44 vhcurveto
          -87 vlineto
          38 -22 50 -14 51 -5 rrcurveto
          -104 69 103 vlineto
          109 9 81 63 113 vvcurveto
          110 -84 43 -82 36 vhcurveto
          -76 33 -73 28 72 vvcurveto
          61 50 42 83 51 59 -17 -23 35 vhcurveto
          endchar
        </CharString>
        <CharString name="dotaccent">
          -135 159 724 rmoveto
          -29 22 -23 30 29 22 23 29 29 -22 22 -29 -30 -22 -22 -29 vhcurveto
          endchar
        </CharString>
        <CharString name="dotlessi">
          90 callgsubr
          endchar
        </CharString>
        <CharString name="dottedcircle">
          104 139 517 rmoveto
          -26 18 -19 26 26 18 19 26 25 -18 19 -26 -26 -18 -19 -25 vhcurveto
          -82 -110 rmoveto
          -25 20 -19 26 24 20 19 25 25 -20 19 -24 -26 -20 -19 -25 vhcurveto
          -13 -126 rmoveto
          -25 19 -18 25 26 18 18 232 callgsubr
          52 -116 rmoveto
          -26 18 -18 26 25 19 18 26 25 -19 19 -25 -26 -18 -19 -25 vhcurveto
          101 -75 rmoveto
          -26 19 -20 26 25 19 20 26 24 -19 20 -25 -26 -19 -20 -24 vhcurveto
          127 -16 rmoveto
          -26 18 -18 26 26 19 18 26 26 -19 18 -26 -26 -18 -18 -26 vhcurveto
          121 53 rmoveto
          -26 19 -18 25 25 20 18 26 25 -20 19 -25 -25 -19 -19 -25 vhcurveto
          73 98 rmoveto
          -25 19 -19 26 24 19 19 25 26 -19 19 -24 -26 -19 -19 -26 vhcurveto
          10 134 rmoveto
          -26 18 -18 26 25 19 18 26 26 -19 18 -25 -26 -18 -18 -26 vhcurveto
          -50 118 rmoveto
          -25 19 -19 25 26 18 19 232 callgsubr
          -95 68 rmoveto
          -24 19 -20 26 25 18 20 24 26 -18 19 -25 -26 -19 -19 -26 vhcurveto
          -126 15 rmoveto
          -26 18 -18 26 26 18 18 26 26 -18 18 -26 -26 -18 -18 -26 vhcurveto
          endchar
        </CharString>
        <CharString name="doubledanda">
          4 160 hmoveto
          79 642 -79 hlineto
          217 -642 rmoveto
          78 642 -78 hlineto
          endchar
        </CharString>
        <CharString name="dvA">
          103 681 -22 callgsubr
          -285 -67 -96 callgsubr
          116 hlineto
          endchar
        </CharString>
        <CharString name="dvAA">
          368 946 -22 callgsubr
          -550 -67 -96 callgsubr
          187 -575 -41 callsubr
        </CharString>
        <CharString name="dvAI">
          -1 577 -22 callgsubr
          -92 hlineto
          -102 155 rlineto
          62 -40 -45 28 11 callgsubr
          -421 -43 callsubr
        </CharString>
        <CharString name="dvAU">
          369 837 642 22 callsubr
          -332 -67 -96 callgsubr
          188 220 callsubr
        </CharString>
        <CharString name="dvAbbreviationsign">
          -122 57 303 rmoveto
          -88 71 -71 88 87 71 71 88 86 -71 72 -87 -88 -71 -72 -86 vhcurveto
          69 hmoveto
          49 40 40 50 49 40 -40 -49 -50 -40 -40 -49 -50 -40 40 50 vhcurveto
          endchar
        </CharString>
        <CharString name="dvAcandra">
          103 627 896 rmoveto
          -53 -35 -42 -66 104 callgsubr
          94 84 52 105 vhcurveto
          -308 -321 rmoveto
          -96 callgsubr
          116 67 -285 hlineto
          endchar
        </CharString>
        <CharString name="dvAnusvara">
          -189 783 rmoveto
          90 callsubr
          30 -24 25 -31 -31 -23 -25 -30 vhcurveto
          endchar
        </CharString>
        <CharString name="dvAnusvara.amI">
          -53 856 rmoveto
          90 callsubr
          30 -24 25 -31 -31 -23 -25 -30 vhcurveto
          endchar
        </CharString>
        <CharString name="dvAvagraha">
          -103 227 -3 rmoveto
          145 60 87 82 hvcurveto
          172 -331 87 98 vvcurveto
          34 24 15 32 vhcurveto
          248 70 -257 hlineto
          -81 -47 -45 -71 hvcurveto
          -164 333 -65 -135 vvcurveto
          -46 -37 -49 -87 -66 -82 25 41 -63 vhcurveto
          -83 vlineto
          -24 40 75 -29 94 hhcurveto
          endchar
        </CharString>
        <CharString name="dvB">
          -177 401 -22 callgsubr
          -423 -67 423 hlineto
          -26 -405 -62 callsubr
          304 -120 rmoveto
          -14 -20 -15 -20 -19 -18 173 callsubr
          rcurveline
          -97 callgsubr
          112 73 59 74 52 hvcurveto
          endchar
        </CharString>
        <CharString name="dvBA">
          59 372 173 -37 callgsubr
          -660 -67 466 -269 hlineto
          29 callgsubr
        </CharString>
        <CharString name="dvBH">
          -230 421 347 rmoveto
          -234 -63 callgsubr
          234 hlineto
          endchar
        </CharString>
        <CharString name="dvBHA">
          -1 383 347 rmoveto
          -196 -63 callgsubr
          196 -281 78 -66 callsubr
          67 -194 hlineto
          endchar
        </CharString>
        <CharString name="dvBH_LA">
          499 1077 -22 callgsubr
          -778 -67 583 -113 hlineto
          -28 callgsubr
          -79 -57 -48 -74 -24 hvcurveto
          -201 -63 callgsubr
          190 hlineto
          -1 -6 0 -6 -6 vvcurveto
          20 callgsubr
          vhcurveto
          -98 callgsubr
        </CharString>
        <CharString name="dvBH_NA">
          7 391 -22 callgsubr
          -251 -196 136 vlineto
          46 callgsubr
          -26 -6 -17 115 callgsubr
          196 -92 hlineto
          -232 -150 rlineto
          -32 -20 -14 -22 -26 vvcurveto
          -48 51 -46 37 -18 vhcurveto
          51 32 rlineto
          -23 18 -27 30 27 vvcurveto
          16 10 13 16 10 vhcurveto
          163 104 rlineto
          -153 56 callsubr
        </CharString>
        <CharString name="dvBH_R">
          -186 197 391 rmoveto
          136 vlineto
          55 callgsubr
          208 hlineto
          -340 -365 rlineto
          108 hlineto
          326 365 rlineto
          66 vlineto
          endchar
        </CharString>
        <CharString name="dvBH_RA">
          9 393 -22 callgsubr
          -251 -196 136 vlineto
          55 callgsubr
          196 -68 hlineto
          -336 -297 214 callsubr
          226 200 rlineto
          -160 78 -66 callsubr
          67 vlineto
          endchar
        </CharString>
        <CharString name="dvBH_R_YA">
          419 804 -105 callsubr
          -476 67 rmoveto
          -67 205 vlineto
          -44 callsubr
          -38 -25 -34 -52 -23 vhcurveto
          -290 136 hlineto
          55 callgsubr
          208 hlineto
          -340 -365 rlineto
          108 hlineto
          262 293 rlineto
          -84 44 76 -44 87 -93 callsubr
          115 67 vlineto
          endchar
        </CharString>
        <CharString name="dvBH_VA">
          338 917 -22 callgsubr
          -618 -67 424 -57 callgsubr
          -92 -70 -51 -75 -26 hvcurveto
          -191 -63 callgsubr
          181 hlineto
          -121 1 93 -69 101 hhcurveto
          122 callsubr
          hvcurveto
          -166 -81 callgsubr
        </CharString>
        <CharString name="dvBH_YA">
          386 602 125 rmoveto
          74 57 26 43 31 31 callgsubr
          67 -667 -67 203 vlineto
          15 142 callsubr
          -45 -63 callgsubr
          45 145 callgsubr
          36 84 -56 105 hhcurveto
          8 67 rmoveto
          -80 -59 46 72 -17 hvcurveto
          80 23 68 55 -90 callsubr
          -241 172 callgsubr
        </CharString>
        <CharString name="dvB_BA">
          446 758 173 rmoveto
          -18 -26 233 callsubr
          -82 14 callsubr
          -171 -209 -62 callsubr
          864 263 rmoveto
          -1046 -67 852 21 callsubr
          -127 -92 -86 -122 -18 2 -17 4 -16 hvcurveto
          -9 -12 -10 -12 -12 -11 173 callsubr
          rcurveline
          -97 callgsubr
          89 65 38 52 49 hvcurveto
          -57 38 66 -33 72 hhcurveto
          81 64 36 46 34 hvcurveto
          -163 -81 callgsubr
        </CharString>
        <CharString name="dvB_BHA">
          377 375 170 -62 callsubr
          601 263 rmoveto
          -295 -196 178 213 callgsubr
          -468 -67 455 hlineto
          44 10 -23 -43 hvcurveto
          -165 vlineto
          -25 -5 -18 -22 -28 vvcurveto
          -14 4 -15 5 -16 vhcurveto
          -11 -15 -12 -15 -14 -13 173 callsubr
          rcurveline
          -97 callgsubr
          93 66 41 56 50 hvcurveto
          15 -34 rlineto
          69 137 196 -281 107 callsubr
        </CharString>
        <CharString name="dvB_BH_RA">
          374 375 170 -62 callsubr
          598 263 rmoveto
          -251 -196 134 213 callgsubr
          -465 -67 452 hlineto
          44 10 -23 -43 hvcurveto
          -121 vlineto
          -25 -6 -18 -21 -28 vvcurveto
          -22 10 -28 11 -26 vhcurveto
          -13 -19 -15 -20 -18 -17 173 callsubr
          rcurveline
          -97 callgsubr
          100 69 47 63 51 hvcurveto
          1 -3 rlineto
          97 callgsubr
        </CharString>
        <CharString name="dvB_DA">
          378 375 170 -62 callsubr
          676 29 rmoveto
          101 callsubr
          -978 -67 780 54 callgsubr
          -17 2 -17 4 -16 hvcurveto
          -6 -7 -7 -7 -7 -7 57 callsubr
          -53 34 61 -35 79 hhcurveto
          57 52 19 33 26 hvcurveto
          -73 callsubr
          endchar
        </CharString>
        <CharString name="dvB_DHA">
          463 375 170 -62 callsubr
          880 263 rmoveto
          -193 -344 160 callsubr
          -83 -49 40 53 60 50 36 81 vhcurveto
          59 67 -50 hlineto
          -73 -63 24 64 57 49 43 91 hvcurveto
          1 67 -694 -67 536 39 callsubr
          -68 -9 -53 -39 -6 -70 -9 -12 -10 -12 -12 -11 173 callsubr
          rcurveline
          -97 callgsubr
          82 61 32 46 47 hvcurveto
          -57 29 68 -38 96 hhcurveto
          93 68 45 48 31 hvcurveto
          -157 112 callsubr
        </CharString>
        <CharString name="dvB_DH_VA">
          826 375 170 -62 callsubr
          1244 263 rmoveto
          -558 -67 364 113 callsubr
          -23 hhcurveto
          -116 -81 -82 -109 -22 3 -19 5 -19 hvcurveto
          -54 -50 -65 -37 -87 -64 callsubr
          -694 -67 536 39 callsubr
          -68 -9 -53 -39 -6 -70 -9 -12 -10 -12 -12 -11 57 callsubr
          -57 29 68 -38 97 hhcurveto
          105 79 44 52 55 hvcurveto
          -45 37 57 -24 60 hhcurveto
          122 callsubr
          hvcurveto
          -166 -81 callgsubr
        </CharString>
        <CharString name="dvB_JA">
          478 375 170 rmoveto
          -18 -31 -34 -7 -34 -46 callsubr
          905 263 rmoveto
          -1087 -67 892 -132 -381 -53 callsubr
          198 -376 128 callgsubr
        </CharString>
        <CharString name="dvB_JHA">
          561 640 316 rmoveto
          -13 1 rlineto
          -79 6 -36 10 41 vvcurveto
          40 35 20 57 vhcurveto
          160 141 181 -259 hlineto
          -564 -166 rmoveto
          -12 -25 -28 -6 -32 hhcurveto
          -95 -70 59 89 37 10 32 19 24 hvcurveto
          979 269 rmoveto
          -1161 -67 708 -74 -87 hlineto
          -98 -68 -46 -83 -92 79 -23 102 -6 hvcurveto
          86 -6 33 -34 -46 vvcurveto
          -53 -38 -32 -56 -62 -60 42 56 -23 vhcurveto
          -69 hlineto
          -226 227 rlineto
          12 22 27 6 31 hhcurveto
          23 27 -4 -10 28 hvcurveto
          70 195 callgsubr
          -126 93 -86 135 54 46 13 24 40 hvcurveto
          -154 77 113 vlineto
          -32 36 52 -18 55 hhcurveto
          101 67 65 87 34 -10 28 -19 23 hvcurveto
          163 -252 79 575 115 hlineto
          endchar
        </CharString>
        <CharString name="dvB_J_YA">
          874 1258 82 callsubr
          -83 -42 54 72 -33 vhcurveto
          79 24 72 178 callsubr
          186 hlineto
          -883 -405 rmoveto
          -18 -31 -34 -7 -34 -46 callsubr
          1292 263 rmoveto
          -1474 -67 1010 hlineto
          15 -18 15 -30 -36 vvcurveto
          -57 -45 -36 -63 -19 vhcurveto
          36 -33 -53 28 -93 hhcurveto
          -242 -53 callsubr
          59 hlineto
          205 -95 -251 255 hhcurveto
          75 55 25 44 32 31 callgsubr
          vlineto
          endchar
        </CharString>
        <CharString name="dvB_JxA">
          478 546 -33 -104 callgsubr
          -171 203 rmoveto
          -18 -31 -34 -7 -34 -46 callsubr
          905 263 rmoveto
          -1087 -67 892 -132 -381 -53 callsubr
          198 -376 128 callgsubr
        </CharString>
        <CharString name="dvB_LA">
          564 375 170 -62 callsubr
          982 263 rmoveto
          -1164 -67 969 -113 hlineto
          -28 callgsubr
          -106 -66 -87 -119 -11 1 -11 1 -11 hvcurveto
          -8 -10 -9 -10 -10 -9 173 callsubr
          rcurveline
          -97 callgsubr
          80 60 30 44 47 hvcurveto
          -92 34 79 -63 109 -68 callgsubr
        </CharString>
        <CharString name="dvB_L_YA">
          950 1341 -105 callsubr
          -966 -405 -62 callsubr
          1374 263 rmoveto
          -1556 -67 1092 135 callgsubr
          -32 -38 -66 -22 vhcurveto
          47 -23 -43 35 -63 hhcurveto
          -66 -48 -32 -58 152 callgsubr
          -46 35 -73 hhcurveto
          -106 -66 -87 -119 -11 1 -11 1 -11 hvcurveto
          -8 -10 -9 -10 -10 -9 173 callsubr
          rcurveline
          -97 callgsubr
          80 60 30 45 47 hvcurveto
          -93 34 80 -63 108 hhcurveto
          11 16 1 2 11 hvcurveto
          25 callgsubr
        </CharString>
        <CharString name="dvB_NA">
          67 380 173 rmoveto
          -18 -27 -34 -10 207 callsubr
          477 263 rmoveto
          -667 57 callgsubr
          -116 84 -78 102 -11 hvcurveto
          -55 -31 rlineto
          -40 -23 -16 -26 -28 vvcurveto
          -47 43 -41 34 -20 vhcurveto
          50 31 rlineto
          -19 17 -22 25 26 vvcurveto
          13 6 14 13 9 vhcurveto
          156 114 22 14 18 16 13 18 rlinecurve
          -163 112 callsubr
        </CharString>
        <CharString name="dvB_R">
          -182 396 -22 callgsubr
          -418 -67 418 hlineto
          -18 -401 rmoveto
          -18 -27 -32 -11 207 callsubr
          289 -110 rmoveto
          -12 -23 -13 -20 -15 -18 -208 204 rcurveline
          11 21 27 6 30 hhcurveto
          22 27 -4 -9 29 hvcurveto
          69 195 callgsubr
          -118 90 -81 109 -4 hvcurveto
          -166 -149 rlineto
          108 hlineto
          295 266 rlineto
          endchar
        </CharString>
        <CharString name="dvB_RA">
          68 380 173 138 callsubr
          -668 57 callgsubr
          -118 90 -80 108 -5 hvcurveto
          -165 -149 rlineto
          108 hlineto
          248 225 rlineto
          -160 -81 callgsubr
        </CharString>
        <CharString name="dvB_SA">
          474 658 333 193 callgsubr
          -501 -166 rmoveto
          -14 -24 -31 -8 -38 hhcurveto
          -85 -69 54 87 37 10 32 19 24 hvcurveto
          912 263 rmoveto
          -1094 -67 629 -137 hlineto
          225 callgsubr
          -66 -51 hlineto
          -35 -9 -32 -18 -25 vhcurveto
          173 callsubr
          rlineto
          -94 callsubr
          96 -81 131 102 77 49 78 31 hvcurveto
          138 -208 48 callgsubr
        </CharString>
        <CharString name="dvB_SHA">
          530 417 -22 callgsubr
          -439 -67 439 hlineto
          -40 -407 rmoveto
          -15 -26 -33 -8 -35 hhcurveto
          -88 -64 54 87 37 10 32 19 24 hvcurveto
          421 63 66 callsubr
          -99 -36 hlineto
          -34 -11 -30 -20 -23 vhcurveto
          -216 212 -10 callgsubr
          96 87 43 79 36 hvcurveto
          178 -203 51 callgsubr
        </CharString>
        <CharString name="dvB_TA">
          408 375 170 -62 callsubr
          826 263 rmoveto
          -1008 -67 814 228 callsubr
          hvcurveto
          -1 vlineto
          -8 -9 -8 -9 -9 -9 173 callsubr
          rcurveline
          -97 callgsubr
          76 58 27 41 46 hvcurveto
          -89 26 73 -60 106 hhcurveto
          166 callsubr
          hvcurveto
          -79 callgsubr
        </CharString>
        <CharString name="dvB_VA">
          402 375 170 -62 callsubr
          820 263 rmoveto
          -1002 -67 808 79 callsubr
          -21 3 -19 5 -17 hvcurveto
          -7 -8 -8 -8 -8 -8 173 callsubr
          rcurveline
          -97 callgsubr
          86 62 34 50 48 hvcurveto
          -48 37 59 -26 62 hhcurveto
          122 callsubr
          hvcurveto
          -166 -81 callgsubr
        </CharString>
        <CharString name="dvB_YA">
          422 807 -105 callsubr
          -432 -405 -62 callsubr
          840 263 rmoveto
          -1022 -67 558 hlineto
          -70 callgsubr
          7 -51 15 -44 22 -36 -10 -12 -10 -12 -12 -11 173 callsubr
          rcurveline
          -97 callgsubr
          98 68 45 60 50 hvcurveto
          -40 42 55 -21 60 -93 callsubr
          115 vlineto
          endchar
        </CharString>
        <CharString name="dvC">
          -170 408 -22 callgsubr
          -430 -67 430 hlineto
          69 -295 rmoveto
          -57 -27 -71 -59 -87 -47 callsubr
          113 84 66 66 31 vhcurveto
          endchar
        </CharString>
        <CharString name="dvCA">
          78 656 -22 callgsubr
          -678 -67 484 69 callsubr
          160 vhcurveto
          67 -342 -67 142 vlineto
          -49 -24 -29 -42 -59 vvcurveto
          -103 82 -60 105 vhcurveto
          103 callsubr
        </CharString>
        <CharString name="dvCH">
          67 645 203 callsubr
          -667 -67 150 vlineto
          103 callgsubr
          101 -59 73 -120 147 callgsubr
          vhcurveto
          -84 callgsubr
          endchar
        </CharString>
        <CharString name="dvCHA">
          75 427 136 callgsubr
          -10 hhcurveto
          147 callgsubr
          hvcurveto
          -84 callgsubr
          204 hlineto
          226 hmoveto
          67 -675 -67 150 vlineto
          103 callgsubr
          66 -25 54 -51 29 vhcurveto
          117 vlineto
          endchar
        </CharString>
        <CharString name="dvCH_R">
          82 660 203 callsubr
          -682 -67 157 vlineto
          -19 callgsubr
          101 -59 73 -120 147 callgsubr
          vhcurveto
          -84 callgsubr
          endchar
        </CharString>
        <CharString name="dvCH_RA">
          82 435 136 callgsubr
          -11 hhcurveto
          147 callgsubr
          hvcurveto
          -84 callgsubr
          205 hlineto
          225 hmoveto
          67 -682 -67 157 vlineto
          -19 callgsubr
          66 -25 54 -51 29 vhcurveto
          117 vlineto
          endchar
        </CharString>
        <CharString name="dvCH_R_YA">
          644 1029 181 callgsubr
          -71 -51 40 60 -13 vhcurveto
          71 23 59 51 66 vvcurveto
          65 -46 55 -130 -49 -84 -13 -26 -55 vhcurveto
          21 -28 -38 11 -48 hhcurveto
          147 callgsubr
          hvcurveto
          -84 callgsubr
          799 hlineto
          198 67 rmoveto
          -1249 -67 157 hlineto
          -19 callgsubr
          34 -7 30 -13 26 vhcurveto
          17 48 54 10 43 hhcurveto
          54 42 -16 -38 -53 -59 -28 -85 -15 hvcurveto
          -149 18 94 -66 107 hhcurveto
          73 50 33 38 27 hvcurveto
          -132 77 575 121 vlineto
          endchar
        </CharString>
        <CharString name="dvCH_YA">
          632 1017 181 callgsubr
          163 callsubr
          -48 -82 -13 -24 -55 vhcurveto
          19 -28 -38 11 -46 hhcurveto
          147 callgsubr
          hvcurveto
          -84 callgsubr
          794 hlineto
          198 67 rmoveto
          -1237 -67 150 hlineto
          103 callgsubr
          34 -7 31 -13 26 vhcurveto
          16 46 53 10 41 171 callgsubr
          108 hhcurveto
          73 165 callsubr
          120 vlineto
          endchar
        </CharString>
        <CharString name="dvC_CA">
          442 1020 -22 callgsubr
          -1042 -67 848 69 callsubr
          160 vhcurveto
          67 -312 -67 112 vlineto
          -48 -24 -29 -42 -59 -5 0 -4 -5 vvcurveto
          -45 -34 -60 -39 -71 -47 callsubr
          83 67 36 45 42 vhcurveto
          -52 31 61 -29 73 hhcurveto
          103 callsubr
        </CharString>
        <CharString name="dvC_CHA">
          471 823 136 callgsubr
          -10 hhcurveto
          147 callgsubr
          hvcurveto
          -84 callgsubr
          204 hlineto
          226 hmoveto
          67 -1071 -67 546 vlineto
          19 callgsubr
          -55 -6 -41 -34 -13 -52 rrcurveto
          -47 -29 -66 -49 -78 -47 callsubr
          78 64 31 42 42 vhcurveto
          -74 28 86 -41 108 hhcurveto
          137 callgsubr
          66 -25 54 -51 29 hvcurveto
          117 vlineto
          endchar
        </CharString>
        <CharString name="dvC_CH_VA">
          482 851 136 callgsubr
          -11 hhcurveto
          147 callgsubr
          hvcurveto
          -65 vlineto
          4 9 19 3 15 hhcurveto
          76 36 -43 -65 -102 -92 -70 -118 -103 -76 38 69 47 41 34 69 hvcurveto
          38 67 -30 hlineto
          -53 -47 25 59 41 20 35 41 22 hvcurveto
          241 hlineto
          -6 -568 rmoveto
          -81 -54 -79 -98 -72 -52 40 74 72 54 39 78 vhcurveto
          0 9 vlineto
          48 46 10 18 41 hvcurveto
          215 475 rmoveto
          67 -1082 -67 537 vlineto
          -31 -25 -14 -36 -37 vvcurveto
          -72 53 -37 42 -7 vhcurveto
          -60 -7 -53 -44 -68 vvcurveto
          0 vlineto
          -41 -33 -59 -37 -68 -47 callsubr
          78 65 32 41 42 vhcurveto
          20 -33 33 -25 44 -17 rrcurveto
          -48 -29 -30 -49 -58 vvcurveto
          -116 94 -62 101 78 53 35 44 29 vhcurveto
          -166 77 453 vlineto
          47 42 30 57 64 vvcurveto
          66 -25 53 -51 28 vhcurveto
          116 vlineto
          endchar
        </CharString>
        <CharString name="dvC_MA">
          391 776 -21 callsubr
          193 67 rmoveto
          -991 -67 510 -232 hlineto
          -25 -6 -17 -20 -27 vvcurveto
          -13 4 -15 5 -17 vhcurveto
          -44 -35 -59 -37 -69 -47 callsubr
          85 68 37 46 42 vhcurveto
          17 -38 rlineto
          77 callgsubr
        </CharString>
        <CharString name="dvC_NA">
          86 664 -22 callgsubr
          -686 -67 492 69 callsubr
          159 vhcurveto
          183 callgsubr
          -49 -24 -29 -42 -59 vvcurveto
          -91 64 -57 87 -12 vhcurveto
          -76 -43 rlineto
          -31 -18 -15 -23 -27 vvcurveto
          -49 46 -43 35 -24 vhcurveto
          51 35 rlineto
          -20 18 -26 34 27 vvcurveto
          14 7 9 12 8 vhcurveto
          172 108 29 17 21 22 14 23 rlinecurve
          -190 -81 callgsubr
        </CharString>
        <CharString name="dvC_R">
          -139 439 -22 callgsubr
          -461 -67 461 hlineto
          56 -273 rmoveto
          -70 -40 -74 -68 -89 hhcurveto
          -69 -49 35 67 58 40 63 159 hvcurveto
          183 callgsubr
          -49 -24 -29 -42 -59 vvcurveto
          -98 75 -58 95 -5 vhcurveto
          -171 -146 rlineto
          112 hlineto
          327 276 rlineto
          endchar
        </CharString>
        <CharString name="dvC_RA">
          82 660 -22 callgsubr
          -682 -67 488 -262 hlineto
          -67 -63 -82 -111 -69 -49 35 67 58 40 63 159 vhcurveto
          183 callgsubr
          -49 -24 -29 -42 -59 vvcurveto
          -97 73 -57 95 -7 vhcurveto
          -171 -146 214 callsubr
          263 223 rlineto
          -178 -81 callgsubr
        </CharString>
        <CharString name="dvC_YA">
          452 837 -105 callsubr
          193 67 rmoveto
          -1052 -67 588 hlineto
          -70 callgsubr
          5 -41 11 -36 15 -31 rrcurveto
          -49 -33 -64 -46 -76 -47 callsubr
          99 76 50 57 39 vhcurveto
          -53 44 62 -28 69 -93 callsubr
          115 vlineto
          endchar
        </CharString>
        <CharString name="dvCandrabindu">
          40 callgsubr
        </CharString>
        <CharString name="dvD">
          -6 611 -243 39 callgsubr
          -536 885 32 callgsubr
        </CharString>
        <CharString name="dvDA">
          -6 -22 642 32 callgsubr
        </CharString>
        <CharString name="dvDA_mvR">
          -71 381 575 rmoveto
          126 67 -529 -67 326 -84 hlineto
          2 -19 -21 1 -20 hhcurveto
          -105 -63 -51 -71 -63 43 -36 62 -7 hvcurveto
          -69 -10 -41 -45 -64 vvcurveto
          -87 87 -47 111 62 64 19 22 36 vhcurveto
          74 vlineto
          -28 -39 -62 -22 -61 hhcurveto
          -67 -53 22 51 51 44 31 75 hvcurveto
          62 68 -60 hlineto
          -75 -40 24 43 43 40 22 65 1 hvcurveto
          31 59 -5 -11 31 hvcurveto
          endchar
        </CharString>
        <CharString name="dvDD">
          -35 222 -68 -16 callgsubr
          97 492 105 callgsubr
          -565 -67 343 -84 -99 vlineto
          -89 -71 -43 -89 -87 67 -40 117 -5 hvcurveto
          -52 callsubr
        </CharString>
        <CharString name="dvDDA">
          -35 399 424 105 callgsubr
          -565 -67 343 -84 -99 vlineto
          -89 -71 -43 -89 -87 67 -40 117 -5 hvcurveto
          -52 callsubr
        </CharString>
        <CharString name="dvDDH">
          0 482 -212 39 callgsubr
          -119 424 -54 callgsubr
          endchar
        </CharString>
        <CharString name="dvDDHA">
          0 266 212 -54 callgsubr
          endchar
        </CharString>
        <CharString name="dvDDH_DDHA">
          5 441 575 rmoveto
          142 67 -605 -67 385 -76 hlineto
          1 -16 -17 1 -16 hhcurveto
          -143 -1 -107 -75 -114 vvcurveto
          -83 53 -53 68 -28 vhcurveto
          -77 -32 -39 -60 -63 vvcurveto
          -117 114 -65 127 115 97 54 84 66 -58 38 -88 -36 -43 -12 -14 -26 vhcurveto
          -65 vlineto
          15 23 43 13 37 hhcurveto
          43 27 -15 -32 -41 -58 -26 -75 -95 -68 46 73 74 63 44 98 11 hvcurveto
          5 hlineto
          104 96 48 80 68 -57 42 -89 -43 -35 -10 -13 -26 hvcurveto
          87 callgsubr
        </CharString>
        <CharString name="dvDDH_R">
          1 255 -186 -16 callgsubr
          97 761 -19 callsubr
        </CharString>
        <CharString name="dvDDH_RA">
          1 432 575 -19 callsubr
        </CharString>
        <CharString name="dvDDH_VA">
          5 314 123 rmoveto
          28 28 4 6 25 hvcurveto
          -74 vlineto
          -92 -50 189 callsubr
          134 452 rmoveto
          142 67 -605 -67 385 -76 hlineto
          1 -16 -17 1 -16 hhcurveto
          -143 -1 -107 -75 -114 vvcurveto
          -79 48 -52 63 -29 vhcurveto
          -57 -26 -37 -49 -64 vvcurveto
          -103 85 -58 96 57 48 22 39 28 vhcurveto
          -130 76 387 vlineto
          27 21 16 28 33 vvcurveto
          68 -57 42 -89 -43 -35 -10 -13 -26 vhcurveto
          87 callgsubr
        </CharString>
        <CharString name="dvDDH_YA">
          538 594 422 rmoveto
          59 45 -15 -40 -53 -60 -26 -84 -15 hvcurveto
          -148 18 93 -64 108 hhcurveto
          72 53 33 38 24 212 callgsubr
          117 67 -1139 -67 375 -101 vlineto
          -178 -19 -121 -77 -141 vvcurveto
          -132 110 -84 136 69 callgsubr
          -65 vlineto
          12 20 32 11 33 hhcurveto
          45 28 -25 -36 -56 -54 -32 -69 -95 -72 60 92 131 147 36 166 12 hvcurveto
          4 51 52 1 44 hhcurveto
          -162 153 rmoveto
          490 -297 hlineto
          -80 -50 -68 -92 -70 -51 37 61 -14 vhcurveto
          72 22 59 50 65 vvcurveto
          69 -50 53 -131 -42 -65 -1 -5 -56 vhcurveto
          endchar
        </CharString>
        <CharString name="dvDDHxA">
          0 266 212 -54 callgsubr
          -19 -405 88 callsubr
          endchar
        </CharString>
        <CharString name="dvDD_DDA">
          -5 424 444 rmoveto
          131 149 67 -595 -67 368 -65 -117 vlineto
          -94 -75 -31 -84 -57 46 -49 106 hvcurveto
          33 41 7 48 hhcurveto
          43 24 -19 198 callgsubr
          17 -9 22 -8 24 -7 rrcurveto
          -31 -16 -18 -31 -31 vvcurveto
          -60 50 -43 98 vhcurveto
          28 53 8 38 hhcurveto
          44 22 -19 -28 -44 -54 -23 -71 -74 -88 22 33 -52 hvcurveto
          -77 vlineto
          -29 55 86 -14 71 hhcurveto
          129 76 53 85 59 -46 47 -85 1 hvcurveto
          -43 -52 -7 -26 hhcurveto
          -62 -16 19 24 29 24 19 39 5 hvcurveto
          -1 16 16 -1 15 hhcurveto
          133 79 46 84 1 hvcurveto
          63 -43 48 -83 vhcurveto
          -52 -38 -5 -29 hhcurveto
          -76 -17 20 23 33 30 14 63 hvcurveto
          endchar
        </CharString>
        <CharString name="dvDD_DDHA">
          -2 435 444 rmoveto
          131 141 67 -598 -67 379 -65 -117 vlineto
          -92 -77 -31 -84 -58 48 -49 96 hvcurveto
          35 43 7 51 hhcurveto
          43 25 -18 198 callgsubr
          23 -12 31 -11 34 -7 rrcurveto
          -59 -32 -34 -52 -62 vvcurveto
          -115 102 -67 126 115 90 54 84 67 -59 37 -84 -34 -41 -12 -14 -26 vhcurveto
          -65 vlineto
          14 20 41 14 35 hhcurveto
          44 27 -15 -32 -41 -52 -26 -75 -95 -53 46 71 76 58 45 100 12 hvcurveto
          115 7 70 46 77 vvcurveto
          62 -43 50 -92 vhcurveto
          -51 -53 -7 -26 hhcurveto
          -59 -15 21 22 33 33 14 59 hvcurveto
          endchar
        </CharString>
        <CharString name="dvDD_R">
          -34 214 -208 -16 callgsubr
          106 632 -16 callsubr
        </CharString>
        <CharString name="dvDD_RA">
          -34 400 424 -16 callsubr
        </CharString>
        <CharString name="dvDD_VA">
          -6 370 40 rmoveto
          -84 -36 -66 -91 -57 -46 36 63 62 39 47 75 5 vhcurveto
          -1 8 9 0 8 hhcurveto
          30 32 3 7 29 hvcurveto
          75 332 rmoveto
          131 127 67 -594 -67 389 -65 -127 vlineto
          -94 -75 -39 -84 -58 45 -49 103 hvcurveto
          34 37 8 50 hhcurveto
          44 30 -18 -35 hvcurveto
          -50 -2 -57 -17 -77 hhcurveto
          -64 -93 25 30 -49 hvcurveto
          -77 vlineto
          19 -10 24 -9 27 -7 rrcurveto
          -50 -25 -31 -46 -61 vvcurveto
          -99 79 -63 98 60 45 26 38 27 vhcurveto
          -121 77 378 vlineto
          28 22 18 30 42 vvcurveto
          64 -50 48 -86 vhcurveto
          -65 -41 -6 -31 hhcurveto
          -53 -15 21 26 32 32 18 61 hvcurveto
          endchar
        </CharString>
        <CharString name="dvDD_YA">
          502 887 278 rmoveto
          -77 -51 -71 -91 -69 -52 38 60 -14 vhcurveto
          73 21 57 51 64 vvcurveto
          75 -52 49 -132 vhcurveto
          -154 87 485 hlineto
          193 67 rmoveto
          -1102 -67 346 -86 -99 hlineto
          -89 -70 -43 -89 -83 63 -51 81 -3 hvcurveto
          88 7 rlineto
          50 31 -28 -45 -61 -52 -28 -73 -65 -74 24 31 -48 hvcurveto
          -77 vlineto
          -26 49 67 -18 73 hhcurveto
          119 83 61 94 1 hvcurveto
          80 -49 58 -101 1 vhcurveto
          -88 -6 rlineto
          -45 1 -31 25 46 vvcurveto
          47 43 16 41 vhcurveto
          327 hlineto
          69 37 -19 -38 -52 -59 -25 -85 -13 hvcurveto
          -146 19 94 -68 106 hhcurveto
          73 52 33 38 25 hvcurveto
          -132 172 callsubr
        </CharString>
        <CharString name="dvDDxA">
          -35 248 -83 -104 callgsubr
          151 507 105 callgsubr
          -565 -67 343 -84 -99 vlineto
          -89 -71 -43 -89 -87 67 -40 117 -5 hvcurveto
          -52 callsubr
        </CharString>
        <CharString name="dvDH">
          -130 512 263 rmoveto
          -75 -53 -75 -57 -107 -56 callsubr
          135 93 73 69 53 vhcurveto
          endchar
        </CharString>
        <CharString name="dvDHA">
          78 656 12 callgsubr
          -310 -67 152 hlineto
          -35 callsubr
          78 -70 130 93 68 45 48 31 vhcurveto
          -157 112 callsubr
        </CharString>
        <CharString name="dvDH_MA">
          418 803 347 rmoveto
          -210 228 210 hlineto
          -377 67 rmoveto
          -67 89 -231 vlineto
          -25 -6 -17 -21 -28 vvcurveto
          -17 6 -20 8 -21 vhcurveto
          -59 -51 -68 -41 -91 -56 callsubr
          107 81 46 53 55 vhcurveto
          9 -20 rlineto
          68 135 210 -278 107 callsubr
        </CharString>
        <CharString name="dvDH_NA">
          86 664 -22 callgsubr
          -194 -326 hlineto
          -78 -68 -89 -120 -84 -48 33 55 54 53 35 79 vhcurveto
          -2 callsubr
          23 16 18 19 12 19 rrcurveto
          -175 -81 callgsubr
        </CharString>
        <CharString name="dvDH_N_YA">
          457 842 38 callsubr
          -413 67 rmoveto
          -67 142 -25 callsubr
          6 -45 12 -39 18 -32 rrcurveto
          -54 -49 -61 -48 -83 hhcurveto
          -84 -48 33 55 54 53 35 79 hvcurveto
          -2 callsubr
          36 21 31 27 28 28 rrcurveto
          -47 44 59 -25 65 -93 callsubr
          115 67 vlineto
          endchar
        </CharString>
        <CharString name="dvDH_R">
          -114 516 299 rmoveto
          -86 -66 -76 -64 -94 hhcurveto
          200 callgsubr
          hvcurveto
          65 callsubr
          -91 78 -56 120 -2 vhcurveto
          -160 -129 rlineto
          114 hlineto
          345 286 rlineto
          endchar
        </CharString>
        <CharString name="dvDH_RA">
          84 662 -22 callgsubr
          -194 -326 160 callsubr
          200 callgsubr
          vhcurveto
          65 callsubr
          -86 72 -58 117 -5 vhcurveto
          -155 -129 rlineto
          111 hlineto
          254 211 rlineto
          -166 -81 callgsubr
        </CharString>
        <CharString name="dvDH_VA">
          446 1024 -22 callgsubr
          -558 -67 364 113 callsubr
          -23 hhcurveto
          -116 -81 -82 -109 -20 3 -19 4 -17 hvcurveto
          -56 -50 -67 -39 -88 -56 callsubr
          106 80 45 53 56 vhcurveto
          -46 36 58 -25 61 hhcurveto
          122 callsubr
          hvcurveto
          -166 -81 callgsubr
        </CharString>
        <CharString name="dvDH_YA">
          465 849 334 -12 callgsubr
          -420 67 rmoveto
          -67 150 192 callgsubr
          7 -52 15 -44 22 -36 rrcurveto
          -61 -52 -69 -43 -93 -56 callsubr
          120 86 57 61 55 vhcurveto
          -38 42 53 -19 58 -44 callgsubr
          67 vlineto
          endchar
        </CharString>
        <CharString name="dvD_BA">
          22 415 110 callsubr
          -213 rmoveto
          -17 -24 -28 -8 -26 hhcurveto
          -61 -48 33 57 28 11 24 19 204 callsubr
          -622 -67 427 -101 -105 vlineto
          -145 -89 -83 -115 -71 35 -63 65 -32 hvcurveto
          -47 -27 -24 -46 -53 vvcurveto
          -88 78 -60 95 52 49 20 34 33 vhcurveto
          1 -1 12 14 rlineto
          -100 77 464 -74 vlineto
          -68 -3 -52 -47 -81 hhcurveto
          -78 -54 47 80 84 64 45 92 hvcurveto
          endchar
        </CharString>
        <CharString name="dvD_BHA">
          144 601 408 rmoveto
          167 121 67 -744 -67 545 179 callsubr
          -89 51 -75 86 -27 hvcurveto
          -110 -59 -37 72 rlineto
          44 -22 -29 23 -40 hhcurveto
          -40 -41 -25 -32 -23 hvcurveto
          30 -54 rlineto
          17 14 24 21 22 hhcurveto
          21 11 -14 -27 13 hvcurveto
          32 -63 rlineto
          -10 -10 -6 -12 -13 vvcurveto
          -35 55 -36 50 -36 vhcurveto
          53 29 -48 95 209 112 33 8 28 16 17 21 rlinecurve
          126 callgsubr
        </CharString>
        <CharString name="dvD_B_RA">
          19 412 110 callsubr
          -214 rmoveto
          -16 -24 -28 -8 -27 hhcurveto
          -60 -48 33 57 28 10 24 20 204 callsubr
          -619 -67 424 -101 -106 vlineto
          -145 -88 -83 -115 -71 34 -63 66 -32 hvcurveto
          -47 -27 -24 -46 -53 vvcurveto
          -77 60 -56 79 -12 vhcurveto
          -126 -97 rlineto
          104 hlineto
          163 127 rlineto
          -1 hlineto
          9 7 9 7 8 8 2 -2 rcurveline
          13 14 rlineto
          -100 77 464 -75 vlineto
          -68 -2 -52 -47 -81 hhcurveto
          -78 -55 47 80 84 65 45 92 hvcurveto
          endchar
        </CharString>
        <CharString name="dvD_DA">
          -36 418 575 rmoveto
          124 67 -564 -67 362 -77 hlineto
          4 -24 -26 2 -27 hhcurveto
          -117 -72 -49 -79 -59 39 -39 61 -4 hvcurveto
          -60 -8 -42 -50 -59 vvcurveto
          -85 72 -50 87 57 58 27 38 24 vhcurveto
          -104 77 222 -75 vlineto
          -80 -15 -56 -38 -61 hhcurveto
          -55 -34 29 46 47 41 34 68 hvcurveto
          47 68 -51 hlineto
          -59 -41 18 44 42 46 24 69 51 56 -9 -14 40 hvcurveto
          endchar
        </CharString>
        <CharString name="dvD_DHA">
          175 290 122 rmoveto
          24 -21 29 -16 35 -8 rrcurveto
          -77 -14 -42 -44 -47 hhcurveto
          -31 -23 22 33 39 24 34 27 23 hvcurveto
          360 301 rmoveto
          167 121 67 -775 -67 576 179 callsubr
          -36 9 -35 16 -29 hvcurveto
          -15 -12 rlineto
          -16 -20 -30 -7 -22 hhcurveto
          -30 -22 15 29 54 53 9 1 77 hvcurveto
          -67 22 rlineto
          -84 -63 -19 -65 vvcurveto
          -63 49 -33 56 15 17 3 6 15 vhcurveto
          -23 -22 -11 -32 -34 vvcurveto
          -66 54 -40 61 76 74 57 120 23 vhcurveto
          54 2 48 19 25 31 rrcurveto
          126 callgsubr
        </CharString>
        <CharString name="dvD_GA">
          2 460 408 rmoveto
          101 callsubr
          -602 -67 404 179 callsubr
          -91 53 -76 89 -25 hvcurveto
          -79 vlineto
          -45 -11 -16 -39 -30 -27 14 0 vhcurveto
          -67 vlineto
          -7 16 23 -6 30 hhcurveto
          75 38 42 78 hvcurveto
          77 vlineto
          53 2 49 19 24 31 rrcurveto
          -133 77 264 -75 vlineto
          -68 -2 -50 -50 -80 hhcurveto
          -77 171 callsubr
        </CharString>
        <CharString name="dvD_GHA">
          162 273 125 rmoveto
          24 -22 30 -17 35 -8 rrcurveto
          -75 -14 -41 -42 -48 hhcurveto
          -31 -22 21 33 39 24 34 26 23 hvcurveto
          -43 161 rmoveto
          -35 8 -32 14 -29 vhcurveto
          -15 -12 rlineto
          -15 -18 -25 -8 -23 hhcurveto
          -32 -29 16 38 50 58 31 62 3 hvcurveto
          406 129 rmoveto
          167 121 67 -762 -67 562 -101 -104 vlineto
          -115 -72 -54 -80 -26 hvcurveto
          -3 hlineto
          -91 -111 -51 -104 -65 51 -37 57 15 16 3 6 16 hvcurveto
          -24 -22 -10 -32 -33 vvcurveto
          -67 53 -40 62 75 73 56 117 24 vhcurveto
          54 1 50 19 25 32 rrcurveto
          -133 78 264 -75 vlineto
          -68 -2 -51 -50 -79 hhcurveto
          -78 171 callsubr
        </CharString>
        <CharString name="dvD_G_RA">
          42 462 408 rmoveto
          167 158 67 -642 -67 406 54 callgsubr
          -87 49 -74 83 -28 hvcurveto
          -81 vlineto
          -44 -11 -16 -38 -30 -27 14 0 vhcurveto
          -67 vlineto
          -6 16 23 -6 29 hhcurveto
          75 37 41 77 hvcurveto
          75 7 vlineto
          35 31 7 12 26 hvcurveto
          -138 vlineto
          -235 -185 rlineto
          105 hlineto
          130 105 rlineto
          -84 74 370 vlineto
          63 -167 rlineto
          78 hlineto
          -102 264 rlineto
          -71 hlineto
          -68 -2 -50 -50 -81 hhcurveto
          -79 -51 51 88 84 56 49 90 hvcurveto
          endchar
        </CharString>
        <CharString name="dvD_MA">
          175 559 121 rmoveto
          -158 196 -74 hlineto
          -58 -4 -52 -40 -58 hhcurveto
          -59 -44 36 61 71 55 35 89 hvcurveto
          147 153 158 hlineto
          75 callgsubr
          -775 -67 345 -87 -76 hlineto
          -135 -81 -66 -106 -101 74 -64 96 56 46 24 32 20 hvcurveto
          -89 vlineto
          -25 -5 -18 -22 -27 vvcurveto
          -29 24 -44 29 -51 vhcurveto
          68 113 158 -191 78 713 116 hlineto
          endchar
        </CharString>
        <CharString name="dvD_NA">
          4 462 408 rmoveto
          101 callsubr
          -604 -67 406 54 callgsubr
          -99 63 -82 103 -17 hvcurveto
          -76 -44 rlineto
          -38 -24 -18 -23 -31 vvcurveto
          -40 33 -41 43 -28 vhcurveto
          51 32 rlineto
          -21 19 -20 25 25 vvcurveto
          17 10 12 13 9 vhcurveto
          174 118 rlineto
          0 vlineto
          10 7 8 7 7 9 rrcurveto
          -73 callsubr
          endchar
        </CharString>
        <CharString name="dvD_R">
          -1 499 -289 39 callgsubr
          -424 931 22 callgsubr
        </CharString>
        <CharString name="dvD_RA">
          -1 -22 642 22 callgsubr
        </CharString>
        <CharString name="dvD_VA">
          3 396 85 callsubr
          -603 -67 404 -101 -97 vlineto
          -145 -86 -83 -115 -72 34 -63 66 -33 hvcurveto
          66 callgsubr
        </CharString>
        <CharString name="dvD_YA">
          99 483 300 rmoveto
          -109 -100 -62 -107 -70 -56 21 47 53 62 14 70 vhcurveto
          43 68 -43 hlineto
          -77 -48 19 44 37 31 24 61 30 39 -5 -11 33 hvcurveto
          135 132 63 callsubr
          -699 -67 295 -63 hlineto
          1 -12 -13 1 -14 hhcurveto
          -98 -59 -51 -67 -63 55 -30 55 -5 hvcurveto
          -56 -2 -59 -35 -64 vvcurveto
          -90 97 -44 103 101 79 46 47 31 vhcurveto
          -156 -81 callgsubr
        </CharString>
        <CharString name="dvE">
          -1 577 -22 callgsubr
          -599 -43 callsubr
        </CharString>
        <CharString name="dvEcandra">
          -1 395 896 rmoveto
          -53 -34 -42 -67 104 callgsubr
          94 84 52 105 vhcurveto
          105 -254 rmoveto
          -599 -43 callsubr
        </CharString>
        <CharString name="dvEight">
          -16 268 62 rmoveto
          -91 -43 50 56 62 38 56 96 4 hvcurveto
          99 -3 40 -52 -58 vvcurveto
          -60 -45 -55 -94 vhcurveto
          -1 529 rmoveto
          85 39 -54 -60 -76 -53 -38 -67 -70 -56 33 79 60 43 56 79 hvcurveto
          101 -263 rmoveto
          64 26 39 52 68 vvcurveto
          127 -101 60 -103 -102 -101 -66 -122 -72 40 -51 65 -24 vhcurveto
          -70 -24 -46 -54 -84 vvcurveto
          -108 95 -64 119 122 98 67 110 88 -48 49 -71 22 vhcurveto
          endchar
        </CharString>
        <CharString name="dvEyelash">
          -362 11 375 rmoveto
          -72 vlineto
          -17 30 41 -11 54 hhcurveto
          71 58 22 20 38 hvcurveto
          -19 66 rlineto
          -23 -40 -54 -20 -56 hhcurveto
          -59 -40 18 17 -24 hvcurveto
          205 200 rmoveto
          67 -238 -67 vlineto
          endchar
        </CharString>
        <CharString name="dvEyelash_HA">
          169 635 138 callgsubr
          112 67 -769 -67 579 -92 -175 vlineto
          -69 -54 -34 -66 -5 0 -4 1 -5 hvcurveto
          -16 -36 -44 -13 -44 hhcurveto
          -59 -42 18 17 -24 hvcurveto
          -72 vlineto
          -17 30 43 -11 54 hhcurveto
          59 51 15 16 36 hvcurveto
          13 -17 16 -13 13 -9 rrcurveto
          -41 -30 -22 -44 -44 vvcurveto
          -86 79 -94 167 39 40 4 13 52 vhcurveto
          67 vlineto
          -12 -43 -46 -6 -36 hhcurveto
          -124 -50 51 62 51 47 48 94 68 28 -34 -39 -16 -3 -21 -11 -15 hvcurveto
          78 hlineto
          8 17 2 21 18 vvcurveto
          67 -53 67 -116 -37 -33 -5 -10 -28 vhcurveto
          -21 11 -26 26 39 117 callsubr
          endchar
        </CharString>
        <CharString name="dvEyelash_YA">
          247 632 38 callsubr
          193 67 rmoveto
          -847 -67 383 hlineto
          -4 callsubr
          -55 -45 -108 -21 vhcurveto
          0 vlineto
          -5 -26 -27 -3 -27 hhcurveto
          -50 -49 10 23 -39 hvcurveto
          -71 vlineto
          -19 36 51 -9 51 hhcurveto
          35 34 4 7 25 hvcurveto
          -117 36 88 -59 103 -93 callsubr
          115 vlineto
          endchar
        </CharString>
        <CharString name="dvFive">
          -28 179 27 callgsubr
        </CharString>
        <CharString name="dvFour">
          15 135 76 callsubr
        </CharString>
        <CharString name="dvG">
          -252 326 -22 callgsubr
          -348 -99 callsubr
          98 vlineto
          endchar
        </CharString>
        <CharString name="dvGA">
          18 226 callgsubr
          173 -231 -14 callgsubr
          67 vlineto
          endchar
        </CharString>
        <CharString name="dvGH">
          -193 434 233 rmoveto
          -49 -38 -63 -25 -63 hhcurveto
          -60 -61 25 62 60 47 33 74 hvcurveto
          59 68 -48 hlineto
          127 callgsubr
          174 67 -407 -67 140 hlineto
          -6 callgsubr
          82 74 34 51 45 vhcurveto
          endchar
        </CharString>
        <CharString name="dvGHA">
          86 471 67 callsubr
          127 callgsubr
          260 hlineto
          193 67 rmoveto
          -686 -67 140 hlineto
          -6 callgsubr
          93 76 43 50 38 vhcurveto
          -186 172 callsubr
        </CharString>
        <CharString name="dvGH_MA">
          358 743 -21 callsubr
          -414 -236 rmoveto
          68 -48 vlineto
          127 callgsubr
          244 -232 hlineto
          -25 -6 -17 -20 -27 vvcurveto
          -18 7 -22 9 -23 vhcurveto
          -45 -38 -61 -23 -60 hhcurveto
          -60 -61 25 62 60 47 33 74 hvcurveto
          666 303 rmoveto
          -958 -67 140 hlineto
          -6 callgsubr
          76 69 29 45 46 vhcurveto
          10 -23 rlineto
          77 callgsubr
        </CharString>
        <CharString name="dvGH_NA">
          90 475 67 callsubr
          -68 -58 23 59 38 20 28 37 20 hvcurveto
          259 hlineto
          193 67 rmoveto
          -690 -67 144 224 callsubr
          -69 58 -37 53 -6 vhcurveto
          -67 -10 -50 -45 -71 vvcurveto
          -86 66 -56 98 -10 vhcurveto
          -71 -40 rlineto
          -31 -20 -14 -21 -27 vvcurveto
          -49 50 -46 38 -21 vhcurveto
          51 34 rlineto
          -24 23 -27 30 26 vvcurveto
          14 6 12 16 9 vhcurveto
          167 106 32 17 26 22 18 23 rlinecurve
          -186 172 callsubr
        </CharString>
        <CharString name="dvGH_R">
          -147 494 310 rmoveto
          -67 -31 -81 -84 -107 hhcurveto
          -59 -62 25 62 60 47 33 74 hvcurveto
          190 callsubr
          214 67 -453 85 callgsubr
          110 hlineto
          314 272 rlineto
          endchar
        </CharString>
        <CharString name="dvGH_RA">
          91 476 330 rmoveto
          -91 -87 -80 -114 -59 -62 25 62 60 47 33 74 vhcurveto
          190 callsubr
          259 hlineto
          193 67 rmoveto
          -691 85 callgsubr
          106 hlineto
          259 228 rlineto
          -183 172 callsubr
        </CharString>
        <CharString name="dvGH_YA">
          424 808 -105 callsubr
          -479 -236 rmoveto
          68 -48 vlineto
          127 callgsubr
          326 hlineto
          -70 callgsubr
          6 -49 14 -41 20 -35 rrcurveto
          -51 -44 -58 -32 -73 hhcurveto
          -60 -61 25 62 60 47 33 74 hvcurveto
          731 303 rmoveto
          -1023 -67 140 hlineto
          -6 callgsubr
          95 72 41 59 51 vhcurveto
          -45 43 58 -23 63 -93 callsubr
          115 vlineto
          endchar
        </CharString>
        <CharString name="dvG_BA">
          344 657 173 -37 callgsubr
          -945 -99 callsubr
          501 -269 vlineto
          29 callgsubr
        </CharString>
        <CharString name="dvG_BHA">
          289 674 -22 callgsubr
          -295 -197 178 vlineto
          17 callgsubr
          197 -281 77 64 callsubr
        </CharString>
        <CharString name="dvG_BH_YA">
          670 1055 70 callsubr
          -80 -59 46 72 -16 vhcurveto
          79 23 69 55 94 73 callgsubr
          -434 67 rmoveto
          -67 163 vlineto
          16 -19 15 -30 -39 vvcurveto
          -130 -190 -10 -102 vhcurveto
          -46 178 hlineto
          17 callgsubr
          46 145 callgsubr
          35 84 -56 106 -93 callsubr
          115 67 vlineto
          endchar
        </CharString>
        <CharString name="dvG_DA">
          300 758 408 rmoveto
          101 callsubr
          -900 -67 173 -231 vlineto
          -92 callsubr
          452 54 callgsubr
          60 callsubr
          hvcurveto
          -73 callsubr
          endchar
        </CharString>
        <CharString name="dvG_DHA">
          359 937 12 callgsubr
          -591 -99 callsubr
          183 vlineto
          -35 callsubr
          78 -70 130 93 68 45 48 31 vhcurveto
          -157 112 callsubr
        </CharString>
        <CharString name="dvG_DH_VA">
          750 1328 -22 callgsubr
          -552 -67 358 107 callgsubr
          -117 151 callsubr
          -24 4 -22 6 -20 hvcurveto
          -51 -49 -64 -34 -83 -64 callsubr
          -626 -99 callsubr
          218 vlineto
          -23 callgsubr
          102 78 42 50 55 vhcurveto
          -42 37 55 -23 58 hhcurveto
          122 callsubr
          hvcurveto
          -166 -81 callgsubr
        </CharString>
        <CharString name="dvG_DH_YA">
          760 1144 334 -12 callgsubr
          -402 67 rmoveto
          -67 132 192 callgsubr
          7 -59 19 -49 27 -37 rrcurveto
          -54 -50 -66 -37 -86 -64 callsubr
          -626 -99 callsubr
          218 vlineto
          -23 callgsubr
          113 84 51 57 55 vhcurveto
          -31 40 48 -16 53 -44 callgsubr
          67 vlineto
          endchar
        </CharString>
        <CharString name="dvG_GA">
          322 900 -22 callgsubr
          -922 -99 callsubr
          227 -231 -14 callgsubr
          vlineto
          endchar
        </CharString>
        <CharString name="dvG_GHA">
          376 762 67 callsubr
          127 callgsubr
          260 hlineto
          193 67 rmoveto
          -977 -99 callsubr
          181 vlineto
          -6 callgsubr
          93 76 43 50 38 vhcurveto
          -186 172 callsubr
        </CharString>
        <CharString name="dvG_JA">
          406 984 -22 callgsubr
          -1006 -99 callsubr
          562 -13 callgsubr
          hlineto
          endchar
        </CharString>
        <CharString name="dvG_LA">
          477 1054 -22 callgsubr
          -1076 -99 callsubr
          631 -113 vlineto
          6 -15 -21 5 -24 hhcurveto
          -75 -50 -34 -64 -15 hvcurveto
          59 -13 -48 35 -73 hhcurveto
          -106 -66 -87 -119 -149 93 -114 147 -67 callsubr
        </CharString>
        <CharString name="dvG_MA">
          305 689 -21 callsubr
          193 67 rmoveto
          -904 -99 callsubr
          173 -232 vlineto
          -26 callgsubr
        </CharString>
        <CharString name="dvG_NA">
          26 226 callgsubr
          181 37 callgsubr
          81 44 48 84 hvcurveto
          234 175 -333 vlineto
          -242 -147 rlineto
          -32 -20 -16 -19 -29 vvcurveto
          -49 58 -45 34 -20 vhcurveto
          50 34 rlineto
          -21 18 -34 31 27 vvcurveto
          11 6 10 12 8 vhcurveto
          185 111 rlineto
          -163 108 callgsubr
        </CharString>
        <CharString name="dvG_NNA">
          498 642 29 callsubr
          434 67 rmoveto
          -1098 -99 callsubr
          153 -225 vlineto
          10 callgsubr
        </CharString>
        <CharString name="dvG_N_YA">
          619 1003 -105 callsubr
          193 67 rmoveto
          -1218 -99 callsubr
          504 vlineto
          -44 callsubr
          -45 -34 -38 -69 -22 vhcurveto
          20 -28 -46 20 -70 hhcurveto
          -89 hlineto
          -60 -27 -30 -45 -41 16 -40 12 -23 hvcurveto
          66 hlineto
          -8 23 -5 29 22 vvcurveto
          26 8 12 25 vhcurveto
          58 hlineto
          59 26 -17 -11 11 hvcurveto
          -131 31 93 -70 109 -93 callsubr
          115 vlineto
          endchar
        </CharString>
        <CharString name="dvG_R">
          35 callgsubr
          endchar
        </CharString>
        <CharString name="dvG_RA">
          25 -22 642 27 callsubr
        </CharString>
        <CharString name="dvG_R_YA">
          420 805 -105 callsubr
          193 67 rmoveto
          -1020 -67 180 -231 hlineto
          -82 callgsubr
          44 48 84 hvcurveto
          234 298 -25 callsubr
          3 -24 5 -23 7 -21 -371 -319 rcurveline
          110 hlineto
          294 250 rlineto
          -69 45 70 -36 78 -93 callsubr
          115 vlineto
          endchar
        </CharString>
        <CharString name="dvG_SA">
          406 569 333 193 callgsubr
          193 309 rmoveto
          -1005 -99 callsubr
          290 -137 vlineto
          -101 callgsubr
          168 -265 156 callgsubr
          hlineto
          endchar
        </CharString>
        <CharString name="dvG_VA">
          324 902 -22 callgsubr
          -924 -99 callsubr
          480 -262 vlineto
          -18 callgsubr
        </CharString>
        <CharString name="dvG_YA">
          380 765 -105 callsubr
          193 67 rmoveto
          -980 -99 callsubr
          266 10 callsubr
        </CharString>
        <CharString name="dvGx">
          -236 129 83 -104 callgsubr
          213 559 rmoveto
          -364 -99 callsubr
          114 vlineto
          endchar
        </CharString>
        <CharString name="dvGxA">
          18 129 83 -104 callgsubr
          -151 559 rmoveto
          -67 173 -231 -14 callgsubr
          67 vlineto
          endchar
        </CharString>
        <CharString name="dvGx_R">
          35 callgsubr
          -104 -234 -104 callgsubr
          endchar
        </CharString>
        <CharString name="dvGx_RA">
          25 309 -13 -104 callgsubr
          -331 655 27 callsubr
        </CharString>
        <CharString name="dvH">
          -26 249 -99 -16 callgsubr
          -351 741 rmoveto
          215 callgsubr
          -62 38 -35 29 -19 hvcurveto
          -80 callsubr
          240 157 113 67 hlineto
          endchar
        </CharString>
        <CharString name="dvHA">
          123 callsubr
          -62 38 -35 29 -19 hvcurveto
          -80 callsubr
          endchar
        </CharString>
        <CharString name="dvHA_mU">
          123 callsubr
          -62 38 -33 29 -19 hvcurveto
          -42 -31 -21 -44 -45 vvcurveto
          -93 67 -72 114 -9 vhcurveto
          16 -1 rlineto
          12 16 23 7 20 hhcurveto
          39 35 -14 -47 -41 -33 -35 -69 -61 -77 32 39 -51 hvcurveto
          -79 vlineto
          -34 47 77 -23 68 hhcurveto
          110 66 60 83 77 -58 47 -84 -27 -32 -10 -8 -16 hvcurveto
          -77 4 -35 45 59 vvcurveto
          51 47 51 93 68 29 -33 -40 -16 -4 -19 -10 -14 vhcurveto
          77 hlineto
          8 16 2 19 18 vvcurveto
          66 -49 68 -120 -37 -32 -5 -10 -28 vhcurveto
          -22 10 -25 25 38 vvcurveto
          37 25 8 31 vhcurveto
          endchar
        </CharString>
        <CharString name="dvHA_mUU">
          123 callsubr
          -60 35 -35 29 -19 hvcurveto
          -40 -30 -20 -43 -43 vvcurveto
          -66 41 -56 66 -21 vhcurveto
          -29 -23 -17 -34 -37 vvcurveto
          -89 68 -44 80 11 18 1 4 14 vhcurveto
          64 vlineto
          -4 -10 -10 -1 -13 hhcurveto
          -41 -40 20 47 41 30 27 46 109 46 -104 -113 hvcurveto
          73 hlineto
          93 -37 188 -190 vhcurveto
          -80 1 -57 41 64 vvcurveto
          48 41 47 89 75 32 -32 -41 -16 -3 -21 -11 -15 vhcurveto
          77 hlineto
          8 17 3 21 18 vvcurveto
          70 -56 64 -125 -34 -30 -5 -8 -25 vhcurveto
          -21 12 -23 25 37 vvcurveto
          37 25 8 31 vhcurveto
          endchar
        </CharString>
        <CharString name="dvHA_mvR">
          -52 389 138 callgsubr
          137 67 -548 -67 333 -92 -134 vlineto
          -68 -54 -34 -66 -59 35 -34 28 -20 hvcurveto
          -42 -35 -21 -50 -49 vvcurveto
          -124 109 -78 158 31 31 4 8 32 vhcurveto
          63 vlineto
          -8 -31 -33 -3 -24 hhcurveto
          -136 -59 66 70 69 57 57 90 29 5 -10 -13 hvcurveto
          -29 -64 -31 -42 vvcurveto
          -51 50 -20 51 42 39 10 15 28 vhcurveto
          65 vlineto
          -19 -32 -35 -10 -30 hhcurveto
          -24 -13 6 15 hvcurveto
          25 67 34 47 vvcurveto
          40 -32 32 -77 -44 -37 -8 -13 -31 vhcurveto
          -19 13 -19 24 33 117 callsubr
          endchar
        </CharString>
        <CharString name="dvH_LA">
          30 473 138 callgsubr
          135 67 -630 -67 418 -92 -205 vlineto
          -69 -53 111 callsubr
          -49 -40 -27 -59 -69 vvcurveto
          -139 104 -100 168 23 28 2 4 18 vhcurveto
          65 vlineto
          -4 -15 -26 -3 -21 hhcurveto
          -133 -68 73 99 91 56 70 119 58 43 -17 -29 26 hvcurveto
          -7 hlineto
          -31 -28 -21 -27 -6 hvcurveto
          25 -7 -28 20 -38 hhcurveto
          -54 -37 -44 -63 -83 62 -43 80 hvcurveto
          7 7 1 6 hhcurveto
          50 vlineto
          -1 -5 -7 0 -6 hhcurveto
          -50 -34 25 51 33 13 23 23 28 10 -21 -30 hvcurveto
          -26 60 24 vlineto
          34 11 23 32 10 9 -2 -3 8 vhcurveto
          3 -13 1 -13 -14 vvcurveto
          -46 -10 -45 -15 -34 vhcurveto
          74 hlineto
          15 38 9 43 45 vvcurveto
          129 -99 76 -133 -47 -41 -8 -14 -34 vhcurveto
          -21 11 -23 26 36 117 callsubr
          endchar
        </CharString>
        <CharString name="dvH_MA">
          178 562 195 rmoveto
          -127 8 hlineto
          64 -47 53 -104 -31 -28 -5 -9 -25 vhcurveto
          -21 10 -25 20 37 117 callsubr
          205 157 147 hlineto
          75 callgsubr
          -778 -67 359 -92 -139 hlineto
          -69 -54 -34 -66 -62 39 -30 29 -17 hvcurveto
          -43 -35 -25 -53 -63 vvcurveto
          -131 86 -96 169 31 30 4 6 26 vhcurveto
          65 vlineto
          -6 -24 -31 -3 -31 hhcurveto
          -120 -58 65 90 78 42 61 85 58 20 -25 -29 hvcurveto
          -8 vlineto
          -24 -6 -17 -19 -27 vvcurveto
          -27 25 -38 26 -44 vhcurveto
          67 94 127 -150 78 598 116 hlineto
          endchar
        </CharString>
        <CharString name="dvH_NA">
          42 470 138 callgsubr
          151 67 -643 -67 414 -92 -202 vlineto
          -69 -53 -34 -66 -60 41 -41 31 -20 hvcurveto
          -55 -41 -26 -59 -64 vvcurveto
          -135 120 -96 155 35 22 0 11 42 vhcurveto
          65 vlineto
          -9 -29 -31 -3 -32 hhcurveto
          -122 -82 72 93 77 54 74 129 43 33 -9 -14 26 hvcurveto
          -130 -59 rlineto
          -35 -15 -18 -21 -29 vvcurveto
          -43 46 -47 26 -18 vhcurveto
          53 24 rlineto
          -24 25 -18 30 20 vvcurveto
          14 8 10 15 6 vhcurveto
          124 56 rlineto
          8 -15 4 -16 -15 vvcurveto
          -31 -7 -22 -6 -18 vhcurveto
          75 hlineto
          6 14 5 31 30 vvcurveto
          84 -70 93 -162 -48 -41 -7 -12 -34 vhcurveto
          -26 14 -26 29 37 vvcurveto
          37 25 8 31 vhcurveto
          endchar
        </CharString>
        <CharString name="dvH_NNA">
          35 356 135 rmoveto
          -44 -8 -19 -33 -33 -10 18 46 vhcurveto
          116 vlineto
          2 13 13 1 15 hhcurveto
          15 15 -1 -2 13 hvcurveto
          120 166 rmoveto
          157 138 67 -636 -67 420 -92 -204 vlineto
          -69 -54 -34 -66 -62 39 -36 29 -18 hvcurveto
          -49 -39 -27 -56 -67 vvcurveto
          -135 110 -95 165 34 38 4 10 43 vhcurveto
          65 vlineto
          -9 -30 -47 -6 -32 hhcurveto
          -136 -67 71 93 56 22 47 49 27 hvcurveto
          -97 vlineto
          -85 38 -30 64 70 32 38 77 vhcurveto
          94 vlineto
          37 -23 19 -39 -50 vvcurveto
          -26 -4 -29 -7 -17 vhcurveto
          74 hlineto
          5 17 6 31 25 vvcurveto
          129 -99 72 -132 -45 -41 -8 -13 -34 vhcurveto
          -21 11 -24 26 37 117 callsubr
          endchar
        </CharString>
        <CharString name="dvH_R">
          30 263 -193 -16 callgsubr
          133 611 -40 callgsubr
        </CharString>
        <CharString name="dvH_RA">
          30 476 418 -40 callgsubr
        </CharString>
        <CharString name="dvH_VA">
          12 475 138 callgsubr
          115 67 -612 -67 419 -92 -204 vlineto
          -69 -54 -34 -66 -61 38 -36 29 -18 hvcurveto
          -50 -40 -27 -59 -68 vvcurveto
          -135 103 -102 170 36 31 4 10 44 vhcurveto
          65 vlineto
          -9 -31 -38 -6 -33 hhcurveto
          -128 -76 64 104 87 56 72 112 86 45 -45 -62 13 hvcurveto
          -1 1 rlineto
          -59 -3 -46 -34 -49 hhcurveto
          -40 -25 17 33 35 28 17 30 13 12 -2 -4 10 hvcurveto
          53 vlineto
          5 -12 -15 3 -20 hhcurveto
          -64 -57 -42 -66 -62 48 -47 77 47 38 19 31 26 hvcurveto
          -4 -18 -5 -18 -4 -11 rrcurveto
          75 hlineto
          8 23 11 55 33 vvcurveto
          114 -72 96 -148 -44 -38 -7 -14 -33 vhcurveto
          -21 12 -23 26 36 117 callsubr
          endchar
        </CharString>
        <CharString name="dvH_YA">
          192 577 212 rmoveto
          -90 -58 -46 -67 -47 -37 22 32 -14 vhcurveto
          53 13 38 40 50 vvcurveto
          76 -64 33 -88 -38 -36 -8 -15 -32 vhcurveto
          -14 11 -11 17 26 117 callsubr
          201 157 158 hlineto
          193 67 rmoveto
          -792 -67 364 -92 -136 hlineto
          -69 -54 -34 -66 -52 27 -29 26 -18 hvcurveto
          -38 -35 -23 -50 -59 vvcurveto
          -146 120 -97 158 18 24 3 5 15 vhcurveto
          64 vlineto
          -3 -12 -23 -3 -17 hhcurveto
          -116 -89 74 100 88 64 56 85 43 23 -15 -33 -39 -39 -18 -65 -10 hvcurveto
          -102 17 83 -52 81 hhcurveto
          56 49 23 36 27 hvcurveto
          -94 77 598 116 vlineto
          endchar
        </CharString>
        <CharString name="dvI">
          -75 395 426 rmoveto
          149 108 67 -525 -67 338 -82 -83 vlineto
          23 callsubr
        </CharString>
        <CharString name="dvII">
          -75 393 426 rmoveto
          149 110 67 -126 vlineto
          -18 20 -20 35 34 vvcurveto
          44 26 30 44 26 24 -7 -8 17 vhcurveto
          71 vlineto
          9 -19 -25 5 -27 hhcurveto
          -91 -54 -63 -75 -43 16 -32 17 -20 hvcurveto
          -315 -67 336 -82 -81 hlineto
          23 callsubr
        </CharString>
        <CharString name="dvII_Anusvara">
          -44 405 575 rmoveto
          130 67 -143 hlineto
          -25 21 -29 44 52 vvcurveto
          58 39 42 51 24 22 -6 -8 16 vhcurveto
          71 vlineto
          9 -18 -26 5 -26 hhcurveto
          -97 -65 -71 -89 -55 25 -46 26 -27 hvcurveto
          -331 -67 348 -82 -93 hlineto
          -89 -70 -45 -89 -76 64 -52 80 -3 hvcurveto
          85 7 rlineto
          49 -1 29 -29 -44 vvcurveto
          -53 -40 -37 -54 -65 -56 42 55 -22 vhcurveto
          -70 -228 77 115 hlineto
          -31 35 51 -18 53 hhcurveto
          97 72 67 87 80 -48 59 -97 2 hvcurveto
          -85 -6 rlineto
          -45 1 -31 27 38 vvcurveto
          47 43 18 41 vhcurveto
          168 1 hlineto
          0 vlineto
          38 371 rmoveto
          -28 -20 -21 -28 -28 20 64 callgsubr
        </CharString>
        <CharString name="dvJ">
          -134 444 -22 callgsubr
          -466 -67 466 hlineto
          101 -124 rmoveto
          -449 -67 hlineto
          107 -103 callgsubr
          268 hlineto
          endchar
        </CharString>
        <CharString name="dvJA">
          94 226 callgsubr
          500 -13 callgsubr
          67 hlineto
          endchar
        </CharString>
        <CharString name="dvJH">
          -18 649 316 rmoveto
          -367 hlineto
          -14 1 rlineto
          60 callgsubr
          160 141 154 67 -582 -67 349 -74 -86 hlineto
          -98 -68 -46 -83 -92 79 -23 102 -6 hvcurveto
          -28 callsubr
          226 hlineto
          endchar
        </CharString>
        <CharString name="dvJHA">
          203 282 316 rmoveto
          -14 1 rlineto
          60 callgsubr
          160 141 180 -259 hlineto
          195 326 rmoveto
          -803 -67 349 -74 -86 hlineto
          -98 -68 -46 -83 -92 79 -23 102 -6 hvcurveto
          -28 callsubr
          163 -252 128 callgsubr
        </CharString>
        <CharString name="dvJH_MA">
          537 922 -21 callsubr
          -516 -141 rmoveto
          141 228 -232 vlineto
          -16 -4 -13 -9 -7 -14 rrcurveto
          -316 hlineto
          -14 1 rlineto
          60 callgsubr
          869 208 rmoveto
          -1137 -67 349 -74 -86 hlineto
          -98 -68 -46 -83 -92 79 -23 102 -6 hvcurveto
          -28 callsubr
          176 hlineto
          5 -17 8 -18 7 -17 52 callsubr
        </CharString>
        <CharString name="dvJH_NA">
          300 314 318 rmoveto
          1 -7 -8 1 -8 hhcurveto
          -82 6 -41 13 40 vvcurveto
          37 35 19 58 vhcurveto
          179 140 252 -257 hlineto
          186 324 rmoveto
          -900 -67 384 -74 -106 hlineto
          -100 -67 -46 -78 -91 84 -27 105 -5 hvcurveto
          86 -5 25 -35 -45 vvcurveto
          -52 -43 -33 -55 -63 -58 40 56 -23 vhcurveto
          -71 -226 77 114 hlineto
          -31 36 55 -17 51 hhcurveto
          97 75 62 89 33 -8 28 -15 22 hvcurveto
          248 -39 hlineto
          -235 -209 rlineto
          -28 -24 -12 -25 -23 vvcurveto
          -43 39 -39 49 -22 vhcurveto
          49 31 rlineto
          -28 23 -25 25 25 vvcurveto
          13 7 12 15 15 vhcurveto
          169 155 rlineto
          -129 71 -50 callsubr
        </CharString>
        <CharString name="dvJH_R">
          51 713 253 rmoveto
          64 -436 vlineto
          60 callgsubr
          160 1 hlineto
          2 -1 rlineto
          141 213 67 -652 -67 360 -74 -88 vlineto
          44 callsubr
          274 -25 rmoveto
          -386 -355 rlineto
          107 hlineto
          324 297 rlineto
          endchar
        </CharString>
        <CharString name="dvJH_RA">
          287 277 317 rmoveto
          60 callgsubr
          160 1 hlineto
          2 -1 rlineto
          141 254 -258 vlineto
          194 325 rmoveto
          -887 -67 360 -74 -88 hlineto
          44 callsubr
          240 -56 hlineto
          -352 -324 rlineto
          107 hlineto
          245 233 rlineto
          -106 -81 callgsubr
        </CharString>
        <CharString name="dvJH_YA">
          590 972 82 callsubr
          -80 -58 44 72 -17 vhcurveto
          80 25 67 63 86 vvcurveto
          36 -9 33 -16 24 vhcurveto
          187 hlineto
          -701 -258 rmoveto
          -3 hlineto
          -78 6 -36 15 40 vvcurveto
          40 37 16 55 vhcurveto
          160 141 296 hlineto
          15 -19 15 -30 -38 vvcurveto
          -100 -127 -46 -157 -15 vhcurveto
          -8 -51 -75 -2 -51 hhcurveto
          895 325 rmoveto
          -1188 -67 349 -74 -86 hlineto
          -98 -68 -44 -81 -92 73 -27 108 -6 hvcurveto
          85 -6 33 -34 -46 vvcurveto
          -53 -37 -32 -56 -63 -58 43 55 -25 vhcurveto
          -70 -226 76 113 hlineto
          -32 36 52 -18 56 hhcurveto
          100 67 65 87 37 -12 31 -22 23 hvcurveto
          15 2 15 1 13 2 46 4 42 6 37 10 rrcurveto
          -108 38 86 -50 100 -44 callgsubr
          vlineto
          endchar
        </CharString>
        <CharString name="dvJ_BA">
          482 794 173 -37 callgsubr
          -1082 -67 888 21 callsubr
          -55 -48 -16 -28 -37 hvcurveto
          -460 -67 hlineto
          107 -103 callgsubr
          222 hlineto
          -14 -28 -8 -33 -36 62 callsubr
        </CharString>
        <CharString name="dvJ_DA">
          422 880 408 rmoveto
          101 callsubr
          -1014 -67 816 -101 -105 vlineto
          -45 -38 -8 -15 -32 hvcurveto
          -478 -67 hlineto
          107 -103 callgsubr
          220 hlineto
          -21 -32 -10 -38 -42 vvcurveto
          60 callsubr
          vhcurveto
          -133 78 264 -75 vlineto
          -68 -2 -50 -50 -80 hhcurveto
          -78 171 callsubr
        </CharString>
        <CharString name="dvJ_DDA">
          375 810 424 rmoveto
          151 143 67 -975 -67 753 -84 -99 vlineto
          -49 -44 -13 -27 -29 hvcurveto
          -414 -67 hlineto
          107 -103 callgsubr
          198 hlineto
          -1 -8 -1 -8 -9 vvcurveto
          -87 67 -40 117 -5 vhcurveto
          230 callsubr
          -66 -74 24 31 -49 vhcurveto
          -77 vlineto
          -26 49 67 -18 73 hhcurveto
          126 77 65 90 98 -72 37 -107 3 hvcurveto
          -102 5 -34 19 45 vvcurveto
          47 43 16 41 vhcurveto
          endchar
        </CharString>
        <CharString name="dvJ_JA">
          494 1072 -22 callgsubr
          -1094 -67 900 -124 -782 -67 hlineto
          107 -103 callgsubr
          219 hlineto
          -1 callsubr
          hlineto
          endchar
        </CharString>
        <CharString name="dvJ_JHA">
          613 693 316 rmoveto
          -14 1 rlineto
          60 callgsubr
          160 141 180 -259 hlineto
          195 326 rmoveto
          -1214 -67 760 -74 -86 hlineto
          -60 -49 -17 -33 -29 hvcurveto
          -418 -67 hlineto
          107 -103 callgsubr
          209 hlineto
          -4 0 -4 -4 vvcurveto
          -92 79 -23 102 -6 vhcurveto
          -28 callsubr
          163 -252 128 callgsubr
        </CharString>
        <CharString name="dvJ_J_NYA">
          619 1213 -22 callgsubr
          -1235 -67 1025 -84 -324 hlineto
          -54 -46 -14 -26 -31 hvcurveto
          -452 -67 hlineto
          107 -103 callgsubr
          234 hlineto
          -1 -7 -1 -7 -7 vvcurveto
          -77 61 -44 112 73 54 -13 -60 -52 -38 -37 -57 -65 -59 44 54 -22 vhcurveto
          58 callsubr
          hlineto
          endchar
        </CharString>
        <CharString name="dvJ_J_VA">
          838 1416 -22 callgsubr
          -1438 -67 1244 -57 callgsubr
          -36 -33 -8 -14 -28 hvcurveto
          -872 -67 hlineto
          107 -103 callgsubr
          222 hlineto
          106 -103 callgsubr
          216 hlineto
          -18 -29 -10 -35 -38 -71 callsubr
        </CharString>
        <CharString name="dvJ_J_YA">
          882 1266 82 callsubr
          -79 -50 52 74 -28 169 callgsubr
          75 callgsubr
          -1482 -67 1018 hlineto
          15 -18 15 -30 -36 vvcurveto
          -57 -45 -35 -64 -19 vhcurveto
          36 -29 -56 35 -93 hhcurveto
          -643 -67 hlineto
          107 -103 callgsubr
          227 hlineto
          102 -2 65 -46 -88 vvcurveto
          178 callgsubr
          vhcurveto
          -72 vlineto
          -13 32 42 -9 46 hhcurveto
          120 79 73 107 66 -27 48 -45 27 hvcurveto
          62 hlineto
          200 -93 -259 258 hhcurveto
          74 56 25 44 32 31 callgsubr
          vlineto
          endchar
        </CharString>
        <CharString name="dvJ_KA">
          651 1229 203 callsubr
          -1251 -67 804 -305 vlineto
          -63 -50 -45 -57 -68 -47 49 68 79 55 44 69 6 8 101 callgsubr
          -5 -9 1 -9 hhcurveto
          -33 -31 -7 -12 -27 hvcurveto
          -493 -67 hlineto
          107 -103 callgsubr
          234 hlineto
          -18 -29 -11 -36 -41 -76 callsubr
        </CharString>
        <CharString name="dvJ_MA">
          443 827 -21 callsubr
          193 67 rmoveto
          -1042 -67 561 -124 -443 -67 hlineto
          107 -103 callgsubr
          262 -41 hlineto
          -26 callgsubr
        </CharString>
        <CharString name="dvJ_NA">
          86 226 callgsubr
          492 -124 -381 -67 vlineto
          106 68 -45 -89 -76 -53 -41 185 callgsubr
          hvcurveto
          -71 vlineto
          -14 32 42 -9 46 hhcurveto
          118 81 74 105 66 -28 46 -44 26 hvcurveto
          201 -217 hlineto
          -189 -121 rlineto
          -33 -21 -12 -24 -24 vvcurveto
          -50 53 -42 35 -18 vhcurveto
          51 34 rlineto
          -23 19 -29 25 28 vvcurveto
          14 6 10 13 9 vhcurveto
          128 84 rlineto
          -90 79 128 callsubr
        </CharString>
        <CharString name="dvJ_NY">
          -43 535 -22 callgsubr
          -565 -67 565 hlineto
          173 -173 rmoveto
          67 -461 vlineto
          31 callsubr
          endchar
        </CharString>
        <CharString name="dvJ_NYA">
          166 -30 -22 callgsubr
          -67 601 -84 -324 vlineto
          -98 -72 -45 -83 -77 61 -44 112 73 54 -13 -60 -52 -38 -37 -57 -65 -59 44 54 -22 hvcurveto
          58 callsubr
          67 hlineto
          endchar
        </CharString>
        <CharString name="dvJ_NY_YA">
          552 936 82 callsubr
          -96 -33 50 74 -30 vhcurveto
          84 27 67 45 94 vvcurveto
          38 -10 32 -14 23 vhcurveto
          186 hlineto
          75 callgsubr
          -1160 -67 696 hlineto
          16 -19 14 -31 -39 vvcurveto
          -47 -40 -38 -64 -23 vhcurveto
          51 -38 -49 40 -107 hhcurveto
          -151 hlineto
          31 callsubr
          131 hlineto
          254 -145 -277 285 -44 callgsubr
          vlineto
          endchar
        </CharString>
        <CharString name="dvJ_R">
          204 callgsubr
          -374 -675 rmoveto
          109 hlineto
          350 299 -42 57 rlineto
          -433 195 rmoveto
          -17 callsubr
          355 67 hlineto
          endchar
        </CharString>
        <CharString name="dvJ_RA">
          101 226 callgsubr
          508 -124 -382 -17 callsubr
          198 -173 hlineto
          -366 -311 rlineto
          109 hlineto
          257 219 rlineto
          -119 78 128 callsubr
        </CharString>
        <CharString name="dvJ_TA">
          454 1032 -22 callgsubr
          -1054 -67 860 -123 -104 hlineto
          -4 0 -634 -67 hlineto
          107 68 -44 -91 178 callgsubr
          hvcurveto
          -71 vlineto
          -14 32 42 -9 46 hhcurveto
          120 79 74 107 67 -27 46 -45 26 hvcurveto
          267 hlineto
          -38 -39 -19 -55 -62 96 callsubr
          95 222 callsubr
          hlineto
          endchar
        </CharString>
        <CharString name="dvJ_TTA">
          351 818 575 rmoveto
          111 67 -951 -67 762 116 callsubr
          -23 -22 -3 -4 -21 hvcurveto
          -554 -67 hlineto
          107 -103 callgsubr
          249 hlineto
          -36 -38 -21 -50 -58 -74 callsubr
        </CharString>
        <CharString name="dvJ_VA">
          440 1018 -22 callgsubr
          -1040 -67 846 107 callgsubr
          -36 -33 -8 -14 -28 hvcurveto
          -474 -67 hlineto
          107 -103 callgsubr
          220 hlineto
          -18 -29 -10 -35 -38 -71 callsubr
        </CharString>
        <CharString name="dvJ_YA">
          478 -22 575 -39 callgsubr
        </CharString>
        <CharString name="dvJx">
          -133 444 -22 callgsubr
          -466 -67 466 hlineto
          -290 -608 -104 callgsubr
          391 484 rmoveto
          -449 -67 hlineto
          107 -103 callgsubr
          268 hlineto
          endchar
        </CharString>
        <CharString name="dvJxA">
          94 154 -33 -104 callgsubr
          -176 675 rmoveto
          -67 500 -13 callgsubr
          67 hlineto
          endchar
        </CharString>
        <CharString name="dvJx_JxA">
          494 154 -33 -104 callgsubr
          400 hmoveto
          -30 -22 -24 -29 -30 22 -22 30 30 24 22 30 29 -24 24 -30 hvcurveto
          518 675 rmoveto
          -1094 -67 900 -124 -782 -67 hlineto
          107 -103 callgsubr
          219 hlineto
          -1 callsubr
          hlineto
          endchar
        </CharString>
        <CharString name="dvJx_R">
          204 callgsubr
          18 -582 -104 callgsubr
          -392 -93 rmoveto
          109 hlineto
          350 299 -42 57 rlineto
          -433 195 rmoveto
          -17 callsubr
          355 67 hlineto
          endchar
        </CharString>
        <CharString name="dvJx_RA">
          101 404 -67 -104 callgsubr
          -426 709 rmoveto
          -67 508 -124 -382 -17 callsubr
          198 -173 hlineto
          -366 -311 rlineto
          109 hlineto
          257 219 rlineto
          -119 78 128 callsubr
        </CharString>
        <CharString name="dvJx_YA">
          478 126 -86 88 callsubr
          -148 661 -39 callgsubr
        </CharString>
        <CharString name="dvK">
          -37 425 575 rmoveto
          116 67 -563 -59 callsubr
          51 45 57 36 29 -14 -23 19 vhcurveto
          55 54 rlineto
          30 -32 -46 18 -52 71 callgsubr
          endchar
        </CharString>
        <CharString name="dvKA">
          215 793 203 callsubr
          -815 -67 368 -305 vlineto
          -63 -50 -45 -57 -68 -47 49 68 79 55 44 69 6 8 0 -1 5 vhcurveto
          66 vlineto
          2 -5 -9 1 -9 hhcurveto
          -108 -90 -72 -120 -108 75 -72 109 25 callsubr
        </CharString>
        <CharString name="dvKH">
          27 535 282 rmoveto
          -102 callgsubr
          117 320 67 -627 -67 228 -106 vlineto
          -70 callsubr
          181 106 123 134 132 -86 60 -101 -55 callgsubr
          endchar
        </CharString>
        <CharString name="dvKHA">
          223 801 -22 callgsubr
          -823 -67 242 -134 hlineto
          -60 -34 -37 -88 vhcurveto
          -67 -65 hlineto
          -81 callsubr
        </CharString>
        <CharString name="dvKH_KHA">
          794 1178 451 rmoveto
          27 -32 -41 207 callgsubr
          18 168 callsubr
          61 vlineto
          -8 -16 -14 -2 -15 hhcurveto
          -40 -30 28 44 44 31 40 58 74 153 callsubr
          90 4 26 50 95 vvcurveto
          117 335 vlineto
          -893 hmoveto
          480 -106 hlineto
          -66 -6 -29 -70 vhcurveto
          -10 hlineto
          80 -27 -70 37 -79 26 callgsubr
          1088 184 rmoveto
          -1395 -67 228 -106 hlineto
          -70 callsubr
          137 93 70 92 38 hvcurveto
          -94 60 99 -68 129 hhcurveto
          99 74 38 57 46 hvcurveto
          -137 -18 callsubr
        </CharString>
        <CharString name="dvKH_MA">
          587 972 -21 callsubr
          -437 -293 rmoveto
          -102 callgsubr
          117 399 -219 vlineto
          92 -21 -75 43 -85 -51 callsubr
          630 421 rmoveto
          -1187 -67 228 -106 hlineto
          -70 callsubr
          134 93 68 89 39 hvcurveto
          25 -55 rlineto
          77 callgsubr
        </CharString>
        <CharString name="dvKH_NA">
          236 620 450 rmoveto
          28 -32 -42 13 -43 -51 callsubr
          61 vlineto
          -8 -16 -15 -2 -14 hhcurveto
          -40 -30 28 44 44 31 40 57 75 153 callsubr
          89 4 27 50 95 vvcurveto
          117 335 63 callsubr
          -836 -67 228 -106 hlineto
          -66 -6 -29 -69 vhcurveto
          -66 -65 hlineto
          37 -122 90 -107 132 -30 -124 -53 rcurveline
          -44 -16 -18 -24 -31 vvcurveto
          -46 38 -47 25 -22 vhcurveto
          58 18 rlineto
          -18 26 -19 36 23 vvcurveto
          15 8 9 16 7 vhcurveto
          281 122 rlineto
          0 vlineto
          38 17 31 24 24 30 rrcurveto
          -138 -81 callgsubr
        </CharString>
        <CharString name="dvKH_R">
          14 526 284 -26 callsubr
        </CharString>
        <CharString name="dvKH_RA">
          227 611 450 -49 callsubr
          -827 -67 220 -104 hlineto
          -67 -6 -28 -69 vhcurveto
          -66 -65 hlineto
          15 callgsubr
        </CharString>
        <CharString name="dvKH_SHA">
          729 780 442 -61 callsubr
        </CharString>
        <CharString name="dvKH_TA">
          584 968 452 rmoveto
          -104 hlineto
          -86 -62 -25 -42 -41 hvcurveto
          72 -29 -67 34 -76 26 callgsubr
          117 683 63 callsubr
          -1184 -67 228 -106 hlineto
          -70 callsubr
          102 78 39 57 48 hvcurveto
          -83 29 71 -55 102 hhcurveto
          166 callsubr
          hvcurveto
          -79 callgsubr
        </CharString>
        <CharString name="dvKH_VA">
          590 974 313 rmoveto
          -101 callsubr
          -22 hhcurveto
          -64 -54 -25 -40 -35 hvcurveto
          56 -33 -61 27 -67 26 callgsubr
          117 689 63 callsubr
          -1190 -67 228 -106 hlineto
          -70 callsubr
          119 86 53 74 45 hvcurveto
          -51 37 61 -27 63 hhcurveto
          122 callsubr
          hvcurveto
          -166 -81 callgsubr
        </CharString>
        <CharString name="dvKH_YA">
          630 1015 -105 callsubr
          -480 -293 rmoveto
          -102 callgsubr
          117 459 vlineto
          -44 callsubr
          -44 -33 -37 -66 -23 vhcurveto
          74 -28 -68 35 -77 -51 callsubr
          673 421 rmoveto
          -1230 -67 228 -106 hlineto
          -70 callsubr
          140 95 73 95 36 hvcurveto
          -56 45 63 -29 71 -93 callsubr
          115 vlineto
          endchar
        </CharString>
        <CharString name="dvKHx">
          25 84 47 -104 callgsubr
          451 235 rmoveto
          -102 callgsubr
          117 320 67 -627 -67 228 -106 vlineto
          -70 callsubr
          181 106 123 134 132 -86 60 -101 -55 callgsubr
          endchar
        </CharString>
        <CharString name="dvKHxA">
          223 74 19 -104 callgsubr
          727 623 rmoveto
          -823 -67 242 -134 hlineto
          -60 -34 -37 -88 vhcurveto
          -67 -65 hlineto
          -81 callsubr
        </CharString>
        <CharString name="dvKHx_MA">
          587 84 47 -104 callgsubr
          888 299 rmoveto
          -210 229 210 hlineto
          -437 -293 rmoveto
          -102 callgsubr
          117 399 -219 vlineto
          92 -21 -75 43 -85 -51 callsubr
          630 421 rmoveto
          -1187 -67 228 -106 hlineto
          -70 callsubr
          134 93 68 89 39 hvcurveto
          25 -55 rlineto
          77 callgsubr
        </CharString>
        <CharString name="dvKHx_R">
          14 535 -71 -104 callgsubr
          -9 355 -26 callsubr
        </CharString>
        <CharString name="dvKHx_RA">
          227 528 -28 -104 callgsubr
          83 478 -49 callsubr
          -827 -67 220 -104 hlineto
          -67 -6 -28 -69 vhcurveto
          -66 -65 hlineto
          15 callgsubr
        </CharString>
        <CharString name="dvKHx_SA">
          680 84 47 -104 callgsubr
          760 286 193 callgsubr
          -780 242 rmoveto
          99 callsubr
          -9 hlineto
          101 -17 -77 46 -89 26 callgsubr
          973 184 rmoveto
          -1280 -67 228 -106 hlineto
          -70 callsubr
          141 95 75 96 36 hvcurveto
          141 -213 48 callgsubr
        </CharString>
        <CharString name="dvKHx_SHA">
          728 84 47 -104 callgsubr
          696 395 -61 callsubr
        </CharString>
        <CharString name="dvKHx_TA">
          584 84 47 -104 callgsubr
          884 405 rmoveto
          -104 hlineto
          -86 -62 -25 -42 -41 hvcurveto
          72 -29 -67 34 -76 26 callgsubr
          117 683 63 callsubr
          -1184 -67 228 -106 hlineto
          -70 callsubr
          102 78 39 57 48 hvcurveto
          -83 29 71 -55 102 hhcurveto
          166 callsubr
          hvcurveto
          -79 callgsubr
        </CharString>
        <CharString name="dvKHx_VA">
          590 84 47 -104 callgsubr
          890 266 rmoveto
          -101 callsubr
          -22 hhcurveto
          -64 -54 -25 -40 -35 hvcurveto
          56 -33 -61 27 -67 26 callgsubr
          117 689 63 callsubr
          -1190 -67 228 -106 hlineto
          -70 callsubr
          119 86 53 74 45 hvcurveto
          -51 37 61 -27 63 hhcurveto
          122 callsubr
          hvcurveto
          -166 -81 callgsubr
        </CharString>
        <CharString name="dvKHx_YA">
          630 84 47 -104 callgsubr
          931 287 rmoveto
          -87 -63 -55 -92 -80 -59 54 72 -16 vhcurveto
          78 -98 callsubr
          hlineto
          -480 -293 rmoveto
          -102 callgsubr
          117 459 vlineto
          -44 callsubr
          -44 -33 -37 -66 -23 vhcurveto
          74 -28 -68 35 -77 -51 callsubr
          673 421 rmoveto
          -1230 -67 228 -106 hlineto
          -70 callsubr
          140 95 73 95 36 hvcurveto
          -56 45 63 -29 71 -93 callsubr
          115 vlineto
          endchar
        </CharString>
        <CharString name="dvK_CA">
          575 959 322 rmoveto
          -77 -57 -86 -116 -69 -50 35 67 188 callgsubr
          vhcurveto
          68 -250 vlineto
          19 -26 -30 11 -37 hhcurveto
          -44 -33 -15 -26 -22 hvcurveto
          136 534 201 callgsubr
          -1176 -59 callsubr
          31 45 58 33 19 -12 -21 18 vhcurveto
          82 hlineto
          -47 -24 -29 -43 -58 vvcurveto
          -103 82 -60 105 vhcurveto
          93 2 60 41 29 46 rrcurveto
          -183 -18 callsubr
        </CharString>
        <CharString name="dvK_DA">
          492 425 575 rmoveto
          423 -84 -99 hlineto
          -45 -40 -11 -22 -29 hvcurveto
          14 -27 -32 8 -34 71 callgsubr
          501 -8 105 callgsubr
          -1092 -67 368 -305 vlineto
          -106 callsubr
          24 20 -6 -11 17 vhcurveto
          -3 -12 -2 -13 -14 vvcurveto
          -87 67 -40 117 -5 vhcurveto
          -52 callsubr
        </CharString>
        <CharString name="dvK_JA">
          615 669 421 rmoveto
          31 -25 -46 28 -60 hhcurveto
          -47 -39 -18 -29 -27 hvcurveto
          142 574 -154 vlineto
          194 221 rmoveto
          -1215 -59 callsubr
          49 45 51 51 28 -26 -32 13 vhcurveto
          -3 vlineto
          109 65 -40 -79 -72 -52 -34 99 callgsubr
          31 41 -9 48 hhcurveto
          117 80 62 107 60 -28 39 -42 23 hvcurveto
          201 -354 -41 callsubr
        </CharString>
        <CharString name="dvK_KA">
          728 859 106 callsubr
          -37 -35 -8 -16 -30 hvcurveto
          21 -30 -39 13 -44 34 callgsubr
          434 vlineto
          447 hmoveto
          67 -1328 -67 368 -305 vlineto
          -106 callsubr
          25 22 -7 -12 17 vhcurveto
          -24 -31 -14 -40 -47 -76 callsubr
        </CharString>
        <CharString name="dvK_KHA">
          807 804 441 rmoveto
          -58 -32 -37 -81 -2 vhcurveto
          73 -9 -51 62 -98 hhcurveto
          -46 -37 -17 -28 -25 hvcurveto
          141 379 vlineto
          581 67 rmoveto
          -1407 -59 callsubr
          46 45 53 60 31 -45 -49 vhcurveto
          -42 vlineto
          -81 callsubr
        </CharString>
        <CharString name="dvK_LA">
          705 1088 -29 callgsubr
          -36 -31 -10 -18 -26 hvcurveto
          25 -31 -42 14 -46 34 callgsubr
          663 201 callgsubr
          -1305 -59 callsubr
          51 45 57 32 27 -11 -19 19 vhcurveto
          -19 -34 -10 -41 -47 vvcurveto
          20 callgsubr
          vhcurveto
          -98 callgsubr
        </CharString>
        <CharString name="dvK_MA">
          528 913 343 -45 callgsubr
        </CharString>
        <CharString name="dvK_NA">
          227 804 203 callsubr
          -826 -67 380 -303 222 callgsubr
          48 67 79 54 44 69 6 9 74 callgsubr
          -9 1 -8 hhcurveto
          -109 -90 -72 -119 -91 53 -64 81 -19 hvcurveto
          -71 -48 rlineto
          -31 -21 -14 -23 -23 vvcurveto
          -50 60 -45 37 -19 vhcurveto
          48 36 rlineto
          -23 20 -36 32 27 vvcurveto
          9 5 9 11 8 vhcurveto
          158 110 rlineto
          -1 hlineto
          9 6 8 7 7 8 rrcurveto
          -148 78 81 callsubr
          68 47 -49 -67 -79 -55 -45 -6 callsubr
          -1 6 9 -1 8 hhcurveto
          109 90 71 120 108 -75 73 -109 50 callsubr
          vlineto
          endchar
        </CharString>
        <CharString name="dvK_NNA">
          732 876 29 callsubr
          -451 hmoveto
          190 -108 hlineto
          8 -22 -25 5 -26 71 callgsubr
          885 210 rmoveto
          -1332 -59 callsubr
          51 45 57 35 28 -13 -22 19 vhcurveto
          -30 vlineto
          10 callgsubr
        </CharString>
        <CharString name="dvK_PA">
          535 919 -46 callgsubr
          -494 hmoveto
          181 -105 hlineto
          7 -20 -21 3 -23 71 callgsubr
          688 210 rmoveto
          -1135 -59 callsubr
          51 45 57 30 25 -9 -17 18 vhcurveto
          -14 vlineto
          55 callsubr
        </CharString>
        <CharString name="dvK_PHA">
          773 919 -23 callsubr
          -494 hmoveto
          181 -105 hlineto
          7 -20 -21 3 -23 71 callgsubr
          926 143 rmoveto
          67 -1373 -67 368 -305 vlineto
          -106 callsubr
          30 25 -9 -17 18 vhcurveto
          -18 vlineto
          -141 65 -51 115 vhcurveto
          -104 callsubr
        </CharString>
        <CharString name="dvK_P_RA">
          539 923 -37 callsubr
          -498 hmoveto
          185 -106 hlineto
          7 -21 -23 4 -24 71 callgsubr
          692 210 rmoveto
          -1139 -59 callsubr
          51 45 57 32 26 -11 -18 19 vhcurveto
          2 -125 56 -56 94 -9 -30 callgsubr
        </CharString>
        <CharString name="dvK_R">
          -23 433 575 rmoveto
          122 67 -577 -67 376 -305 hlineto
          -60 callsubr
          36 29 -14 -23 20 vhcurveto
          54 54 rlineto
          30 -32 -46 18 -52 hhcurveto
          -48 -40 -18 -29 -28 hvcurveto
          endchar
        </CharString>
        <CharString name="dvK_RA">
          222 800 203 callsubr
          -822 -67 376 -305 vlineto
          -63 -51 -45 -57 -68 -46 49 68 79 54 44 69 6 9 0 -1 5 vhcurveto
          66 vlineto
          2 -6 -9 1 -8 hhcurveto
          -109 -90 -72 -120 -102 69 -69 96 -7 hvcurveto
          -140 -145 rlineto
          -35 callgsubr
        </CharString>
        <CharString name="dvK_SA">
          673 837 333 rmoveto
          -72 callgsubr
          193 -242 vlineto
          -632 46 callsubr
          826 208 rmoveto
          -1273 -99 callgsubr
          61 42 45 57 63 34 -52 -57 vhcurveto
          -23 98 callsubr
        </CharString>
        <CharString name="dvK_SHA">
          664 425 575 rmoveto
          100 67 -547 -67 368 -305 hlineto
          -107 callsubr
          310 vlineto
          66 2 53 44 65 hhcurveto
          38 28 -16 -18 18 hvcurveto
          79 hlineto
          -18 30 -11 39 29 vvcurveto
          44 22 47 54 54 31 -46 -71 -95 -57 -59 -105 vhcurveto
          -99 -69 hlineto
          207 -235 rlineto
          104 hlineto
          -215 237 rlineto
          27 hlineto
          120 96 76 144 102 -55 84 -109 -97 -52 -75 -74 -7 0 -7 1 -7 hvcurveto
          7 -19 -21 4 -25 hhcurveto
          -50 -40 -20 -29 -26 hvcurveto
          606 207 rmoveto
          -642 56 callsubr
        </CharString>
        <CharString name="dvK_SS">
          -25 271 583 -56 callgsubr
          376 -258 rmoveto
          64 -268 vlineto
          -95 callgsubr
          endchar
        </CharString>
        <CharString name="dvK_SSA">
          195 271 583 -56 callgsubr
          309 59 rmoveto
          -253 -201 vlineto
          -95 callgsubr
          248 hlineto
          1 -325 rlineto
          79 64 callsubr
        </CharString>
        <CharString name="dvK_SS_MA">
          526 910 -21 callsubr
          -639 8 -56 callgsubr
          216 59 rmoveto
          -67 135 -186 -243 vlineto
          -95 callgsubr
          260 hlineto
          -8 -9 -4 -12 -14 0 callgsubr
          67 hlineto
          endchar
        </CharString>
        <CharString name="dvK_SS_M_YA">
          893 1278 -74 callgsubr
          -488 236 -56 callgsubr
          209 59 rmoveto
          -67 135 -186 -236 vlineto
          -95 callgsubr
          253 hlineto
          -8 -10 -4 -12 -14 vvcurveto
          -26 14 -33 109 callgsubr
          -56 rlineto
          32 callsubr
          67 vlineto
          endchar
        </CharString>
        <CharString name="dvK_SS_VA">
          516 271 583 -56 callgsubr
          823 59 rmoveto
          -584 -67 390 -262 hlineto
          -80 -53 -78 -98 -69 33 callgsubr
          -73 -60 -33 -51 -34 hvcurveto
          -197 hlineto
          -95 callgsubr
          217 hlineto
          -2 -14 -2 -14 -15 -71 callsubr
        </CharString>
        <CharString name="dvK_SS_YA">
          540 924 82 callsubr
          -85 -54 57 79 -18 vhcurveto
          87 23 62 47 86 vvcurveto
          32 -8 32 -17 27 vhcurveto
          187 hlineto
          -653 8 rmoveto
          50 39 -44 -41 -65 -45 -26 -48 -15 hvcurveto
          -58 22 -28 36 48 vvcurveto
          46 36 39 54 vhcurveto
          233 59 rmoveto
          -67 150 vlineto
          14 -17 16 -30 -34 vvcurveto
          -104 -131 -22 -115 -33 -29 2 3 -26 vhcurveto
          50 23 37 37 70 vvcurveto
          78 -68 67 -102 -97 -66 -74 -75 -55 24 -46 50 -34 vhcurveto
          -71 -29 -56 -54 -78 vvcurveto
          -94 72 -64 107 60 60 30 36 20 vhcurveto
          -111 77 221 -72 vlineto
          -62 -17 -53 -48 -69 hhcurveto
          -58 -46 36 58 62 55 40 65 22 hvcurveto
          -16 49 61 -8 75 hhcurveto
          35 33 1 5 30 hvcurveto
          -118 31 84 -68 112 -44 callgsubr
          67 vlineto
          endchar
        </CharString>
        <CharString name="dvK_S_DDA">
          485 271 583 -56 callgsubr
          649 -159 105 callgsubr
          -565 -67 343 -84 -99 vlineto
          -78 -65 -33 -69 -14 hvcurveto
          -207 hlineto
          -95 callgsubr
          255 hlineto
          16 -64 63 -30 101 -4 rrcurveto
          -52 callsubr
        </CharString>
        <CharString name="dvK_S_P_LA">
          1482 1865 -29 callgsubr
          -92 -62 -66 -95 -15 hvcurveto
          -41 -30 -47 -27 -52 79 callgsubr
          201 738 vlineto
          -1028 -242 rmoveto
          -72 callgsubr
          184 -200 vlineto
          -15 1 -14 1 -13 vhcurveto
          -625 46 callsubr
          1635 208 rmoveto
          -2082 -99 callgsubr
          61 42 45 57 63 34 -52 -57 vhcurveto
          -23 vlineto
          -86 callgsubr
          178 hlineto
          -62 28 55 -27 78 hhcurveto
          54 44 18 27 36 hvcurveto
          -128 15 89 -93 133 -68 callgsubr
        </CharString>
        <CharString name="dvK_S_P_RA">
          983 1366 -37 callsubr
          -529 -242 rmoveto
          -72 callgsubr
          189 -182 vlineto
          -22 2 -20 3 -18 vhcurveto
          -633 242 rmoveto
          361 -137 hlineto
          -58 -17 -34 -73 -2 vhcurveto
          77 -16 -54 57 -92 hhcurveto
          -47 -37 -17 -27 -25 hvcurveto
          1135 208 rmoveto
          -1582 -99 callgsubr
          61 42 45 57 63 34 -52 -57 vhcurveto
          1 -23 hlineto
          -86 callgsubr
          192 hlineto
          25 -42 43 -22 55 -5 -30 callgsubr
        </CharString>
        <CharString name="dvK_S_TA">
          530 271 583 -56 callgsubr
          837 59 rmoveto
          -586 -67 392 -123 -104 hlineto
          -83 -62 -24 -39 -41 hvcurveto
          -245 hlineto
          -95 callgsubr
          249 hlineto
          -12 -29 -6 -32 -35 vvcurveto
          136 callsubr
          216 callsubr
          -7 hhcurveto
          -98 -45 -5 callsubr
          94 -36 callgsubr
        </CharString>
        <CharString name="dvK_S_TTA">
          447 271 583 -56 callgsubr
          644 -8 rmoveto
          110 67 -518 -67 329 -118 hlineto
          1 -7 -9 0 -8 hhcurveto
          -76 -1 -65 -25 -44 -43 rrcurveto
          -248 hlineto
          -95 callgsubr
          250 hlineto
          -11 -26 -6 -29 -32 72 callsubr
        </CharString>
        <CharString name="dvK_TA">
          351 929 203 callsubr
          -951 -67 473 -127 -377 -69 60 vlineto
          19 17 0 1 17 hvcurveto
          -51 -37 -21 -58 -66 vvcurveto
          -134 86 -83 131 11 202 callsubr
          68 234 callsubr
          -1 -6 hhcurveto
          -96 -48 59 92 105 60 55 120 hvcurveto
          76 -381 78 267 hlineto
          66 54 48 68 88 44 -75 -81 -96 -48 -60 -77 -12 -16 1 4 -12 vhcurveto
          -67 vlineto
          -3 12 18 -2 15 hhcurveto
          120 81 89 134 126 -75 94 -133 -52 -45 -18 -31 -30 hvcurveto
          179 vlineto
          endchar
        </CharString>
        <CharString name="dvK_THA">
          670 1054 -22 callgsubr
          135 callsubr
          -88 -49 42 82 -24 vhcurveto
          145 34 96 59 115 vvcurveto
          203 callgsubr
          -89 -55 -61 -66 -32 7 -15 4 -11 vhcurveto
          76 hlineto
          -2 10 -8 10 30 vvcurveto
          37 20 32 47 46 21 -34 -42 -71 -63 -41 -124 -33 vhcurveto
          62 -24 -38 55 -90 hhcurveto
          -46 -36 -16 -28 -25 hvcurveto
          141 146 67 -593 -67 368 -305 vlineto
          -107 callgsubr
          64 43 42 59 vhcurveto
          143 -104 -306 298 hhcurveto
          96 73 callsubr
          114 67 vlineto
          endchar
        </CharString>
        <CharString name="dvK_TTA">
          453 425 575 rmoveto
          418 116 callsubr
          -53 -48 -13 -22 -39 hvcurveto
          37 -33 -49 20 -55 71 callgsubr
          496 143 rmoveto
          111 67 -1054 -59 callsubr
          51 45 57 37 28 -12 -27 23 vhcurveto
          -31 -37 -18 -47 -54 -74 callsubr
        </CharString>
        <CharString name="dvK_T_RA">
          521 925 373 rmoveto
          56 -46 -68 28 -76 hhcurveto
          -43 -40 -9 -13 -29 hvcurveto
          22 -24 -32 15 -43 hhcurveto
          -38 -36 -15 -26 -25 hvcurveto
          144 500 201 callgsubr
          -1142 -59 callsubr
          47 38 44 45 25 -27 -31 14 vhcurveto
          20 34 44 19 56 hhcurveto
          73 -1 60 -39 33 -57 -285 -175 rcurveline
          42 -58 268 165 rlineto
          -224 -18 callsubr
        </CharString>
        <CharString name="dvK_T_VA">
          902 1270 313 rmoveto
          168 callgsubr
          -69 -55 49 79 45 20 35 31 21 vhcurveto
          0 vlineto
          0 vlineto
          14 20 25 7 27 hhcurveto
          22 20 -3 -6 17 hvcurveto
          74 callsubr
          -35 -33 -8 -13 -27 hvcurveto
          -195 hlineto
          -58 -47 -11 -21 -37 hvcurveto
          34 -32 -50 24 -56 hhcurveto
          -48 -42 -18 -30 -28 hvcurveto
          145 845 63 callsubr
          -1486 -99 callgsubr
          63 51 42 58 38 31 -18 -22 19 vhcurveto
          -31 -39 -15 -49 -56 96 callsubr
          111 hlineto
          -18 -29 -10 -35 -38 -71 callsubr
        </CharString>
        <CharString name="dvK_T_YA">
          935 1320 -105 callsubr
          -512 -123 rmoveto
          -52 -44 -12 -21 -35 hvcurveto
          39 -32 -43 22 -60 34 callgsubr
          624 vlineto
          -44 callsubr
          -44 -34 -39 -69 -22 vhcurveto
          41 -26 -51 30 -74 hhcurveto
          687 190 rmoveto
          -1535 -59 callsubr
          51 45 57 40 29 -21 -26 18 vhcurveto
          -27 -38 -14 -47 -54 121 callgsubr
          103 59 53 90 hvcurveto
          20 hlineto
          47 32 -24 -36 18 hvcurveto
          -130 32 92 -69 109 -93 callsubr
          115 vlineto
          endchar
        </CharString>
        <CharString name="dvK_VA">
          543 927 313 rmoveto
          -101 callsubr
          -22 hhcurveto
          -43 -37 -11 -19 -31 hvcurveto
          23 -31 -41 14 -45 34 callgsubr
          502 63 callsubr
          -1143 -59 callsubr
          51 45 57 29 24 -9 -15 18 vhcurveto
          -20 -31 -12 -37 -41 -71 callsubr
        </CharString>
        <CharString name="dvK_V_YA">
          867 1251 -105 callsubr
          -422 -110 rmoveto
          5 -16 -25 3 -22 hhcurveto
          -42 -37 -10 -19 -30 hvcurveto
          23 -31 -40 13 -44 34 callgsubr
          555 -25 callsubr
          9 -67 23 -54 33 -40 rrcurveto
          -30 -32 -40 -21 -56 176 callgsubr
          615 246 rmoveto
          -1466 -59 callsubr
          51 45 57 27 24 -8 -14 18 vhcurveto
          -22 -31 -12 -38 -42 vvcurveto
          184 callsubr
          81 61 33 40 39 vhcurveto
          -26 38 44 -13 48 -93 callsubr
          115 vlineto
          endchar
        </CharString>
        <CharString name="dvK_YA">
          618 1010 -38 callgsubr
          -1226 -99 callgsubr
          63 43 36 53 vhcurveto
          141 -87 -282 269 hhcurveto
          82 57 31 38 27 31 callgsubr
          vlineto
          endchar
        </CharString>
        <CharString name="dvKx">
          -29 154 13 -104 callgsubr
          271 562 rmoveto
          116 67 -563 -59 callsubr
          51 45 57 36 29 -14 -23 19 vhcurveto
          55 54 rlineto
          30 -32 -46 18 -52 71 callgsubr
          endchar
        </CharString>
        <CharString name="dvKxA">
          215 154 13 -104 callgsubr
          639 562 rmoveto
          67 -815 -67 368 -305 vlineto
          -63 -50 -45 -57 -68 -47 49 68 79 55 44 69 6 8 0 -1 5 vhcurveto
          66 vlineto
          2 -5 -9 1 -9 hhcurveto
          -108 -90 -72 -120 -108 75 -72 109 25 callsubr
        </CharString>
        <CharString name="dvKx_BA">
          580 154 13 -104 callgsubr
          810 293 rmoveto
          -69 callsubr
          -56 -50 -17 -29 -37 hvcurveto
          20 -30 -38 11 -41 34 callgsubr
          539 vlineto
          -72 -402 -37 callgsubr
          -1180 -59 callsubr
          51 45 57 28 23 -8 -14 18 vhcurveto
          -17 -31 -10 -35 -40 62 callsubr
        </CharString>
        <CharString name="dvKx_KxA">
          728 154 13 -104 callgsubr
          513 hmoveto
          -30 -22 -24 -29 -30 22 -22 30 30 24 22 30 29 -24 24 -30 hvcurveto
          192 257 rmoveto
          -63 -50 -45 -57 -68 -47 49 68 79 55 44 69 6 8 101 callgsubr
          -5 -9 1 -9 hhcurveto
          -37 -35 -8 -16 -30 hvcurveto
          21 -30 -39 13 -44 34 callgsubr
          434 vlineto
          447 hmoveto
          67 -1328 -67 368 -305 vlineto
          -106 callsubr
          25 22 -7 -12 17 vhcurveto
          -24 -31 -14 -40 -47 -76 callsubr
        </CharString>
        <CharString name="dvKx_MA">
          528 154 13 -104 callgsubr
          759 330 -45 callgsubr
        </CharString>
        <CharString name="dvKx_PHA">
          772 154 13 -104 callgsubr
          764 369 rmoveto
          -60 callgsubr
          201 234 vlineto
          -493 hmoveto
          180 -104 hlineto
          6 -19 -22 3 -22 71 callgsubr
          925 143 rmoveto
          67 -1372 -67 368 -305 vlineto
          -106 callsubr
          29 25 -9 -16 18 vhcurveto
          -19 vlineto
          -141 65 -51 115 vhcurveto
          -104 callsubr
        </CharString>
        <CharString name="dvKx_PHxA">
          772 154 13 -104 callgsubr
          523 54 -104 callgsubr
          241 315 rmoveto
          -60 callgsubr
          201 234 vlineto
          -493 hmoveto
          180 -104 hlineto
          6 -19 -22 3 -22 71 callgsubr
          925 143 rmoveto
          67 -1372 -67 368 -305 vlineto
          -106 callsubr
          29 25 -9 -16 18 vhcurveto
          -19 vlineto
          -141 65 -51 115 vhcurveto
          -104 callsubr
        </CharString>
        <CharString name="dvKx_R">
          -23 287 -75 -104 callgsubr
          146 650 rmoveto
          122 67 -577 -67 376 -305 hlineto
          -60 callsubr
          36 29 -14 -23 20 vhcurveto
          54 54 rlineto
          30 -32 -46 18 -52 hhcurveto
          -48 -40 -18 -29 -28 hvcurveto
          endchar
        </CharString>
        <CharString name="dvKx_RA">
          222 284 -26 -104 callgsubr
          516 601 rmoveto
          67 -822 -67 376 -305 vlineto
          -63 -51 -45 -57 -68 -46 49 68 79 54 44 69 6 9 0 -1 5 vhcurveto
          66 vlineto
          2 -6 -9 1 -8 hhcurveto
          -109 -90 -72 -120 -102 69 -69 96 -7 hvcurveto
          -140 -145 rlineto
          -35 callgsubr
        </CharString>
        <CharString name="dvKx_TA">
          547 154 13 -104 callgsubr
          777 439 rmoveto
          -104 hlineto
          -58 -48 -12 -20 -37 hvcurveto
          34 -35 -44 26 -63 34 callgsubr
          506 63 callsubr
          -1147 -59 callsubr
          51 45 57 39 29 -15 -28 25 vhcurveto
          -31 -38 -15 -50 -55 96 callsubr
          95 222 callsubr
          hlineto
          endchar
        </CharString>
        <CharString name="dvL">
          -78 333 68 rmoveto
          -77 callgsubr
          43 38 61 37 26 -20 -18 14 vhcurveto
          44 48 rlineto
          33 -30 -40 21 -55 hhcurveto
          -72 -51 -34 -64 50 callgsubr
          -106 -66 -87 -119 20 callgsubr
          hvcurveto
          -355 572 rmoveto
          523 67 -523 hlineto
          endchar
        </CharString>
        <CharString name="dvLA">
          178 756 -22 callgsubr
          -778 -67 583 -113 hlineto
          6 -15 -21 5 -24 hhcurveto
          -75 -50 -34 -64 -15 hvcurveto
          59 -13 -48 35 -73 hhcurveto
          -106 -66 -87 -119 -149 93 -114 147 -67 callsubr
        </CharString>
        <CharString name="dvLL">
          242 557 91 rmoveto
          108 87 74 116 108 -79 75 -118 78 callgsubr
          -3 309 rmoveto
          74 45 -48 -70 -75 -46 -50 -73 -57 -48 32 37 -31 hvcurveto
          80 27 14 94 95 hhcurveto
          -315 -243 rmoveto
          12 callsubr
          -261 418 rmoveto
          842 67 -842 hlineto
          endchar
        </CharString>
        <CharString name="dvLLA">
          -15 callgsubr
          -40 36 56 -33 80 hhcurveto
          108 87 74 116 94 -60 69 -93 16 hvcurveto
          3 callgsubr
        </CharString>
        <CharString name="dvLL_R">
          242 554 157 rmoveto
          -57 -48 32 37 -31 hvcurveto
          80 27 14 94 95 hhcurveto
          74 45 -48 -70 -75 -46 -50 -73 hvcurveto
          -315 hmoveto
          12 callsubr
          123 -204 rmoveto
          140 callsubr
          108 -79 75 -118 -78 -43 -29 -38 -29 vhcurveto
          -9 callgsubr
          23 -26 32 -23 41 -13 rrcurveto
          -503 540 rmoveto
          -67 842 67 vlineto
          endchar
        </CharString>
        <CharString name="dvLL_RA">
          -15 callgsubr
          23 -26 32 -23 41 -13 -119 -149 rcurveline
          140 callsubr
          94 -60 69 -93 16 vhcurveto
          3 callgsubr
        </CharString>
        <CharString name="dvLL_YA">
          676 1061 -105 callsubr
          -388 -293 rmoveto
          -75 -46 -50 -73 -57 -48 32 37 -31 vhcurveto
          80 27 14 94 95 hhcurveto
          55 39 -27 -42 16 hvcurveto
          2 -9 3 -8 2 -9 rrcurveto
          1 -7 1 -8 -8 vvcurveto
          -434 -125 rmoveto
          12 callsubr
          1015 485 rmoveto
          -1276 -67 812 135 callgsubr
          -32 -38 -66 -22 vhcurveto
          50 -33 -59 31 -76 hhcurveto
          78 callgsubr
          78 67 39 65 31 hvcurveto
          -46 44 58 -24 64 -93 callsubr
          115 vlineto
          endchar
        </CharString>
</ttFont>
